<svg width="167" height="167" viewBox="0 0 167 167" fill="none" xmlns="http://www.w3.org/2000/svg">
<path d="M0.0703125 43.68C0.0703125 28.3906 0.0703125 20.7458 3.04583 14.9061C5.66318 9.76923 9.83954 5.59286 14.9764 2.97552C20.8162 0 28.4609 0 43.7503 0L122.92 0C138.21 0 145.854 0 151.694 2.97552C156.831 5.59286 161.007 9.76923 163.625 14.9061C166.6 20.7458 166.6 28.3906 166.6 43.68L166.6 122.85C166.6 138.139 166.6 145.784 163.625 151.624C161.007 156.761 156.831 160.937 151.694 163.554C145.854 166.53 138.21 166.53 122.92 166.53L43.7503 166.53C28.4609 166.53 20.8162 166.53 14.9764 163.554C9.83954 160.937 5.66318 156.761 3.04583 151.624C0.0703125 145.784 0.0703125 138.139 0.0703125 122.85L0.0703125 43.68Z" fill="url(#paint0_linear_1390_23414)"/>
<path d="M0.0703125 43.68C0.0703125 28.3906 0.0703125 20.7458 3.04583 14.9061C5.66318 9.76923 9.83954 5.59286 14.9764 2.97552C20.8162 0 28.4609 0 43.7503 0L122.92 0C138.21 0 145.854 0 151.694 2.97552C156.831 5.59286 161.007 9.76923 163.625 14.9061C166.6 20.7458 166.6 28.3906 166.6 43.68L166.6 122.85C166.6 138.139 166.6 145.784 163.625 151.624C161.007 156.761 156.831 160.937 151.694 163.554C145.854 166.53 138.21 166.53 122.92 166.53L43.7503 166.53C28.4609 166.53 20.8162 166.53 14.9764 163.554C9.83954 160.937 5.66318 156.761 3.04583 151.624C0.0703125 145.784 0.0703125 138.139 0.0703125 122.85L0.0703125 43.68Z" fill="url(#paint1_linear_1390_23414)"/>
<path d="M163.87 43.68L163.87 122.85C163.87 130.54 163.868 136.143 163.507 140.558C163.149 144.942 162.451 147.914 161.192 150.385C158.837 155.008 155.078 158.766 150.455 161.122C147.984 162.381 145.012 163.079 140.628 163.437C136.213 163.798 130.61 163.8 122.92 163.8L43.7503 163.8C36.0605 163.8 30.4574 163.798 26.042 163.437C21.6585 163.079 18.6867 162.381 16.2158 161.122C11.5926 158.766 7.83389 155.008 5.47828 150.385C4.2193 147.914 3.52133 144.942 3.16318 140.558C2.80243 136.143 2.80031 130.54 2.80031 122.85L2.80031 43.68C2.80031 35.9902 2.80243 30.3871 3.16318 25.9717C3.52133 21.5882 4.2193 18.6163 5.47828 16.1454C7.83389 11.5223 11.5926 7.76358 16.2158 5.40797C18.6867 4.14898 21.6585 3.45102 26.042 3.09287C30.4574 2.73212 36.0605 2.73 43.7503 2.73L122.92 2.73C130.61 2.73 136.213 2.73212 140.628 3.09287C145.012 3.45102 147.984 4.14898 150.455 5.40797C155.078 7.76358 158.837 11.5223 161.192 16.1454C162.451 18.6163 163.149 21.5882 163.507 25.9717C163.868 30.3871 163.87 35.9902 163.87 43.68Z" stroke="#F7A80D" stroke-opacity="0.5" stroke-width="5.46"/>
<path d="M64.4949 93.1055L56.1429 96.6954L63.8795 99.9995L72.847 96.6954L64.4949 93.1055ZM51.9376 97.5892L51.6592 113.729L63.8795 119.114L63.8795 102.351L51.9376 97.5892ZM77.0523 97.5892L66.0115 101.794L66.0115 117.597L77.0523 113.114L77.0523 97.5892ZM90.225 47.3672L81.8144 50.9571L89.6023 54.2613L98.5697 50.9571L90.225 47.3672ZM78.5688 52.1293L78.5688 68.2692L88.9942 71.295L89.3312 56.6057L78.5688 52.122V52.1293ZM101.888 53.0231L92.0199 57.2284L92.0199 73.0899L101.888 68.6062L101.888 53.0231ZM50.7361 70.0861L42.3841 73.676L50.1207 76.9802L59.0881 73.676L50.7361 70.0861ZM38.1788 74.5699L37.9004 90.7098L50.1207 96.0946L50.1207 79.332L38.1788 74.5699ZM63.2934 74.5699L52.2527 78.7752L52.2527 94.5781L63.2934 90.0943L63.2934 74.5699ZM77.6457 69.4854L69.2937 73.0753L77.0303 76.3795L85.9977 73.0753L77.6457 69.4854ZM65.0884 73.9691L64.81 90.109L77.0303 95.4939L77.0303 78.7312L65.0884 73.9691ZM90.203 73.9691L79.1622 78.1744L79.1622 93.9846L90.203 89.5009L90.203 73.9764V73.9691ZM116.505 47.3672L108.152 50.9571L115.889 54.2613L124.857 50.9571L116.505 47.3672ZM103.947 51.8509L103.669 67.9908L115.889 73.3683L115.889 56.613L103.947 51.8509ZM129.062 51.8509L118.021 56.0562L118.021 71.8664L129.062 67.3827L129.062 51.8509Z" fill="#F7A80D"/>
<defs>
<linearGradient id="paint0_linear_1390_23414" x1="75.0779" y1="6.85062" x2="127.504" y2="165.536" gradientUnits="userSpaceOnUse">
<stop stop-color="white"/>
<stop offset="1" stop-color="#D7D7D7"/>
</linearGradient>
<linearGradient id="paint1_linear_1390_23414" x1="74.7008" y1="0.530193" x2="135.285" y2="170.053" gradientUnits="userSpaceOnUse">
<stop stop-color="#322D37"/>
<stop offset="1" stop-color="#18151B"/>
</linearGradient>
</defs>
</svg>
