<svg width="167" height="167" viewBox="0 0 167 167" fill="none" xmlns="http://www.w3.org/2000/svg">
<path d="M0.362305 43.68C0.362305 28.3906 0.362305 20.7458 3.33783 14.9061C5.95517 9.76923 10.1315 5.59286 15.2684 2.97552C21.1081 0 28.7529 0 44.0423 0L123.212 0C138.502 0 146.146 0 151.986 2.97552C157.123 5.59286 161.299 9.76923 163.917 14.9061C166.892 20.7458 166.892 28.3906 166.892 43.68L166.892 122.85C166.892 138.139 166.892 145.784 163.917 151.624C161.299 156.761 157.123 160.937 151.986 163.554C146.146 166.53 138.502 166.53 123.212 166.53L44.0423 166.53C28.7529 166.53 21.1081 166.53 15.2684 163.554C10.1315 160.937 5.95517 156.761 3.33783 151.624C0.362305 145.784 0.362305 138.139 0.362305 122.85L0.362305 43.68Z" fill="url(#paint0_linear_1390_23489)"/>
<path d="M0.362305 43.68C0.362305 28.3906 0.362305 20.7458 3.33783 14.9061C5.95517 9.76923 10.1315 5.59286 15.2684 2.97552C21.1081 0 28.7529 0 44.0423 0L123.212 0C138.502 0 146.146 0 151.986 2.97552C157.123 5.59286 161.299 9.76923 163.917 14.9061C166.892 20.7458 166.892 28.3906 166.892 43.68L166.892 122.85C166.892 138.139 166.892 145.784 163.917 151.624C161.299 156.761 157.123 160.937 151.986 163.554C146.146 166.53 138.502 166.53 123.212 166.53L44.0423 166.53C28.7529 166.53 21.1081 166.53 15.2684 163.554C10.1315 160.937 5.95517 156.761 3.33783 151.624C0.362305 145.784 0.362305 138.139 0.362305 122.85L0.362305 43.68Z" fill="url(#paint1_linear_1390_23489)"/>
<path d="M164.162 43.68L164.162 122.85C164.162 130.54 164.16 136.143 163.799 140.558C163.441 144.942 162.743 147.914 161.484 150.385C159.129 155.008 155.37 158.766 150.747 161.122C148.276 162.381 145.304 163.079 140.92 163.437C136.505 163.798 130.902 163.8 123.212 163.8L44.0423 163.8C36.3525 163.8 30.7494 163.798 26.334 163.437C21.9505 163.079 18.9786 162.381 16.5077 161.122C11.8846 158.766 8.12588 155.008 5.77027 150.385C4.51129 147.914 3.81332 144.942 3.45518 140.558C3.09443 136.143 3.0923 130.54 3.0923 122.85L3.0923 43.68C3.0923 35.9902 3.09443 30.3871 3.45518 25.9717C3.81332 21.5882 4.51129 18.6163 5.77027 16.1454C8.12588 11.5223 11.8846 7.76358 16.5077 5.40797C18.9786 4.14898 21.9505 3.45102 26.334 3.09287C30.7494 2.73212 36.3525 2.73 44.0423 2.73L123.212 2.73C130.902 2.73 136.505 2.73212 140.92 3.09287C145.304 3.45102 148.276 4.14898 150.747 5.40797C155.37 7.76358 159.129 11.5223 161.484 16.1454C162.743 18.6163 163.441 21.5882 163.799 25.9717C164.16 30.3871 164.162 35.9902 164.162 43.68Z" stroke="#DD0031" stroke-opacity="0.5" stroke-width="5.46"/>
<path d="M83.695 38.9023L42.3936 53.6307L48.693 108.241L83.695 127.627L118.697 108.241L124.996 53.6307L83.695 38.9023Z" fill="#DD0031"/>
<path d="M83.6963 38.9023L83.6963 48.7508V48.7065L83.6963 93.6457L83.6963 127.627L118.698 108.241L124.998 53.6307L83.6963 38.9023Z" fill="#C3002F"/>
<path d="M83.6949 48.707L57.876 106.6H67.5026L72.693 93.6462L94.6081 93.6462L99.7985 106.6L109.425 106.6L83.6949 48.707ZM91.2365 85.661L76.1533 85.661L83.6949 67.5167L91.2365 85.661Z" fill="white"/>
<defs>
<linearGradient id="paint0_linear_1390_23489" x1="75.3699" y1="6.85062" x2="127.796" y2="165.536" gradientUnits="userSpaceOnUse">
<stop stop-color="white"/>
<stop offset="1" stop-color="#D7D7D7"/>
</linearGradient>
<linearGradient id="paint1_linear_1390_23489" x1="74.9928" y1="0.530193" x2="135.577" y2="170.053" gradientUnits="userSpaceOnUse">
<stop stop-color="#322D37"/>
<stop offset="1" stop-color="#18151B"/>
</linearGradient>
</defs>
</svg>
