<svg width="168" height="167" viewBox="0 0 168 167" fill="none" xmlns="http://www.w3.org/2000/svg">
<path d="M0.481445 43.68C0.481445 28.3906 0.481445 20.7458 3.45697 14.9061C6.07431 9.76923 10.2507 5.59286 15.3875 2.97552C21.2273 0 28.872 0 44.1614 0L123.331 0C138.621 0 146.265 0 152.105 2.97552C157.242 5.59286 161.418 9.76923 164.036 14.9061C167.011 20.7458 167.011 28.3906 167.011 43.68L167.011 122.85C167.011 138.139 167.011 145.784 164.036 151.624C161.418 156.761 157.242 160.937 152.105 163.554C146.265 166.53 138.621 166.53 123.331 166.53L44.1614 166.53C28.872 166.53 21.2273 166.53 15.3875 163.554C10.2507 160.937 6.07431 156.761 3.45697 151.624C0.481445 145.784 0.481445 138.139 0.481445 122.85L0.481445 43.68Z" fill="url(#paint0_linear_1390_23470)"/>
<path d="M0.481445 43.68C0.481445 28.3906 0.481445 20.7458 3.45697 14.9061C6.07431 9.76923 10.2507 5.59286 15.3875 2.97552C21.2273 0 28.872 0 44.1614 0L123.331 0C138.621 0 146.265 0 152.105 2.97552C157.242 5.59286 161.418 9.76923 164.036 14.9061C167.011 20.7458 167.011 28.3906 167.011 43.68L167.011 122.85C167.011 138.139 167.011 145.784 164.036 151.624C161.418 156.761 157.242 160.937 152.105 163.554C146.265 166.53 138.621 166.53 123.331 166.53L44.1614 166.53C28.872 166.53 21.2273 166.53 15.3875 163.554C10.2507 160.937 6.07431 156.761 3.45697 151.624C0.481445 145.784 0.481445 138.139 0.481445 122.85L0.481445 43.68Z" fill="url(#paint1_linear_1390_23470)"/>
<path d="M164.281 43.68L164.281 122.85C164.281 130.54 164.279 136.143 163.918 140.558C163.56 144.942 162.862 147.914 161.603 150.385C159.248 155.008 155.489 158.766 150.866 161.122C148.395 162.381 145.423 163.079 141.04 163.437C136.624 163.798 131.021 163.8 123.331 163.8L44.1614 163.8C36.4717 163.8 30.8685 163.798 26.4532 163.437C22.0697 163.079 19.0978 162.381 16.6269 161.122C12.0038 158.766 8.24502 155.008 5.88941 150.385C4.63043 147.914 3.93246 144.942 3.57432 140.558C3.21357 136.143 3.21144 130.54 3.21144 122.85L3.21144 43.68C3.21144 35.9902 3.21357 30.3871 3.57432 25.9717C3.93246 21.5882 4.63043 18.6163 5.88941 16.1454C8.24502 11.5223 12.0038 7.76358 16.6269 5.40797C19.0978 4.14898 22.0697 3.45102 26.4532 3.09287C30.8685 2.73212 36.4717 2.73 44.1614 2.73L123.331 2.73C131.021 2.73 136.624 2.73212 141.04 3.09287C145.423 3.45102 148.395 4.14898 150.866 5.40797C155.489 7.76358 159.248 11.5223 161.603 16.1454C162.862 18.6163 163.56 21.5882 163.918 25.9717C164.279 30.3871 164.281 35.9902 164.281 43.68Z" stroke="#009DDC" stroke-opacity="0.5" stroke-width="5.46"/>
<path fill-rule="evenodd" clip-rule="evenodd" d="M46.8232 62.6681C46.8534 62.6188 46.8857 62.5695 46.9169 62.5211C52.0736 54.5475 60.2083 49.881 67.8588 49.881C75.5093 49.881 80.5452 54.1689 86.9846 54.1689C93.4239 54.1689 97.0372 49.875 106.044 49.875C112.849 49.875 120.062 53.596 125.201 60.0294C123.78 60.8106 122.499 61.6976 121.353 62.6732L46.8232 62.6681Z" fill="#61BB46" stroke="#61BB46" stroke-width="0.542653" stroke-miterlimit="2.24"/>
<path fill-rule="evenodd" clip-rule="evenodd" d="M99.2107 42.6929C102.48 38.4765 104.966 32.5245 104.065 26.4375C98.7204 26.805 92.4694 30.222 88.8178 34.6709C85.5045 38.7121 82.7691 44.7045 83.8343 50.5267C89.6695 50.7089 95.7051 47.2103 99.2107 42.6939V42.6929Z" fill="#61BB46" stroke="#61BB46" stroke-width="0.542653" stroke-miterlimit="2.24"/>
<path fill-rule="evenodd" clip-rule="evenodd" d="M46.5566 62.5508C44.3357 66.0443 42.7993 71.052 42.3916 75.4446L114.442 75.4426C115.221 70.6372 117.811 66.0463 121.917 62.5558L46.5566 62.5508Z" fill="#FDB827"/>
<path fill-rule="evenodd" clip-rule="evenodd" d="M43.0468 88.2274C42.3471 83.7412 42.2333 79.416 42.6733 75.4473L114.162 75.4453C113.463 79.7483 114.05 84.2264 115.819 88.2294L43.0468 88.2264V88.2274Z" fill="#F5821F" stroke="#F5821F" stroke-width="0.542653" stroke-miterlimit="2.24"/>
<path fill-rule="evenodd" clip-rule="evenodd" d="M46.5394 101.006C44.851 96.7127 43.6953 92.3997 43.0459 88.2266L115.818 88.2296C118.071 93.3299 122.24 97.6631 128.11 99.8901C127.936 100.28 127.768 100.652 127.606 101.011L46.5404 101.006H46.5394Z" fill="#E03A3E" stroke="#E03A3E" stroke-width="0.542653" stroke-miterlimit="2.24"/>
<path fill-rule="evenodd" clip-rule="evenodd" d="M127.605 101.013C125.589 105.463 124.42 107.772 121.632 112.035C121.256 112.608 120.868 113.193 120.465 113.785L53.2925 113.791C53.0771 113.469 52.8647 113.148 52.6543 112.828C50.1434 108.988 48.1097 105.005 46.5381 101.008L127.604 101.013H127.605Z" fill="#963D97" stroke="#963D97" stroke-width="0.542653" stroke-miterlimit="2.24"/>
<path fill-rule="evenodd" clip-rule="evenodd" d="M120.465 113.781C116.356 119.826 110.839 126.478 104.145 126.54C97.6132 126.6 95.938 122.271 87.0763 122.321C78.2147 122.37 76.3642 126.616 69.8333 126.554C62.8503 126.49 57.4268 119.957 53.2939 113.787L120.466 113.781H120.465Z" fill="#009DDC" stroke="#009DDC" stroke-width="0.542653" stroke-miterlimit="2.24"/>
<defs>
<linearGradient id="paint0_linear_1390_23470" x1="75.489" y1="6.85062" x2="127.915" y2="165.536" gradientUnits="userSpaceOnUse">
<stop stop-color="white"/>
<stop offset="1" stop-color="#D7D7D7"/>
</linearGradient>
<linearGradient id="paint1_linear_1390_23470" x1="75.1119" y1="0.530193" x2="135.696" y2="170.053" gradientUnits="userSpaceOnUse">
<stop stop-color="#322D37"/>
<stop offset="1" stop-color="#18151B"/>
</linearGradient>
</defs>
</svg>
