<svg width="167" height="167" viewBox="0 0 167 167" fill="none" xmlns="http://www.w3.org/2000/svg">
<path d="M0.0107422 43.9144C0.0107422 28.6249 0.0107422 20.9802 2.98626 15.1404C5.6036 10.0036 9.77997 5.82724 14.9168 3.2099C20.7566 0.234375 28.4013 0.234375 43.6907 0.234375L122.861 0.234375C138.15 0.234375 145.795 0.234375 151.635 3.2099C156.771 5.82724 160.948 10.0036 163.565 15.1404C166.541 20.9802 166.541 28.6249 166.541 43.9144L166.541 123.084C166.541 138.374 166.541 146.019 163.565 151.858C160.948 156.995 156.771 161.172 151.635 163.789C145.795 166.764 138.15 166.764 122.861 166.764L43.6907 166.764C28.4013 166.764 20.7566 166.764 14.9168 163.789C9.77997 161.172 5.6036 156.995 2.98626 151.858C0.0107422 146.019 0.0107422 138.374 0.0107422 123.084L0.0107422 43.9144Z" fill="url(#paint0_linear_1390_23495)"/>
<path d="M0.0107422 43.9144C0.0107422 28.6249 0.0107422 20.9802 2.98626 15.1404C5.6036 10.0036 9.77997 5.82724 14.9168 3.2099C20.7566 0.234375 28.4013 0.234375 43.6907 0.234375L122.861 0.234375C138.15 0.234375 145.795 0.234375 151.635 3.2099C156.771 5.82724 160.948 10.0036 163.565 15.1404C166.541 20.9802 166.541 28.6249 166.541 43.9144L166.541 123.084C166.541 138.374 166.541 146.019 163.565 151.858C160.948 156.995 156.771 161.172 151.635 163.789C145.795 166.764 138.15 166.764 122.861 166.764L43.6907 166.764C28.4013 166.764 20.7566 166.764 14.9168 163.789C9.77997 161.172 5.6036 156.995 2.98626 151.858C0.0107422 146.019 0.0107422 138.374 0.0107422 123.084L0.0107422 43.9144Z" fill="url(#paint1_linear_1390_23495)"/>
<path d="M163.811 43.9144L163.811 123.084C163.811 130.774 163.808 136.377 163.448 140.793C163.09 145.176 162.392 148.148 161.133 150.619C158.777 155.242 155.018 159.001 150.395 161.356C147.924 162.615 144.952 163.313 140.569 163.672C136.153 164.032 130.55 164.034 122.861 164.034L43.6907 164.034C36.001 164.034 30.3978 164.032 25.9825 163.672C21.5989 163.313 18.6271 162.615 16.1562 161.356C11.533 159.001 7.77432 155.242 5.41871 150.619C4.15972 148.148 3.46176 145.176 3.10361 140.793C2.74286 136.377 2.74074 130.774 2.74074 123.084L2.74074 43.9144C2.74074 36.2246 2.74286 30.6215 3.10361 26.2061C3.46176 21.8226 4.15973 18.8507 5.41871 16.3798C7.77432 11.7567 11.533 7.99795 16.1562 5.64234C18.6271 4.38336 21.5989 3.68539 25.9825 3.32725C30.3978 2.9665 36.001 2.96437 43.6907 2.96437L122.861 2.96437C130.55 2.96437 136.153 2.9665 140.569 3.32725C144.952 3.68539 147.924 4.38336 150.395 5.64234C155.018 7.99795 158.777 11.7567 161.133 16.3798C162.392 18.8507 163.09 21.8226 163.448 26.2061C163.808 30.6215 163.811 36.2246 163.811 43.9144Z" stroke="#2993E0" stroke-opacity="0.5" stroke-width="5.46"/>
<path d="M67.4703 39.1367L95.2344 39.1367L66.4125 124.545C65.805 126.347 64.1193 127.555 62.2151 127.555L40.6072 127.555C38.1638 127.555 36.1846 125.575 36.1846 123.132C36.1846 122.654 36.2596 122.176 36.4166 121.719L63.273 42.1465C63.8804 40.3516 65.5662 39.1367 67.4703 39.1367Z" fill="url(#paint2_linear_1390_23495)"/>
<path d="M107.823 96.4209L63.7877 96.4209C62.6616 96.4209 61.7471 97.3286 61.7471 98.4547C61.7471 99.0212 61.9791 99.5604 62.3954 99.9494L90.6919 126.355C91.5177 127.127 92.6029 127.55 93.729 127.55L118.661 127.55L107.823 96.4141V96.4209Z" fill="#0078D4"/>
<path d="M67.4717 39.1367C65.547 39.1299 63.8476 40.3721 63.2675 42.208L36.4521 121.651C35.6263 123.944 36.8206 126.476 39.1138 127.295C39.5984 127.466 40.1035 127.555 40.6153 127.555L62.7829 127.555C64.4619 127.254 65.8542 126.074 66.4206 124.463L71.7646 108.704L90.8609 126.517C91.6595 127.179 92.6627 127.548 93.707 127.555L118.55 127.555L107.657 96.419L75.9006 96.419L95.3381 39.1367L67.4717 39.1367Z" fill="url(#paint3_linear_1390_23495)"/>
<path d="M102.933 42.1465C102.325 40.3447 100.64 39.1367 98.7424 39.1367L67.7979 39.1367C69.6952 39.1367 71.381 40.3447 71.9884 42.1465L98.8447 121.719C99.6228 124.033 98.3806 126.544 96.067 127.323C95.6097 127.48 95.132 127.555 94.6542 127.555L125.599 127.555C128.042 127.555 130.021 125.575 130.021 123.132C130.021 122.654 129.939 122.176 129.789 121.719L102.933 42.1465Z" fill="url(#paint4_linear_1390_23495)"/>
<defs>
<linearGradient id="paint0_linear_1390_23495" x1="75.0183" y1="7.08499" x2="127.444" y2="165.77" gradientUnits="userSpaceOnUse">
<stop stop-color="white"/>
<stop offset="1" stop-color="#D7D7D7"/>
</linearGradient>
<linearGradient id="paint1_linear_1390_23495" x1="74.6412" y1="0.764568" x2="135.225" y2="170.288" gradientUnits="userSpaceOnUse">
<stop stop-color="#322D37"/>
<stop offset="1" stop-color="#18151B"/>
</linearGradient>
<linearGradient id="paint2_linear_1390_23495" x1="79.4919" y1="44.728" x2="50.7024" y2="129.787" gradientUnits="userSpaceOnUse">
<stop stop-color="#114A8B"/>
<stop offset="1" stop-color="#0669BC"/>
</linearGradient>
<linearGradient id="paint3_linear_1390_23495" x1="88.4899" y1="84.3668" x2="81.8249" y2="86.624" gradientUnits="userSpaceOnUse">
<stop stop-opacity="0.3"/>
<stop offset="0.07" stop-opacity="0.2"/>
<stop offset="0.32" stop-opacity="0.1"/>
<stop offset="0.62" stop-opacity="0.05"/>
<stop offset="1" stop-opacity="0"/>
</linearGradient>
<linearGradient id="paint4_linear_1390_23495" x1="85.0282" y1="42.1728" x2="116.639" y2="126.369" gradientUnits="userSpaceOnUse">
<stop stop-color="#3CCBF4"/>
<stop offset="1" stop-color="#2892DF"/>
</linearGradient>
</defs>
</svg>
