<svg width="168" height="167" viewBox="0 0 168 167" fill="none" xmlns="http://www.w3.org/2000/svg">
<path d="M0.652344 43.68C0.652344 28.3906 0.652344 20.7458 3.62786 14.9061C6.24521 9.76923 10.4216 5.59286 15.5584 2.97552C21.3982 0 29.0429 0 44.3323 0L123.502 0C138.792 0 146.436 0 152.276 2.97552C157.413 5.59286 161.589 9.76923 164.207 14.9061C167.182 20.7458 167.182 28.3906 167.182 43.68L167.182 122.85C167.182 138.139 167.182 145.784 164.207 151.624C161.589 156.761 157.413 160.937 152.276 163.554C146.436 166.53 138.792 166.53 123.502 166.53L44.3323 166.53C29.0429 166.53 21.3982 166.53 15.5584 163.554C10.4216 160.937 6.24521 156.761 3.62786 151.624C0.652344 145.784 0.652344 138.139 0.652344 122.85L0.652344 43.68Z" fill="url(#paint0_linear_1390_23236)"/>
<path d="M0.652344 43.68C0.652344 28.3906 0.652344 20.7458 3.62786 14.9061C6.24521 9.76923 10.4216 5.59286 15.5584 2.97552C21.3982 0 29.0429 0 44.3323 0L123.502 0C138.792 0 146.436 0 152.276 2.97552C157.413 5.59286 161.589 9.76923 164.207 14.9061C167.182 20.7458 167.182 28.3906 167.182 43.68L167.182 122.85C167.182 138.139 167.182 145.784 164.207 151.624C161.589 156.761 157.413 160.937 152.276 163.554C146.436 166.53 138.792 166.53 123.502 166.53L44.3323 166.53C29.0429 166.53 21.3982 166.53 15.5584 163.554C10.4216 160.937 6.24521 156.761 3.62786 151.624C0.652344 145.784 0.652344 138.139 0.652344 122.85L0.652344 43.68Z" fill="url(#paint1_linear_1390_23236)"/>
<path d="M164.452 43.68L164.452 122.85C164.452 130.54 164.45 136.143 164.089 140.558C163.731 144.942 163.033 147.914 161.774 150.385C159.419 155.008 155.66 158.766 151.037 161.122C148.566 162.381 145.594 163.079 141.21 163.437C136.795 163.798 131.192 163.8 123.502 163.8L44.3323 163.8C36.6426 163.8 31.0394 163.798 26.6241 163.437C22.2406 163.079 19.2687 162.381 16.7978 161.122C12.1746 158.766 8.41592 155.008 6.06031 150.385C4.80133 147.914 4.10336 144.942 3.74522 140.558C3.38447 136.143 3.38234 130.54 3.38234 122.85L3.38234 43.68C3.38234 35.9902 3.38447 30.3871 3.74522 25.9717C4.10336 21.5882 4.80133 18.6163 6.06031 16.1454C8.41592 11.5223 12.1746 7.76358 16.7978 5.40797C19.2687 4.14898 22.2406 3.45102 26.6241 3.09287C31.0394 2.73212 36.6426 2.73 44.3323 2.73L123.502 2.73C131.192 2.73 136.795 2.73212 141.21 3.09287C145.594 3.45102 148.566 4.14898 151.037 5.40797C155.66 7.76358 159.419 11.5223 161.774 16.1454C163.033 18.6163 163.731 21.5882 164.089 25.9717C164.45 30.3871 164.452 35.9902 164.452 43.68Z" stroke="#00599C" stroke-opacity="0.5" stroke-width="5.46"/>
<path fill-rule="evenodd" clip-rule="evenodd" d="M81.3555 34.8977C82.9409 34.0081 84.8929 34.0081 86.4759 34.8977C94.3093 39.2942 117.882 52.5281 125.718 56.9247C127.303 57.8119 128.279 59.4557 128.279 61.2348L128.279 105.287C128.279 107.066 127.303 108.709 125.718 109.599C117.884 113.996 94.3116 127.229 86.4759 131.626C84.8905 132.516 82.9386 132.516 81.3555 131.626C73.5221 127.229 49.9495 113.996 42.1137 109.599C40.5307 108.709 39.5547 107.068 39.5547 105.289L39.5547 61.2371C39.5547 59.458 40.5307 57.8143 42.116 56.9247C49.9471 52.5281 73.5245 39.2942 81.3555 34.8977Z" fill="#004482"/>
<path fill-rule="evenodd" clip-rule="evenodd" d="M40.2645 107.555C39.6434 106.724 39.5547 105.935 39.5547 104.872L39.5547 61.0726C39.5547 59.3028 40.5283 57.6684 42.109 56.7858C49.9144 52.415 73.4077 39.2581 81.2131 34.8849C82.7938 34 84.9349 34.0187 86.5156 34.9036C94.321 39.2744 117.735 52.3192 125.54 56.6901C126.171 57.045 126.652 57.4723 127.081 58.035L40.2645 107.555Z" fill="#659AD2"/>
<path fill-rule="evenodd" clip-rule="evenodd" d="M83.9165 50.5742C101.958 50.5742 116.604 65.2208 116.604 83.2622C116.604 101.304 101.958 115.95 83.9165 115.95C65.875 115.95 51.2285 101.304 51.2285 83.2622C51.2285 65.2208 65.875 50.5742 83.9165 50.5742ZM83.9165 66.9182C92.936 66.9182 100.26 74.2403 100.26 83.2622C100.26 92.2841 92.936 99.6062 83.9165 99.6062C74.8969 99.6062 67.5725 92.2817 67.5725 83.2622C67.5725 74.2426 74.8946 66.9182 83.9165 66.9182Z" fill="white"/>
<path fill-rule="evenodd" clip-rule="evenodd" d="M127.077 58.0586C128.282 59.1863 128.258 60.8861 128.258 62.224C128.258 71.0847 128.184 96.2872 128.279 105.148C128.289 106.073 127.983 107.046 127.525 107.779L82.9668 83.2633L127.077 58.0586Z" fill="#00599C"/>
<defs>
<linearGradient id="paint0_linear_1390_23236" x1="75.6599" y1="6.85062" x2="128.086" y2="165.536" gradientUnits="userSpaceOnUse">
<stop stop-color="white"/>
<stop offset="1" stop-color="#D7D7D7"/>
</linearGradient>
<linearGradient id="paint1_linear_1390_23236" x1="75.2828" y1="0.530193" x2="135.867" y2="170.053" gradientUnits="userSpaceOnUse">
<stop stop-color="#322D37"/>
<stop offset="1" stop-color="#18151B"/>
</linearGradient>
</defs>
</svg>
