<svg width="167" height="167" viewBox="0 0 167 167" fill="none" xmlns="http://www.w3.org/2000/svg">
<path d="M0.302734 43.9144C0.302734 28.6249 0.302734 20.9802 3.27826 15.1404C5.8956 10.0036 10.072 5.82724 15.2088 3.2099C21.0486 0.234375 28.6933 0.234375 43.9827 0.234375L123.153 0.234375C138.442 0.234375 146.087 0.234375 151.927 3.2099C157.063 5.82724 161.24 10.0036 163.857 15.1404C166.833 20.9802 166.833 28.6249 166.833 43.9144L166.833 123.084C166.833 138.374 166.833 146.019 163.857 151.858C161.24 156.995 157.063 161.172 151.927 163.789C146.087 166.764 138.442 166.764 123.153 166.764L43.9827 166.764C28.6933 166.764 21.0486 166.764 15.2088 163.789C10.072 161.172 5.8956 156.995 3.27826 151.858C0.302734 146.019 0.302734 138.374 0.302734 123.084L0.302734 43.9144Z" fill="url(#paint0_linear_1390_23348)"/>
<path d="M0.302734 43.9144C0.302734 28.6249 0.302734 20.9802 3.27826 15.1404C5.8956 10.0036 10.072 5.82724 15.2088 3.2099C21.0486 0.234375 28.6933 0.234375 43.9827 0.234375L123.153 0.234375C138.442 0.234375 146.087 0.234375 151.927 3.2099C157.063 5.82724 161.24 10.0036 163.857 15.1404C166.833 20.9802 166.833 28.6249 166.833 43.9144L166.833 123.084C166.833 138.374 166.833 146.019 163.857 151.858C161.24 156.995 157.063 161.172 151.927 163.789C146.087 166.764 138.442 166.764 123.153 166.764L43.9827 166.764C28.6933 166.764 21.0486 166.764 15.2088 163.789C10.072 161.172 5.8956 156.995 3.27826 151.858C0.302734 146.019 0.302734 138.374 0.302734 123.084L0.302734 43.9144Z" fill="url(#paint1_linear_1390_23348)"/>
<path d="M164.103 43.9144L164.103 123.084C164.103 130.774 164.1 136.377 163.74 140.793C163.382 145.176 162.684 148.148 161.425 150.619C159.069 155.242 155.31 159.001 150.687 161.356C148.216 162.615 145.244 163.313 140.861 163.672C136.445 164.032 130.842 164.034 123.153 164.034L43.9827 164.034C36.293 164.034 30.6898 164.032 26.2744 163.672C21.8909 163.313 18.9191 162.615 16.4482 161.356C11.825 159.001 8.06631 155.242 5.7107 150.619C4.45172 148.148 3.75375 145.176 3.39561 140.793C3.03486 136.377 3.03273 130.774 3.03273 123.084L3.03273 43.9144C3.03273 36.2246 3.03486 30.6215 3.39561 26.2061C3.75375 21.8226 4.45172 18.8507 5.7107 16.3798C8.06631 11.7567 11.825 7.99795 16.4482 5.64234C18.9191 4.38336 21.8909 3.68539 26.2744 3.32725C30.6898 2.9665 36.293 2.96437 43.9827 2.96437L123.153 2.96437C130.842 2.96437 136.445 2.9665 140.861 3.32725C145.244 3.68539 148.216 4.38336 150.687 5.64234C155.31 7.99795 159.069 11.7567 161.425 16.3798C162.684 18.8507 163.382 21.8226 163.74 26.2061C164.1 30.6215 164.103 36.2246 164.103 43.9144Z" stroke="#2CB7F6" stroke-opacity="0.5" stroke-width="5.46"/>
<path d="M58.1246 109.021L43.4033 94.3001C41.658 92.5042 40.5703 89.9748 40.5703 87.5022C40.5703 86.3577 41.2153 84.5681 41.7022 83.5373L55.2917 55.2266L58.1246 109.021Z" fill="#01579B"/>
<path d="M108.523 58.0582L93.8013 43.3369C92.5176 42.0469 89.8364 40.5039 87.5725 40.5039C85.6249 40.5039 83.7151 40.896 82.4757 41.6358L55.2969 55.2253L108.523 58.0582Z" fill="#40C4FF"/>
<path d="M75.6787 126.572H111.356L111.356 111.282L84.7404 102.789L60.3945 111.282L75.6787 126.572Z" fill="#40C4FF"/>
<path d="M55.2969 101.096C55.2969 105.636 55.866 106.755 58.1298 109.025L60.3937 111.289H111.356L86.4406 82.9784L55.2969 55.2305L55.2969 101.096Z" fill="#29B6F6"/>
<path d="M100.595 55.2266L55.293 55.2266L111.352 111.285L126.642 111.285L126.642 76.1767L108.525 58.0595C105.983 55.5048 103.719 55.2266 100.595 55.2266Z" fill="#01579B"/>
<path opacity="0.2" d="M58.6951 109.591C56.4312 107.314 55.8621 105.076 55.8621 101.098L55.8621 55.7957L55.293 55.2266L55.293 101.092C55.293 105.076 55.293 106.176 58.6951 109.591Z" fill="white"/>
<path opacity="0.2" d="M126.078 75.6133L126.078 110.722H110.787L111.356 111.285H126.647L126.647 76.1824L126.078 75.6133Z" fill="#263238"/>
<path opacity="0.2" d="M108.523 58.0595C105.715 55.2519 103.413 55.2266 100.03 55.2266L55.2969 55.2266L55.866 55.7957L100.036 55.7957C101.718 55.7957 105.987 55.5111 108.523 58.0595Z" fill="white"/>
<path opacity="0.2" d="M126.076 75.6126L108.521 58.0582L93.7999 43.3369C92.5163 42.0469 89.835 40.5039 87.5712 40.5039C85.6235 40.5039 83.7138 40.896 82.4744 41.6358L55.2956 55.2253L41.7061 83.536C41.2192 84.5668 40.5742 86.3564 40.5742 87.5009C40.5742 89.9735 41.6619 92.5029 43.4072 94.2988L56.9776 107.768C57.3001 108.166 57.6796 108.571 58.1349 109.02L58.704 109.589L60.405 111.29L75.1264 126.012L75.6955 126.581L111.373 126.581L111.373 111.29H126.664L126.664 76.1817L126.076 75.6126Z" fill="url(#paint2_radial_1390_23348)"/>
<defs>
<linearGradient id="paint0_linear_1390_23348" x1="75.3103" y1="7.08499" x2="127.736" y2="165.77" gradientUnits="userSpaceOnUse">
<stop stop-color="white"/>
<stop offset="1" stop-color="#D7D7D7"/>
</linearGradient>
<linearGradient id="paint1_linear_1390_23348" x1="74.9332" y1="0.764568" x2="135.517" y2="170.288" gradientUnits="userSpaceOnUse">
<stop stop-color="#322D37"/>
<stop offset="1" stop-color="#18151B"/>
</linearGradient>
<radialGradient id="paint2_radial_1390_23348" cx="0" cy="0" r="1" gradientUnits="userSpaceOnUse" gradientTransform="translate(83.6189 83.5424) scale(43.0384 43.0384)">
<stop stop-color="white" stop-opacity="0.1"/>
<stop offset="1" stop-color="white" stop-opacity="0"/>
</radialGradient>
</defs>
</svg>
