<svg width="168" height="167" viewBox="0 0 168 167" fill="none" xmlns="http://www.w3.org/2000/svg">
<path d="M0.652344 43.9144C0.652344 28.6249 0.652344 20.9802 3.62786 15.1404C6.24521 10.0036 10.4216 5.82724 15.5584 3.2099C21.3982 0.234375 29.0429 0.234375 44.3323 0.234375L123.502 0.234375C138.792 0.234375 146.436 0.234375 152.276 3.2099C157.413 5.82724 161.589 10.0036 164.207 15.1404C167.182 20.9802 167.182 28.6249 167.182 43.9144L167.182 123.084C167.182 138.374 167.182 146.019 164.207 151.858C161.589 156.995 157.413 161.172 152.276 163.789C146.436 166.764 138.792 166.764 123.502 166.764L44.3323 166.764C29.0429 166.764 21.3982 166.764 15.5584 163.789C10.4216 161.172 6.24521 156.995 3.62786 151.858C0.652344 146.019 0.652344 138.374 0.652344 123.084L0.652344 43.9144Z" fill="url(#paint0_linear_1390_23332)"/>
<path d="M0.652344 43.9144C0.652344 28.6249 0.652344 20.9802 3.62786 15.1404C6.24521 10.0036 10.4216 5.82724 15.5584 3.2099C21.3982 0.234375 29.0429 0.234375 44.3323 0.234375L123.502 0.234375C138.792 0.234375 146.436 0.234375 152.276 3.2099C157.413 5.82724 161.589 10.0036 164.207 15.1404C167.182 20.9802 167.182 28.6249 167.182 43.9144L167.182 123.084C167.182 138.374 167.182 146.019 164.207 151.858C161.589 156.995 157.413 161.172 152.276 163.789C146.436 166.764 138.792 166.764 123.502 166.764L44.3323 166.764C29.0429 166.764 21.3982 166.764 15.5584 163.789C10.4216 161.172 6.24521 156.995 3.62786 151.858C0.652344 146.019 0.652344 138.374 0.652344 123.084L0.652344 43.9144Z" fill="url(#paint1_linear_1390_23332)"/>
<path d="M164.452 43.9144L164.452 123.084C164.452 130.774 164.45 136.377 164.089 140.793C163.731 145.176 163.033 148.148 161.774 150.619C159.419 155.242 155.66 159.001 151.037 161.356C148.566 162.615 145.594 163.313 141.21 163.672C136.795 164.032 131.192 164.034 123.502 164.034L44.3323 164.034C36.6426 164.034 31.0394 164.032 26.6241 163.672C22.2406 163.313 19.2687 162.615 16.7978 161.356C12.1746 159.001 8.41592 155.242 6.06031 150.619C4.80133 148.148 4.10336 145.176 3.74522 140.793C3.38447 136.377 3.38234 130.774 3.38234 123.084L3.38234 43.9144C3.38234 36.2246 3.38447 30.6215 3.74522 26.2061C4.10336 21.8226 4.80133 18.8507 6.06031 16.3798C8.41592 11.7567 12.1746 7.99795 16.7978 5.64234C19.2687 4.38336 22.2406 3.68539 26.6241 3.32725C31.0394 2.9665 36.6426 2.96437 44.3323 2.96437L123.502 2.96437C131.192 2.96437 136.795 2.9665 141.21 3.32725C145.594 3.68539 148.566 4.38336 151.037 5.64234C155.66 7.99795 159.419 11.7567 161.774 16.3798C163.033 18.8507 163.731 21.8226 164.089 26.2061C164.45 30.6215 164.452 36.2246 164.452 43.9144Z" stroke="#535353" stroke-opacity="0.5" stroke-width="5.46"/>
<path d="M83.9174 40.5C107.663 40.5 126.915 59.7515 126.915 83.4975C126.915 107.244 107.663 126.495 83.9174 126.495C60.1714 126.495 40.9199 107.244 40.9199 83.4975C40.9199 59.7515 60.1714 40.5 83.9174 40.5Z" fill="white"/>
<path d="M82.2381 64.8359C69.7419 64.8359 60.0003 72.7132 60.0003 82.5052C60.0003 91.743 68.9525 97.6383 82.8259 97.3528L83.2458 97.336L84.7742 97.2856L84.3879 98.2934L84.4383 98.3941C84.5492 98.6528 84.65 98.9165 84.7407 99.1836L84.7742 99.2843L84.8246 99.4523L84.8918 99.6874L84.9422 99.8386L85.0094 100.007L85.0598 100.191L85.127 100.46L85.2109 100.746L85.2613 100.93L85.3453 101.233L85.4293 101.552L85.4965 101.871L85.5804 102.207L85.6476 102.442L85.7316 102.811L85.8156 103.181L85.9332 103.685L85.9835 103.954L86.0675 104.357L86.1515 104.777L86.2523 105.213L86.3699 105.835L86.4706 106.339L86.605 107.044L86.6722 107.397L86.7898 107.951L86.8905 108.522L87.0249 109.295L87.1761 110.101L87.3104 110.941L87.4616 111.797L87.6128 112.671L87.7639 113.578L87.9151 114.518L88.0326 115.24L88.2174 116.467L88.3014 116.97L88.5029 118.264L88.6541 119.322L88.7885 120.128L88.9396 121.237L89.0236 121.791C98.2445 120.565 106.441 116.097 112.42 109.563L112.605 109.362L111.748 106.171L109.481 97.6887L108.07 92.4148L106.827 87.7791L106.055 84.9574L105.568 83.1771L105.282 82.1021L105.013 81.1616L104.913 80.7585L104.845 80.5401L104.812 80.4225L104.778 80.3218C103.468 76.106 100.932 72.3773 97.4719 69.6732C93.4073 66.4987 88.251 64.8359 82.2381 64.8359ZM71.2536 109.664C70.1618 109.362 69.0197 110 68.7006 111.092L68.6838 111.142L66.8027 118.129C67.9784 118.712 69.1843 119.233 70.4138 119.691L70.6993 119.809L72.7316 112.234L72.7484 112.184C73.0171 111.075 72.3621 109.95 71.2536 109.664ZM82.9603 104.541C81.8518 104.239 80.7096 104.877 80.3905 105.969L80.3737 106.019L77.5184 116.601L77.5184 116.651C77.2799 117.787 78.0055 118.9 79.1392 119.139C80.1856 119.359 81.2303 118.757 81.5662 117.743L81.583 117.693L84.4383 107.111L84.4383 107.061L84.4887 106.826L84.5055 106.742L84.4383 106.389L84.3376 105.902L84.2704 105.6C84 105.079 83.5263 104.696 82.9603 104.541ZM63.0572 93.6409L62.9228 93.96L62.906 94.0272L60.0507 104.609L60.0339 104.659C59.7635 105.786 60.4572 106.92 61.5859 107.19C62.6625 107.449 63.7559 106.826 64.0817 105.768L64.0985 105.717L66.6851 96.1099C65.3414 95.4045 64.1153 94.5647 63.0572 93.6409ZM56.2548 81.4639C55.1463 81.1783 54.0042 81.8166 53.6851 82.8915L53.6683 82.9419L50.813 93.5233L50.813 93.5737C50.5426 94.7007 51.2362 95.8345 52.3649 96.1049C53.4415 96.3635 54.5349 95.7404 54.8608 94.6823L54.8776 94.6319L57.7329 84.0504L57.7329 84.0001C58.0016 82.8915 57.3466 81.7662 56.2548 81.4639ZM120.264 79.0621C119.172 78.7765 118.03 79.4148 117.711 80.4897L117.694 80.5401L114.839 91.1215L114.822 91.1719C114.516 92.2939 115.178 93.4528 116.3 93.7585C117.422 94.0642 118.581 93.4024 118.887 92.2804V92.23L121.759 81.6486L121.759 81.5815C122.028 80.4897 121.372 79.3644 120.264 79.0621ZM50.0236 64.9367C47.6318 69.2936 46.1084 74.0737 45.5391 79.0117C45.8145 79.3241 46.1773 79.5458 46.5804 79.6499C47.6721 79.9355 48.8143 79.2972 49.1334 78.2223L49.1502 78.1719L52.0055 67.5905L52.0223 67.5401C52.291 66.4315 51.636 65.3062 50.5274 65.0039C50.3628 64.9619 50.1932 64.9384 50.0236 64.9367ZM113.042 65.0039C111.933 64.7184 110.808 65.3566 110.472 66.4315V66.4819L107.617 77.0634L107.6 77.1137C107.329 78.2407 108.023 79.3745 109.152 79.6449C110.228 79.9035 111.322 79.2804 111.648 78.2223L111.664 78.1719L114.52 67.5905L114.537 67.5401C114.805 66.4315 114.133 65.3062 113.042 65.0039Z" fill="#242424"/>
<path d="M84.9256 71.9062C86.4104 71.9062 87.613 73.1088 87.613 74.5936C87.613 76.0784 86.4104 77.2809 84.9256 77.2809C83.4409 77.2809 82.2383 76.0784 82.2383 74.5936C82.2383 73.1088 83.4409 71.9062 84.9256 71.9062Z" fill="white"/>
<path d="M62.4515 54.942C61.3597 54.6565 60.2176 55.2947 59.8985 56.3697L59.8817 56.42L57.0264 67.0015L57.0096 67.0518C56.7392 68.1788 57.4329 69.3126 58.5615 69.583C59.6382 69.8416 60.7316 69.2185 61.0574 68.1604L61.0742 68.11L63.9295 57.5286L63.9463 57.4614C64.215 56.3697 63.56 55.2443 62.4515 54.942ZM99.1505 56.9407C98.042 56.6552 96.8998 57.2934 96.5807 58.3684L96.5639 58.4188L94.6492 65.5402C95.8921 66.1516 97.0779 66.8704 98.1931 67.6901L98.3779 67.8413L100.629 59.5273V59.4769C100.897 58.3684 100.242 57.243 99.1505 56.9407ZM80.4735 45.0156C79.1315 45.1366 77.7979 45.3263 76.476 45.5867L76.1905 45.6371L73.5368 55.4963L73.52 55.5467C73.2815 56.6821 74.007 57.7956 75.1408 58.0341C76.1871 58.2542 77.2319 57.6529 77.5678 56.6384L77.5846 56.588L80.4399 46.0066L80.4567 45.9562C80.5339 45.6488 80.539 45.3263 80.4735 45.0156ZM106.742 52.3218L106.188 54.4045L106.171 54.4549C105.933 55.5903 106.658 56.7039 107.792 56.9424C108.838 57.1624 109.883 56.5611 110.219 55.5467L110.236 55.4963L110.303 55.2779C109.252 54.2937 108.148 53.3682 106.994 52.5066L106.742 52.3218ZM90.1311 45.3683L89.1233 49.1138L89.1065 49.1642C88.868 50.2996 89.5936 51.4132 90.7273 51.6517C91.7737 51.8717 92.8184 51.2704 93.1543 50.2559L93.1711 50.2056L94.2293 46.2585C92.9797 45.9142 91.7116 45.6337 90.4334 45.4187L90.1311 45.3683Z" fill="#242424"/>
<defs>
<linearGradient id="paint0_linear_1390_23332" x1="75.6599" y1="7.08499" x2="128.086" y2="165.77" gradientUnits="userSpaceOnUse">
<stop stop-color="white"/>
<stop offset="1" stop-color="#D7D7D7"/>
</linearGradient>
<linearGradient id="paint1_linear_1390_23332" x1="75.2828" y1="0.764568" x2="135.867" y2="170.288" gradientUnits="userSpaceOnUse">
<stop stop-color="#322D37"/>
<stop offset="1" stop-color="#18151B"/>
</linearGradient>
</defs>
</svg>
