<svg width="167" height="167" viewBox="0 0 167 167" fill="none" xmlns="http://www.w3.org/2000/svg">
<path d="M0.0107422 43.68C0.0107422 28.3906 0.0107422 20.7458 2.98626 14.9061C5.6036 9.76923 9.77997 5.59286 14.9168 2.97552C20.7566 0 28.4013 0 43.6907 0L122.861 0C138.15 0 145.795 0 151.635 2.97552C156.771 5.59286 160.948 9.76923 163.565 14.9061C166.541 20.7458 166.541 28.3906 166.541 43.68L166.541 122.85C166.541 138.139 166.541 145.784 163.565 151.624C160.948 156.761 156.771 160.937 151.635 163.554C145.795 166.53 138.15 166.53 122.861 166.53L43.6907 166.53C28.4013 166.53 20.7566 166.53 14.9168 163.554C9.77997 160.937 5.6036 156.761 2.98626 151.624C0.0107422 145.784 0.0107422 138.139 0.0107422 122.85L0.0107422 43.68Z" fill="url(#paint0_linear_1390_23461)"/>
<path d="M0.0107422 43.68C0.0107422 28.3906 0.0107422 20.7458 2.98626 14.9061C5.6036 9.76923 9.77997 5.59286 14.9168 2.97552C20.7566 0 28.4013 0 43.6907 0L122.861 0C138.15 0 145.795 0 151.635 2.97552C156.771 5.59286 160.948 9.76923 163.565 14.9061C166.541 20.7458 166.541 28.3906 166.541 43.68L166.541 122.85C166.541 138.139 166.541 145.784 163.565 151.624C160.948 156.761 156.771 160.937 151.635 163.554C145.795 166.53 138.15 166.53 122.861 166.53L43.6907 166.53C28.4013 166.53 20.7566 166.53 14.9168 163.554C9.77997 160.937 5.6036 156.761 2.98626 151.624C0.0107422 145.784 0.0107422 138.139 0.0107422 122.85L0.0107422 43.68Z" fill="url(#paint1_linear_1390_23461)"/>
<path d="M163.811 43.68L163.811 122.85C163.811 130.54 163.808 136.143 163.448 140.558C163.09 144.942 162.392 147.914 161.133 150.385C158.777 155.008 155.018 158.766 150.395 161.122C147.924 162.381 144.952 163.079 140.569 163.437C136.153 163.798 130.55 163.8 122.861 163.8L43.6907 163.8C36.001 163.8 30.3978 163.798 25.9825 163.437C21.5989 163.079 18.6271 162.381 16.1562 161.122C11.533 158.766 7.77432 155.008 5.41871 150.385C4.15972 147.914 3.46176 144.942 3.10361 140.558C2.74286 136.143 2.74074 130.54 2.74074 122.85L2.74074 43.68C2.74074 35.9902 2.74286 30.3871 3.10361 25.9717C3.46176 21.5882 4.15973 18.6163 5.41871 16.1454C7.77432 11.5223 11.533 7.76358 16.1562 5.40797C18.6271 4.14898 21.5989 3.45102 25.9825 3.09287C30.3978 2.73212 36.001 2.73 43.6907 2.73L122.861 2.73C130.55 2.73 136.153 2.73212 140.569 3.09287C144.952 3.45102 147.924 4.14898 150.395 5.40797C155.018 7.76358 158.777 11.5223 161.133 16.1454C162.392 18.6163 163.09 21.5882 163.448 25.9717C163.808 30.3871 163.811 35.9902 163.811 43.68Z" stroke="#0080FF" stroke-opacity="0.5" stroke-width="5.46"/>
<path d="M83.0422 125.998L83.0422 109.301C100.814 109.301 114.525 91.8422 107.674 73.3728C105.139 66.5398 99.8033 60.9742 92.6947 58.4485C74.4183 51.8727 56.8949 65.5295 56.8949 82.9886L40.1338 82.9886C40.1338 55.1514 67.3005 33.1369 97.0113 42.2476C109.961 46.2979 120.119 56.4188 124.178 69.3226C133.316 98.9231 111.228 125.998 83.0422 125.998Z" fill="#0080FF"/>
<path d="M83.301 109.293L66.5399 109.293L66.5399 92.8437L83.301 92.8437L83.301 109.293ZM66.5399 122.196L53.8474 122.196L53.8474 109.293L66.5399 109.293L66.5399 122.196ZM53.8474 109.293H43.1846L43.1846 98.6665L53.8474 98.6665L53.8474 109.293Z" fill="#0080FF"/>
<defs>
<linearGradient id="paint0_linear_1390_23461" x1="75.0183" y1="6.85062" x2="127.444" y2="165.536" gradientUnits="userSpaceOnUse">
<stop stop-color="white"/>
<stop offset="1" stop-color="#D7D7D7"/>
</linearGradient>
<linearGradient id="paint1_linear_1390_23461" x1="74.6412" y1="0.530193" x2="135.225" y2="170.053" gradientUnits="userSpaceOnUse">
<stop stop-color="#322D37"/>
<stop offset="1" stop-color="#18151B"/>
</linearGradient>
</defs>
</svg>
