<svg width="167" height="167" viewBox="0 0 167 167" fill="none" xmlns="http://www.w3.org/2000/svg">
<path d="M0.0703125 43.9144C0.0703125 28.6249 0.0703125 20.9802 3.04583 15.1404C5.66318 10.0036 9.83954 5.82724 14.9764 3.2099C20.8162 0.234375 28.4609 0.234375 43.7503 0.234375L122.92 0.234375C138.21 0.234375 145.854 0.234375 151.694 3.2099C156.831 5.82724 161.007 10.0036 163.625 15.1404C166.6 20.9802 166.6 28.6249 166.6 43.9144L166.6 123.084C166.6 138.374 166.6 146.019 163.625 151.858C161.007 156.995 156.831 161.172 151.694 163.789C145.854 166.764 138.21 166.764 122.92 166.764L43.7503 166.764C28.4609 166.764 20.8162 166.764 14.9764 163.789C9.83954 161.172 5.66318 156.995 3.04583 151.858C0.0703125 146.019 0.0703125 138.374 0.0703125 123.084L0.0703125 43.9144Z" fill="url(#paint0_linear_1390_23395)"/>
<path d="M0.0703125 43.9144C0.0703125 28.6249 0.0703125 20.9802 3.04583 15.1404C5.66318 10.0036 9.83954 5.82724 14.9764 3.2099C20.8162 0.234375 28.4609 0.234375 43.7503 0.234375L122.92 0.234375C138.21 0.234375 145.854 0.234375 151.694 3.2099C156.831 5.82724 161.007 10.0036 163.625 15.1404C166.6 20.9802 166.6 28.6249 166.6 43.9144L166.6 123.084C166.6 138.374 166.6 146.019 163.625 151.858C161.007 156.995 156.831 161.172 151.694 163.789C145.854 166.764 138.21 166.764 122.92 166.764L43.7503 166.764C28.4609 166.764 20.8162 166.764 14.9764 163.789C9.83954 161.172 5.66318 156.995 3.04583 151.858C0.0703125 146.019 0.0703125 138.374 0.0703125 123.084L0.0703125 43.9144Z" fill="url(#paint1_linear_1390_23395)"/>
<path d="M163.87 43.9144L163.87 123.084C163.87 130.774 163.868 136.377 163.507 140.793C163.149 145.176 162.451 148.148 161.192 150.619C158.837 155.242 155.078 159.001 150.455 161.356C147.984 162.615 145.012 163.313 140.628 163.672C136.213 164.032 130.61 164.034 122.92 164.034L43.7503 164.034C36.0605 164.034 30.4574 164.032 26.042 163.672C21.6585 163.313 18.6867 162.615 16.2158 161.356C11.5926 159.001 7.83389 155.242 5.47828 150.619C4.2193 148.148 3.52133 145.176 3.16318 140.793C2.80243 136.377 2.80031 130.774 2.80031 123.084L2.80031 43.9144C2.80031 36.2246 2.80243 30.6215 3.16318 26.2061C3.52133 21.8226 4.2193 18.8507 5.47828 16.3798C7.83389 11.7567 11.5926 7.99795 16.2158 5.64234C18.6867 4.38336 21.6585 3.68539 26.042 3.32725C30.4574 2.9665 36.0605 2.96437 43.7503 2.96437L122.92 2.96437C130.61 2.96437 136.213 2.9665 140.628 3.32725C145.012 3.68539 147.984 4.38336 150.455 5.64234C155.078 7.99795 158.837 11.7567 161.192 16.3798C162.451 18.8507 163.149 21.8226 163.507 26.2061C163.868 30.6215 163.87 36.2246 163.87 43.9144Z" stroke="#44D1FD" stroke-opacity="0.5" stroke-width="5.46"/>
<path fill-rule="evenodd" clip-rule="evenodd" d="M92.0178 71.5164H102.11L102.11 81.7869L107.2 81.7869C109.522 81.7869 111.934 81.3404 114.166 80.6259C115.238 80.2687 116.488 79.7328 117.56 79.1076C116.131 77.2321 115.417 74.9101 115.238 72.5881C114.97 69.4623 115.595 65.3541 117.739 62.9427L118.81 61.6924L120.061 62.6748C123.276 65.2648 125.866 68.7478 126.402 72.856C130.242 71.695 134.707 71.9629 138.101 73.9277L139.441 74.7315L138.726 76.1604C135.868 81.6976 129.885 83.4838 124.08 83.1265C115.327 104.829 96.3939 115.099 73.3523 115.099C61.4742 115.099 50.5785 110.634 44.3269 100.095L44.2376 99.9166L43.3445 98.0411C41.2011 93.3971 40.5759 88.3065 41.0225 83.2158L41.2011 81.6976H49.7747L49.7747 71.5164L59.8666 71.5164L59.8666 61.5138L79.9611 61.5138L79.9611 51.4219L92.0178 51.4219L92.0178 71.5164Z" fill="#3A4D54"/>
<path d="M124.703 75.3579C125.418 70.0886 121.488 65.9804 118.987 64.0156C116.219 67.2307 115.772 75.8044 120.148 79.3768C117.648 81.5202 112.557 83.5743 107.199 83.5743L42.7176 83.5743C42.1817 89.1114 43.1641 94.202 45.3968 98.5782L46.1113 99.9178C46.5578 100.722 47.0937 101.436 47.6296 102.24C50.3088 102.418 52.7202 102.508 54.9529 102.418C59.329 102.329 62.9014 101.793 65.6699 100.9C66.1165 100.722 66.4737 100.99 66.6523 101.347C66.831 101.793 66.563 102.151 66.2058 102.329C65.8486 102.418 65.4913 102.597 65.0448 102.686C62.9014 103.312 60.5793 103.669 57.6321 103.847H57.0963C55.9353 103.937 54.685 103.937 53.3453 103.937C51.9164 103.937 50.5767 103.937 48.9692 103.847C54.3277 109.92 62.7227 113.493 73.2612 113.493C95.5884 113.493 114.522 103.579 122.828 81.4309C128.811 82.056 134.527 80.5378 137.117 75.4472C133.098 73.0358 127.74 73.8396 124.703 75.3579Z" fill="#00AADA"/>
<path d="M124.704 75.3579C125.418 70.0886 121.488 65.9804 118.988 64.0156C116.219 67.2307 115.773 75.8044 120.149 79.3768C117.648 81.5202 112.558 83.5743 107.199 83.5743L46.469 83.5743C46.2011 92.0586 49.3269 98.4889 54.9534 102.329C59.3295 102.24 62.9019 101.704 65.6704 100.811C66.117 100.632 66.4742 100.9 66.6528 101.257C66.8315 101.704 66.5635 102.061 66.2063 102.24C65.8491 102.329 65.4918 102.508 65.0453 102.597C62.9019 103.222 60.4012 103.669 57.454 103.847L57.3647 103.758C64.956 107.688 75.941 107.598 88.6228 102.776C102.734 97.3278 115.951 86.968 125.15 75.1792C124.972 75.2685 124.793 75.2685 124.704 75.3579Z" fill="#28B8EB"/>
<path d="M42.8105 90.2734C43.1678 93.2206 44.0609 95.9892 45.4005 98.5792L46.115 99.9188C46.5615 100.723 47.0974 101.437 47.6332 102.241C50.3125 102.419 52.7238 102.509 54.9565 102.419C59.3327 102.33 62.905 101.794 65.6736 100.901C66.1201 100.723 66.4774 100.991 66.656 101.348C66.8346 101.794 66.5667 102.152 66.2095 102.33C65.8522 102.419 65.495 102.598 65.0484 102.687C62.905 103.313 60.4044 103.759 57.4572 103.938H57.1C55.9389 104.027 54.6886 104.027 53.4383 104.027C52.0094 104.027 50.5804 104.027 49.0622 103.938C54.4207 110.011 62.905 113.583 73.4435 113.583C92.5556 113.583 109.167 106.349 118.812 90.3627L42.8105 90.3627L42.8105 90.2734Z" fill="#028BB8"/>
<path d="M47.0957 90.2734C48.2567 95.4534 50.936 99.5616 54.9549 102.33C59.331 102.241 62.9034 101.705 65.6719 100.812C66.1185 100.633 66.4757 100.901 66.6543 101.258C66.833 101.705 66.565 102.062 66.2078 102.241C65.8506 102.33 65.4933 102.509 65.0468 102.598C62.9034 103.223 60.4027 103.67 57.3662 103.848C64.9575 107.778 75.9425 107.689 88.535 102.866C96.1262 99.9188 103.539 95.5427 110.148 90.2734L47.0957 90.2734Z" fill="#019BC6"/>
<path fill-rule="evenodd" clip-rule="evenodd" d="M51.4707 73.2135H60.223L60.223 81.9658H51.4707L51.4707 73.2135ZM52.1852 73.928H52.8996L52.8996 81.162H52.1852L52.1852 73.928ZM53.4355 73.928H54.15L54.15 81.162H53.4355L53.4355 73.928ZM54.7751 73.928H55.4896L55.4896 81.162H54.7751L54.7751 73.928ZM56.1148 73.928H56.8292L56.8292 81.162H56.1148L56.1148 73.928ZM57.4544 73.928H58.1689L58.1689 81.162H57.4544L57.4544 73.928ZM58.794 73.928H59.5085L59.5085 81.162H58.794L58.794 73.928ZM61.4733 63.2109L70.2256 63.2109L70.2256 71.9632L61.4733 71.9632L61.4733 63.2109ZM62.2771 63.9254H62.9915L62.9915 71.1594H62.2771L62.2771 63.9254ZM63.5274 63.9254H64.2419L64.2419 71.1594H63.5274L63.5274 63.9254ZM64.867 63.9254L65.5815 63.9254L65.5815 71.1594H64.867L64.867 63.9254ZM66.2067 63.9254H66.9211L66.9211 71.1594H66.2067L66.2067 63.9254ZM67.457 63.9254H68.1715L68.1715 71.1594H67.457L67.457 63.9254ZM68.7966 63.9254H69.5111L69.5111 71.1594H68.7966L68.7966 63.9254Z" fill="#00ACD3"/>
<path fill-rule="evenodd" clip-rule="evenodd" d="M61.4746 73.2148H70.2269L70.2269 81.9671H61.4746L61.4746 73.2148ZM62.2784 73.9293H62.9929L62.9929 81.1633H62.2784L62.2784 73.9293ZM63.5287 73.9293H64.2432L64.2432 81.1633H63.5287L63.5287 73.9293ZM64.8683 73.9293H65.5828L65.5828 81.1633H64.8683L64.8683 73.9293ZM66.208 73.9293H66.9224L66.9224 81.1633H66.208L66.208 73.9293ZM67.4583 73.9293H68.1728L68.1728 81.1633H67.4583L67.4583 73.9293ZM68.7979 73.9293H69.5124L69.5124 81.1633H68.7979L68.7979 73.9293Z" fill="#23C2EE"/>
<path fill-rule="evenodd" clip-rule="evenodd" d="M71.5645 73.2148H80.3167L80.3167 81.9671H71.5645L71.5645 73.2148ZM72.2789 73.9293H72.9934L72.9934 81.1633H72.2789L72.2789 73.9293ZM73.6186 73.9293H74.333L74.333 81.1633H73.6186L73.6186 73.9293ZM74.9582 73.9293H75.6727L75.6727 81.1633H74.9582L74.9582 73.9293ZM76.2085 73.9293H76.923L76.923 81.1633H76.2085L76.2085 73.9293ZM77.5481 73.9293H78.2626L78.2626 81.1633H77.5481L77.5481 73.9293ZM78.8878 73.9293H79.6022L79.6022 81.1633H78.8878L78.8878 73.9293Z" fill="#00ACD3"/>
<path fill-rule="evenodd" clip-rule="evenodd" d="M71.5645 63.2109L80.3167 63.2109L80.3167 71.9632H71.5645L71.5645 63.2109ZM72.2789 63.9254H72.9934L72.9934 71.1594H72.2789L72.2789 63.9254ZM73.6186 63.9254H74.333L74.333 71.1594H73.6186L73.6186 63.9254ZM74.9582 63.9254H75.6727L75.6727 71.1594H74.9582L74.9582 63.9254ZM76.2085 63.9254H76.923L76.923 71.1594H76.2085L76.2085 63.9254ZM77.5481 63.9254H78.2626L78.2626 71.1594H77.5481L77.5481 63.9254ZM78.8878 63.9254H79.6022L79.6022 71.1594H78.8878L78.8878 63.9254ZM81.6563 73.2135L90.4086 73.2135L90.4086 81.9658L81.6563 81.9658L81.6563 73.2135ZM82.3708 73.928H83.0853L83.0853 81.162L82.3708 81.162L82.3708 73.928ZM83.7105 73.928H84.4249L84.4249 81.162H83.7105L83.7105 73.928ZM84.9608 73.928H85.6752L85.6752 81.162H84.9608L84.9608 73.928ZM86.3004 73.928H87.0149L87.0149 81.162H86.3004L86.3004 73.928ZM87.64 73.928H88.3545L88.3545 81.162H87.64L87.64 73.928ZM88.9797 73.928H89.6941L89.6941 81.162H88.9797L88.9797 73.928Z" fill="#23C2EE"/>
<path fill-rule="evenodd" clip-rule="evenodd" d="M81.6602 63.2109L90.4124 63.2109L90.4124 71.9632H81.6602L81.6602 63.2109ZM82.3746 63.9254H83.0891L83.0891 71.1594H82.3746L82.3746 63.9254ZM83.7143 63.9254H84.4287L84.4287 71.1594H83.7143L83.7143 63.9254ZM84.9646 63.9254H85.6791L85.6791 71.1594H84.9646L84.9646 63.9254ZM86.3042 63.9254H87.0187L87.0187 71.1594H86.3042L86.3042 63.9254ZM87.6439 63.9254H88.3583L88.3583 71.1594H87.6439L87.6439 63.9254ZM88.9835 63.9254H89.698L89.698 71.1594H88.9835L88.9835 63.9254Z" fill="#00ACD3"/>
<path fill-rule="evenodd" clip-rule="evenodd" d="M81.6602 53.1172L90.4124 53.1172L90.4124 61.8695L81.6602 61.8695L81.6602 53.1172ZM82.3746 53.8317H83.0891L83.0891 61.0657H82.3746L82.3746 53.8317ZM83.7143 53.8317H84.4287L84.4287 61.0657H83.7143L83.7143 53.8317ZM84.9646 53.8317H85.6791L85.6791 61.0657H84.9646L84.9646 53.8317ZM86.3042 53.8317H87.0187L87.0187 61.0657L86.3042 61.0657L86.3042 53.8317ZM87.6439 53.8317H88.3583L88.3583 61.0657H87.6439L87.6439 53.8317ZM88.9835 53.8317H89.698L89.698 61.0657H88.9835L88.9835 53.8317Z" fill="#23C2EE"/>
<path fill-rule="evenodd" clip-rule="evenodd" d="M91.75 73.2148H100.502L100.502 81.9671H91.75L91.75 73.2148ZM92.4645 73.9293H93.1789L93.1789 81.1633H92.4645L92.4645 73.9293ZM93.7148 73.9293H94.4293L94.4293 81.1633H93.7148L93.7148 73.9293ZM95.0544 73.9293H95.7689L95.7689 81.1633H95.0544L95.0544 73.9293ZM96.3941 73.9293H97.1085L97.1085 81.1633H96.3941L96.3941 73.9293ZM97.7337 73.9293H98.4482L98.4482 81.1633H97.7337L97.7337 73.9293ZM99.0733 73.9293H99.7878L99.7878 81.1633H99.0733L99.0733 73.9293Z" fill="#00ACD3"/>
<path fill-rule="evenodd" clip-rule="evenodd" d="M69.6926 96.0781C71.0322 96.0781 72.1039 97.1498 72.1039 98.4895C72.1039 99.8291 71.0322 100.901 69.6926 100.901C68.353 100.901 67.2812 99.8291 67.2812 98.4895C67.2812 97.1498 68.353 96.0781 69.6926 96.0781Z" fill="#D4EEF1"/>
<path fill-rule="evenodd" clip-rule="evenodd" d="M69.6921 96.794C69.8707 96.794 70.1387 96.794 70.3173 96.8833C70.1387 96.9726 69.96 97.2405 69.96 97.5084C69.96 97.8657 70.3173 98.2229 70.6745 98.2229C70.9424 98.2229 71.2104 98.0443 71.2997 97.8657C71.389 98.0443 71.389 98.3122 71.389 98.4908C71.389 99.4732 70.5852 100.188 69.6921 100.188C68.7097 100.188 67.9952 99.3839 67.9952 98.4908C67.9952 97.5977 68.7097 96.794 69.6921 96.794ZM27.0918 91.1675L139.085 91.1675C136.674 90.5423 131.405 89.7386 132.208 86.5234C127.743 91.614 117.115 90.0958 114.347 87.5951C111.31 91.9713 93.8055 90.2744 92.6445 86.8807C88.8935 91.3461 77.1941 91.3461 73.4431 86.8807C72.1928 90.2744 54.6882 91.9713 51.741 87.5951C49.0618 90.0958 38.3447 91.614 33.8793 86.5234C34.8617 89.6492 29.5031 90.5423 27.0918 91.1675Z" fill="#3A4D54"/>
<path d="M76.1195 113.489C70.1358 110.632 66.9207 106.791 65.0452 102.594C62.8125 103.219 60.1332 103.665 57.0967 103.844C55.9357 103.933 54.6854 103.933 53.4351 103.933C51.9168 103.933 50.3986 103.933 48.791 103.844C54.1495 109.203 60.937 113.4 73.3509 113.489L76.1195 113.489Z" fill="#BFDBE0"/>
<path d="M67.2828 106.434C66.479 105.273 65.6752 103.933 65.05 102.594C62.8173 103.219 60.1381 103.665 57.1016 103.844C59.1557 104.916 62.1922 105.987 67.2828 106.434Z" fill="#D4EEF1"/>
<defs>
<linearGradient id="paint0_linear_1390_23395" x1="75.0779" y1="7.08499" x2="127.504" y2="165.77" gradientUnits="userSpaceOnUse">
<stop stop-color="white"/>
<stop offset="1" stop-color="#D7D7D7"/>
</linearGradient>
<linearGradient id="paint1_linear_1390_23395" x1="74.7008" y1="0.764568" x2="135.285" y2="170.288" gradientUnits="userSpaceOnUse">
<stop stop-color="#322D37"/>
<stop offset="1" stop-color="#18151B"/>
</linearGradient>
</defs>
</svg>
