<svg width="168" height="167" viewBox="0 0 168 167" fill="none" xmlns="http://www.w3.org/2000/svg">
<path d="M0.773437 43.9144C0.773437 28.6249 0.773437 20.9802 3.74896 15.1404C6.3663 10.0036 10.5427 5.82724 15.6795 3.2099C21.5193 0.234375 29.164 0.234375 44.4534 0.234375L123.623 0.234375C138.913 0.234375 146.557 0.234375 152.397 3.2099C157.534 5.82724 161.71 10.0036 164.328 15.1404C167.303 20.9802 167.303 28.6249 167.303 43.9144L167.303 123.084C167.303 138.374 167.303 146.019 164.328 151.858C161.71 156.995 157.534 161.172 152.397 163.789C146.557 166.764 138.913 166.764 123.623 166.764L44.4534 166.764C29.164 166.764 21.5193 166.764 15.6795 163.789C10.5427 161.172 6.3663 156.995 3.74896 151.858C0.773437 146.019 0.773437 138.374 0.773437 123.084L0.773437 43.9144Z" fill="url(#paint0_linear_1390_23216)"/>
<path d="M0.773437 43.9144C0.773437 28.6249 0.773437 20.9802 3.74896 15.1404C6.3663 10.0036 10.5427 5.82724 15.6795 3.2099C21.5193 0.234375 29.164 0.234375 44.4534 0.234375L123.623 0.234375C138.913 0.234375 146.557 0.234375 152.397 3.2099C157.534 5.82724 161.71 10.0036 164.328 15.1404C167.303 20.9802 167.303 28.6249 167.303 43.9144L167.303 123.084C167.303 138.374 167.303 146.019 164.328 151.858C161.71 156.995 157.534 161.172 152.397 163.789C146.557 166.764 138.913 166.764 123.623 166.764L44.4534 166.764C29.164 166.764 21.5193 166.764 15.6795 163.789C10.5427 161.172 6.3663 156.995 3.74896 151.858C0.773437 146.019 0.773437 138.374 0.773437 123.084L0.773437 43.9144Z" fill="url(#paint1_linear_1390_23216)"/>
<path d="M164.573 43.9144L164.573 123.084C164.573 130.774 164.571 136.377 164.21 140.793C163.852 145.176 163.154 148.148 161.895 150.619C159.54 155.242 155.781 159.001 151.158 161.356C148.687 162.615 145.715 163.313 141.332 163.672C136.916 164.032 131.313 164.034 123.623 164.034L44.4534 164.034C36.7637 164.034 31.1605 164.032 26.7452 163.672C22.3616 163.313 19.3898 162.615 16.9189 161.356C12.2957 159.001 8.53701 155.242 6.18141 150.619C4.92242 148.148 4.22446 145.176 3.86631 140.793C3.50556 136.377 3.50344 130.774 3.50344 123.084L3.50344 43.9144C3.50344 36.2246 3.50556 30.6215 3.86631 26.2061C4.22446 21.8226 4.92242 18.8507 6.18141 16.3798C8.53701 11.7567 12.2957 7.99795 16.9189 5.64234C19.3898 4.38336 22.3616 3.68539 26.7451 3.32725C31.1605 2.9665 36.7637 2.96437 44.4534 2.96437L123.623 2.96437C131.313 2.96437 136.916 2.9665 141.332 3.32725C145.715 3.68539 148.687 4.38336 151.158 5.64234C155.781 7.99795 159.54 11.7567 161.895 16.3798C163.154 18.8507 163.852 21.8226 164.21 26.2061C164.571 30.6215 164.573 36.2246 164.573 43.9144Z" stroke="#512BD4" stroke-opacity="0.5" stroke-width="5.46"/>
<path d="M122.942 44.5977L45.1367 44.5977L45.1367 122.403L122.942 122.403L122.942 44.5977Z" fill="#512BD4"/>
<path d="M59.0024 94.3066C58.453 94.3066 57.9855 94.1241 57.5999 93.7572C57.2143 93.3819 57.0215 92.9348 57.0215 92.4178C57.0215 91.9008 57.2143 91.4401 57.5999 91.0648C57.9855 90.6894 58.453 90.5 59.0024 90.5C59.5518 90.5 60.0347 90.6877 60.4186 91.0648C60.8128 91.4401 61.0107 91.8923 61.0107 92.4178C61.0107 92.9434 60.8128 93.3819 60.4186 93.7572C60.033 94.1241 59.5621 94.3066 59.0024 94.3066Z" fill="white"/>
<path d="M80.9961 93.9976H77.4198L67.9996 79.1345C67.7608 78.7591 67.5645 78.3684 67.4076 77.964H67.3257C67.399 78.3957 67.4349 79.3222 67.4349 80.7418L67.4349 93.9976H64.2715L64.2715 73.7751H68.0815L77.1861 88.2851C77.5717 88.8874 77.8191 89.3003 77.9283 89.5255H77.9829C77.8908 88.9898 77.8447 88.082 77.8447 86.8041L77.8447 73.7734H80.9944L80.9944 93.9959L80.9961 93.9976Z" fill="white"/>
<path d="M96.4019 93.9959H85.3301L85.3301 73.7734L95.9617 73.7734L95.9617 76.6229L88.6044 76.6229L88.6044 82.3473H95.385L95.385 85.1814H88.6044L88.6044 91.1601H96.4019L96.4019 93.9942V93.9959Z" fill="white"/>
<path d="M112.135 76.6229L106.468 76.6229L106.468 93.9959H103.196L103.196 76.6229H97.543L97.543 73.7734L112.135 73.7734L112.135 76.6229Z" fill="white"/>
<defs>
<linearGradient id="paint0_linear_1390_23216" x1="75.781" y1="7.08499" x2="128.207" y2="165.77" gradientUnits="userSpaceOnUse">
<stop stop-color="white"/>
<stop offset="1" stop-color="#D7D7D7"/>
</linearGradient>
<linearGradient id="paint1_linear_1390_23216" x1="75.4039" y1="0.764568" x2="135.988" y2="170.288" gradientUnits="userSpaceOnUse">
<stop stop-color="#322D37"/>
<stop offset="1" stop-color="#18151B"/>
</linearGradient>
</defs>
</svg>
