<svg width="167" height="167" viewBox="0 0 167 167" fill="none" xmlns="http://www.w3.org/2000/svg">
<path d="M0.302734 43.68C0.302734 28.3906 0.302734 20.7458 3.27826 14.9061C5.8956 9.76923 10.072 5.59286 15.2088 2.97552C21.0486 0 28.6933 0 43.9827 0L123.153 0C138.442 0 146.087 0 151.927 2.97552C157.063 5.59286 161.24 9.76923 163.857 14.9061C166.833 20.7458 166.833 28.3906 166.833 43.68L166.833 122.85C166.833 138.139 166.833 145.784 163.857 151.624C161.24 156.761 157.063 160.937 151.927 163.554C146.087 166.53 138.442 166.53 123.153 166.53L43.9827 166.53C28.6933 166.53 21.0486 166.53 15.2088 163.554C10.072 160.937 5.8956 156.761 3.27826 151.624C0.302734 145.784 0.302734 138.139 0.302734 122.85L0.302734 43.68Z" fill="url(#paint0_linear_1390_23480)"/>
<path d="M0.302734 43.68C0.302734 28.3906 0.302734 20.7458 3.27826 14.9061C5.8956 9.76923 10.072 5.59286 15.2088 2.97552C21.0486 0 28.6933 0 43.9827 0L123.153 0C138.442 0 146.087 0 151.927 2.97552C157.063 5.59286 161.24 9.76923 163.857 14.9061C166.833 20.7458 166.833 28.3906 166.833 43.68L166.833 122.85C166.833 138.139 166.833 145.784 163.857 151.624C161.24 156.761 157.063 160.937 151.927 163.554C146.087 166.53 138.442 166.53 123.153 166.53L43.9827 166.53C28.6933 166.53 21.0486 166.53 15.2088 163.554C10.072 160.937 5.8956 156.761 3.27826 151.624C0.302734 145.784 0.302734 138.139 0.302734 122.85L0.302734 43.68Z" fill="url(#paint1_linear_1390_23480)"/>
<path d="M164.103 43.68L164.103 122.85C164.103 130.54 164.1 136.143 163.74 140.558C163.382 144.942 162.684 147.914 161.425 150.385C159.069 155.008 155.31 158.766 150.687 161.122C148.216 162.381 145.244 163.079 140.861 163.437C136.445 163.798 130.842 163.8 123.153 163.8L43.9827 163.8C36.293 163.8 30.6898 163.798 26.2744 163.437C21.8909 163.079 18.9191 162.381 16.4482 161.122C11.825 158.766 8.06631 155.008 5.7107 150.385C4.45172 147.914 3.75375 144.942 3.39561 140.558C3.03486 136.143 3.03273 130.54 3.03273 122.85L3.03273 43.68C3.03273 35.9902 3.03486 30.3871 3.39561 25.9717C3.75375 21.5882 4.45172 18.6163 5.7107 16.1454C8.06631 11.5223 11.825 7.76358 16.4482 5.40797C18.9191 4.14898 21.8909 3.45102 26.2744 3.09287C30.6898 2.73212 36.293 2.73 43.9827 2.73L123.153 2.73C130.842 2.73 136.445 2.73212 140.861 3.09287C145.244 3.45102 148.216 4.14898 150.687 5.40797C155.31 7.76358 159.069 11.5223 161.425 16.1454C162.684 18.6163 163.382 21.5882 163.74 25.9717C164.1 30.3871 164.103 35.9902 164.103 43.68Z" stroke="#E24B31" stroke-opacity="0.5" stroke-width="5.46"/>
<path d="M102.417 86.4674C102.417 86.4674 101.969 84.8591 103.66 81.825C105.352 78.7908 106.628 80.4157 106.628 80.4157C106.628 80.4157 108.071 81.9742 106.429 84.312C104.788 86.6332 102.417 86.4674 102.417 86.4674ZM89.5175 88.6726C87.5942 93.6964 82.9352 91.6404 82.9352 91.6404C82.9352 91.6404 82.4046 89.8166 83.9466 84.8094C85.4885 79.8022 89.0035 81.7587 89.0035 81.7587C89.0035 81.7587 91.4574 83.6488 89.5341 88.6726M86.0357 67.5826C86.0357 67.5826 88.9372 59.9889 89.6501 63.6863C90.3631 67.3837 83.5487 78.3597 83.5487 78.3597C83.6316 75.9059 86.0357 67.5992 86.0357 67.5992M44.4361 86.484C44.5522 81.626 47.7356 79.4872 48.863 80.5317C49.9905 81.5763 49.5926 83.9141 47.4537 85.3068C45.3978 86.7493 44.4361 86.4674 44.4361 86.4674M132.56 85.655C132.394 84.0136 130.918 84.6104 130.918 84.6104C130.918 84.6104 128.547 86.4674 126.441 86.2519C124.336 86.0363 125.032 81.3939 125.032 81.3939C125.032 81.3939 125.48 77.0996 124.269 76.7515C123.026 76.3867 121.534 77.8789 121.534 77.8789C121.534 77.8789 119.644 79.968 118.765 82.6208L118.533 82.7037C118.533 82.7037 118.815 78.0613 118.5 76.9504C118.267 76.4364 116.013 76.453 115.648 77.3981C115.283 78.3432 113.492 84.8757 113.36 87.6446C113.36 87.6446 109.828 90.6125 106.777 91.143C103.677 91.6404 102.964 89.7006 102.964 89.7006C102.964 89.7006 111.32 87.3627 111.039 80.6975C110.757 74.0323 104.29 76.4862 103.561 77.0333C102.831 77.5473 99.0842 79.8519 97.9734 86.1192C97.9402 86.3182 97.8573 87.2798 97.8573 87.2798C97.8573 87.2798 94.6076 89.4353 92.8335 90.0156C92.8335 90.0156 97.8573 81.5431 91.7061 77.6799C88.9372 75.9888 86.6823 79.5369 86.6823 79.5369C86.6823 79.5369 95.0055 70.3018 93.1485 62.4594C92.2698 58.7288 90.4128 58.3143 88.6719 58.9278C86.0688 59.9724 85.0906 61.4646 85.0906 61.4646C85.0906 61.4646 81.7083 66.3226 80.9456 73.6012C80.1829 80.8799 79.0223 89.5845 79.0223 89.5845C79.0223 89.5845 77.414 91.143 75.9715 91.2259C74.4793 91.3088 75.1591 86.8488 75.1591 86.8488C75.1591 86.8488 76.2866 80.0509 76.2037 78.8903C76.1208 77.7297 76.0379 77.1162 74.6783 76.7349C73.3519 76.337 71.8597 78.0613 71.8597 78.0613C71.8597 78.0613 67.9633 83.9638 67.6483 84.8591L67.4494 85.2239L67.2504 84.9918C67.2504 84.9918 69.9861 76.9504 67.3665 76.8344C64.7468 76.7183 63.0225 79.6861 63.0225 79.6861C63.0225 79.6861 60.0546 84.7099 59.922 85.2737L59.723 85.0415C59.723 85.0415 60.9665 79.2219 60.7344 77.7628C60.5023 76.3038 59.1261 76.6354 59.1261 76.6354C59.1261 76.6354 57.4018 76.4364 56.9707 77.5639C56.5396 78.6913 54.8816 86.0198 54.6827 88.341C54.6827 88.341 50.3884 91.4415 47.5532 91.4415C44.7346 91.4746 45.0165 89.6176 45.0165 89.6176C45.0165 89.6176 55.379 86.0861 52.577 79.0561C51.2837 77.2323 49.8413 76.6851 47.7522 76.7183C45.6631 76.7515 43.2092 78.0447 41.518 81.7752C40.7056 83.5991 40.3906 85.2737 40.3906 86.5503C40.3906 86.5503 38.4673 86.9151 37.4559 86.1027C36.4445 85.2902 35.8974 86.1027 35.8974 86.1027C35.8974 86.1027 34.1731 88.5565 35.8642 89.2031C37.5554 89.8498 40.1253 90.4964 40.1253 90.4964C40.374 91.5409 41.0538 93.315 43.0932 94.8404C46.1439 97.1782 52.0464 94.4756 52.0464 94.4756L54.4505 93.0332C54.4505 93.0332 54.5334 95.1886 56.2909 95.5202C58.0484 95.8518 58.778 95.487 61.8784 88.0425L63.8017 84.4281L64.0007 84.3949C64.0007 84.3949 62.5914 91.6736 63.1717 93.63C63.752 95.5865 66.0235 95.4041 66.0235 95.4041C66.0235 95.4041 67.3167 95.8518 68.3115 92.2207C69.3561 88.6063 71.2794 84.826 71.2794 84.826H71.5115C71.5115 84.826 70.6825 92.1047 71.9592 94.4756C73.2856 96.8466 76.6513 95.2052 76.6513 95.2052C76.6513 95.2052 79.0223 93.9616 79.387 93.5969C79.387 93.5969 82.2057 95.9678 86.1849 95.5202C95.0718 93.7461 98.2387 91.3751 98.2387 91.3751C98.2387 91.3751 99.764 95.2383 104.506 95.5865C109.928 95.9844 112.862 92.5689 112.862 92.5689C112.862 92.5689 112.829 94.7741 114.703 95.5368C116.576 96.2994 117.886 92.2207 117.886 92.2207L121.069 83.7483H121.351C121.351 83.7483 121.517 89.17 124.651 90.0653C127.784 90.9606 131.847 87.8104 131.847 87.8104C131.847 87.8104 132.725 87.3628 132.526 85.7213" fill="#E24B31"/>
<defs>
<linearGradient id="paint0_linear_1390_23480" x1="75.3103" y1="6.85062" x2="127.736" y2="165.536" gradientUnits="userSpaceOnUse">
<stop stop-color="white"/>
<stop offset="1" stop-color="#D7D7D7"/>
</linearGradient>
<linearGradient id="paint1_linear_1390_23480" x1="74.9332" y1="0.530193" x2="135.517" y2="170.053" gradientUnits="userSpaceOnUse">
<stop stop-color="#322D37"/>
<stop offset="1" stop-color="#18151B"/>
</linearGradient>
</defs>
</svg>
