<svg width="168" height="167" viewBox="0 0 168 167" fill="none" xmlns="http://www.w3.org/2000/svg">
<path d="M0.773437 43.68C0.773437 28.3906 0.773437 20.7458 3.74896 14.9061C6.3663 9.76923 10.5427 5.59286 15.6795 2.97552C21.5193 0 29.164 0 44.4534 0L123.623 0C138.913 0 146.557 0 152.397 2.97552C157.534 5.59286 161.71 9.76923 164.328 14.9061C167.303 20.7458 167.303 28.3906 167.303 43.68L167.303 122.85C167.303 138.139 167.303 145.784 164.328 151.624C161.71 156.761 157.534 160.937 152.397 163.554C146.557 166.53 138.913 166.53 123.623 166.53L44.4534 166.53C29.164 166.53 21.5193 166.53 15.6795 163.554C10.5427 160.937 6.3663 156.761 3.74896 151.624C0.773437 145.784 0.773437 138.139 0.773437 122.85L0.773437 43.68Z" fill="url(#paint0_linear_1390_23306)"/>
<path d="M0.773437 43.68C0.773437 28.3906 0.773437 20.7458 3.74896 14.9061C6.3663 9.76923 10.5427 5.59286 15.6795 2.97552C21.5193 0 29.164 0 44.4534 0L123.623 0C138.913 0 146.557 0 152.397 2.97552C157.534 5.59286 161.71 9.76923 164.328 14.9061C167.303 20.7458 167.303 28.3906 167.303 43.68L167.303 122.85C167.303 138.139 167.303 145.784 164.328 151.624C161.71 156.761 157.534 160.937 152.397 163.554C146.557 166.53 138.913 166.53 123.623 166.53L44.4534 166.53C29.164 166.53 21.5193 166.53 15.6795 163.554C10.5427 160.937 6.3663 156.761 3.74896 151.624C0.773437 145.784 0.773437 138.139 0.773437 122.85L0.773437 43.68Z" fill="url(#paint1_linear_1390_23306)"/>
<path d="M164.573 43.68L164.573 122.85C164.573 130.54 164.571 136.143 164.21 140.558C163.852 144.942 163.154 147.914 161.895 150.385C159.54 155.008 155.781 158.766 151.158 161.122C148.687 162.381 145.715 163.079 141.332 163.437C136.916 163.798 131.313 163.8 123.623 163.8L44.4534 163.8C36.7637 163.8 31.1605 163.798 26.7452 163.437C22.3616 163.079 19.3898 162.381 16.9189 161.122C12.2957 158.766 8.53701 155.008 6.18141 150.385C4.92242 147.914 4.22446 144.942 3.86631 140.558C3.50556 136.143 3.50344 130.54 3.50344 122.85L3.50344 43.68C3.50344 35.9902 3.50556 30.3871 3.86631 25.9717C4.22446 21.5882 4.92242 18.6163 6.18141 16.1454C8.53701 11.5223 12.2957 7.76358 16.9189 5.40797C19.3898 4.14898 22.3616 3.45102 26.7451 3.09287C31.1605 2.73212 36.7637 2.73 44.4534 2.73L123.623 2.73C131.313 2.73 136.916 2.73212 141.332 3.09287C145.715 3.45102 148.687 4.14898 151.158 5.40797C155.781 7.76358 159.54 11.5223 161.895 16.1454C163.154 18.6163 163.852 21.5882 164.21 25.9717C164.571 30.3871 164.573 35.9902 164.573 43.68Z" stroke="#A90533" stroke-opacity="0.5" stroke-width="5.46"/>
<path d="M56.0747 99.2588C49.7321 92.5383 46.0209 83.2503 46.0277 72.1709C46.0175 62.3701 49.0978 53.9492 54.3912 47.5391H54.3811L43.2578 47.5424L43.2578 99.2622H56.0747V99.2588Z" fill="#A90533"/>
<path d="M114.668 99.264C117.401 96.3356 119.85 92.8909 122.066 88.947L109.752 82.7899C105.427 89.8208 99.1047 96.2917 90.3565 96.3356C77.6273 96.2917 72.6274 85.4079 72.6544 71.4001L120.218 71.4001C120.282 69.8178 120.282 69.0823 120.218 68.3232C120.528 59.99 118.318 52.9827 114.3 47.5273L114.28 47.5442L124.988 47.5442L124.988 99.264L114.641 99.264H114.664H114.668Z" fill="#A90533"/>
<path d="M73.4258 59.394C73.9521 53.0514 78.952 48.7869 84.8156 48.7734C90.7197 48.7869 94.9841 53.0514 95.1292 59.394L73.4258 59.394Z" fill="#A90533"/>
<path d="M50.0334 108.015L50.0334 105.859H43.4141L43.4141 118.636H50.0334L50.0334 116.48H45.8769L45.8769 113.093H49.8782L49.8782 110.937H45.8769L45.8769 108.012H50.0334V108.015Z" fill="white"/>
<path d="M61.267 113.248C62.9167 113.002 63.8243 111.369 63.885 109.709C63.8243 106.993 62.0632 105.869 59.5767 105.859H56.1895L56.1895 118.636H58.6523L58.6523 113.555L61.7292 118.636H64.806L61.267 113.248ZM58.6489 107.86H58.9559C60.2987 107.911 61.3074 108.218 61.2636 109.861C61.3074 111.365 60.3324 111.777 58.9559 111.706H58.6489L58.6489 107.857V107.86Z" fill="white"/>
<path d="M72.5058 105.859H70.043L70.043 118.636H76.0449L76.0449 116.48H72.5058L72.5058 105.859Z" fill="white"/>
<path d="M88.6675 116.02L89.7437 118.638L92.3618 118.638L87.5913 105.555H85.5906L80.5098 118.638H83.1278L84.204 116.02H88.6675ZM88.0535 114.019H84.9766L86.3632 109.249L88.0569 114.019H88.0535Z" fill="white"/>
<path d="M96.9805 118.638H99.5985L99.5985 110.018L106.373 118.945L108.218 118.945L108.218 105.862L105.6 105.862L105.6 114.482L98.8259 105.555H96.9805L96.9805 118.638Z" fill="white"/>
<path d="M118.991 111.868L118.991 113.869H121.761C121.703 115.478 120.388 116.838 118.836 116.794C116.386 116.841 115.172 114.473 115.141 112.33C115.172 110.215 116.37 107.745 118.836 107.712C120.131 107.745 121.224 108.633 121.761 109.712L123.917 108.636C122.969 106.639 121.056 105.532 118.836 105.559C115.02 105.535 112.574 108.683 112.523 112.33C112.574 115.886 114.949 119.054 118.681 119.101C122.709 119.051 124.575 115.832 124.531 112.175L124.531 111.868L118.991 111.868Z" fill="white"/>
<defs>
<linearGradient id="paint0_linear_1390_23306" x1="75.781" y1="6.85062" x2="128.207" y2="165.536" gradientUnits="userSpaceOnUse">
<stop stop-color="white"/>
<stop offset="1" stop-color="#D7D7D7"/>
</linearGradient>
<linearGradient id="paint1_linear_1390_23306" x1="75.4039" y1="0.530193" x2="135.988" y2="170.053" gradientUnits="userSpaceOnUse">
<stop stop-color="#322D37"/>
<stop offset="1" stop-color="#18151B"/>
</linearGradient>
</defs>
</svg>
