<svg width="168" height="167" viewBox="0 0 168 167" fill="none" xmlns="http://www.w3.org/2000/svg">
<path d="M0.891602 43.9144C0.891602 28.6249 0.891602 20.9802 3.86712 15.1404C6.48446 10.0036 10.6608 5.82724 15.7977 3.2099C21.6374 0.234375 29.2822 0.234375 44.5716 0.234375L123.741 0.234375C139.031 0.234375 146.676 0.234375 152.515 3.2099C157.652 5.82724 161.829 10.0036 164.446 15.1404C167.421 20.9802 167.421 28.6249 167.421 43.9144L167.421 123.084C167.421 138.374 167.421 146.019 164.446 151.858C161.829 156.995 157.652 161.172 152.515 163.789C146.676 166.764 139.031 166.764 123.741 166.764L44.5716 166.764C29.2822 166.764 21.6374 166.764 15.7977 163.789C10.6608 161.172 6.48446 156.995 3.86712 151.858C0.891602 146.019 0.891602 138.374 0.891602 123.084L0.891602 43.9144Z" fill="url(#paint0_linear_1390_23455)"/>
<path d="M0.891602 43.9144C0.891602 28.6249 0.891602 20.9802 3.86712 15.1404C6.48446 10.0036 10.6608 5.82724 15.7977 3.2099C21.6374 0.234375 29.2822 0.234375 44.5716 0.234375L123.741 0.234375C139.031 0.234375 146.676 0.234375 152.515 3.2099C157.652 5.82724 161.829 10.0036 164.446 15.1404C167.421 20.9802 167.421 28.6249 167.421 43.9144L167.421 123.084C167.421 138.374 167.421 146.019 164.446 151.858C161.829 156.995 157.652 161.172 152.515 163.789C146.676 166.764 139.031 166.764 123.741 166.764L44.5716 166.764C29.2822 166.764 21.6374 166.764 15.7977 163.789C10.6608 161.172 6.48446 156.995 3.86712 151.858C0.891602 146.019 0.891602 138.374 0.891602 123.084L0.891602 43.9144Z" fill="url(#paint1_linear_1390_23455)"/>
<path d="M164.691 43.9144L164.691 123.084C164.691 130.774 164.689 136.377 164.329 140.793C163.97 145.176 163.272 148.148 162.013 150.619C159.658 155.242 155.899 159.001 151.276 161.356C148.805 162.615 145.833 163.313 141.45 163.672C137.034 164.032 131.431 164.034 123.741 164.034L44.5716 164.034C36.8818 164.034 31.2787 164.032 26.8633 163.672C22.4798 163.313 19.5079 162.615 17.037 161.356C12.4139 159.001 8.65518 155.242 6.29957 150.619C5.04058 148.148 4.34262 145.176 3.98447 140.793C3.62372 136.377 3.6216 130.774 3.6216 123.084L3.6216 43.9144C3.6216 36.2246 3.62372 30.6215 3.98447 26.2061C4.34262 21.8226 5.04058 18.8507 6.29957 16.3798C8.65518 11.7567 12.4139 7.99795 17.037 5.64234C19.5079 4.38336 22.4798 3.68539 26.8633 3.32725C31.2787 2.9665 36.8818 2.96437 44.5716 2.96437L123.741 2.96437C131.431 2.96437 137.034 2.9665 141.45 3.32725C145.833 3.68539 148.805 4.38336 151.276 5.64234C155.899 7.99795 159.658 11.7567 162.013 16.3798C163.272 18.8507 163.97 21.8226 164.329 26.2061C164.689 30.6215 164.691 36.2246 164.691 43.9144Z" stroke="#44D1FD" stroke-opacity="0.5" stroke-width="5.46"/>
<path d="M86.7416 39.85L113.72 39.8203L68.4573 85.0602L56.6609 96.7906L43.2393 83.3524L86.7416 39.85ZM86.4905 80.2439C86.8407 79.7814 87.4848 80.0093 87.9737 79.9499L113.697 79.9565L90.2531 103.378L76.762 89.9691L86.4905 80.2439Z" fill="#44D1FD"/>
<path d="M63.3154 103.4L76.7635 89.9688L90.2545 103.377L90.3107 103.437L76.7668 116.855L63.3154 103.4Z" fill="#1FBCFD"/>
<path d="M76.7666 116.856L90.3105 103.438L113.708 126.859C104.895 126.878 96.0848 126.852 87.2747 126.872C86.7726 126.984 86.462 126.525 86.1416 126.241L76.7666 116.856Z" fill="#08589C"/>
<defs>
<linearGradient id="paint0_linear_1390_23455" x1="75.8992" y1="7.08499" x2="128.325" y2="165.77" gradientUnits="userSpaceOnUse">
<stop stop-color="white"/>
<stop offset="1" stop-color="#D7D7D7"/>
</linearGradient>
<linearGradient id="paint1_linear_1390_23455" x1="75.5221" y1="0.764568" x2="136.106" y2="170.288" gradientUnits="userSpaceOnUse">
<stop stop-color="#322D37"/>
<stop offset="1" stop-color="#18151B"/>
</linearGradient>
</defs>
</svg>
