<svg width="168" height="167" viewBox="0 0 168 167" fill="none" xmlns="http://www.w3.org/2000/svg">
<path d="M0.951172 43.9144C0.951172 28.6249 0.951172 20.9802 3.92669 15.1404C6.54403 10.0036 10.7204 5.82724 15.8572 3.2099C21.697 0.234375 29.3417 0.234375 44.6312 0.234375L123.801 0.234375C139.09 0.234375 146.735 0.234375 152.575 3.2099C157.712 5.82724 161.888 10.0036 164.505 15.1404C167.481 20.9802 167.481 28.6249 167.481 43.9144L167.481 123.084C167.481 138.374 167.481 146.019 164.505 151.858C161.888 156.995 157.712 161.172 152.575 163.789C146.735 166.764 139.09 166.764 123.801 166.764L44.6312 166.764C29.3417 166.764 21.697 166.764 15.8572 163.789C10.7204 161.172 6.54403 156.995 3.92669 151.858C0.951172 146.019 0.951172 138.374 0.951172 123.084L0.951172 43.9144Z" fill="url(#paint0_linear_1390_22491)"/>
<path d="M0.951172 43.9144C0.951172 28.6249 0.951172 20.9802 3.92669 15.1404C6.54403 10.0036 10.7204 5.82724 15.8572 3.2099C21.697 0.234375 29.3417 0.234375 44.6312 0.234375L123.801 0.234375C139.09 0.234375 146.735 0.234375 152.575 3.2099C157.712 5.82724 161.888 10.0036 164.505 15.1404C167.481 20.9802 167.481 28.6249 167.481 43.9144L167.481 123.084C167.481 138.374 167.481 146.019 164.505 151.858C161.888 156.995 157.712 161.172 152.575 163.789C146.735 166.764 139.09 166.764 123.801 166.764L44.6312 166.764C29.3417 166.764 21.697 166.764 15.8572 163.789C10.7204 161.172 6.54403 156.995 3.92669 151.858C0.951172 146.019 0.951172 138.374 0.951172 123.084L0.951172 43.9144Z" fill="url(#paint1_linear_1390_22491)"/>
<path d="M164.751 43.9144L164.751 123.084C164.751 130.774 164.749 136.377 164.388 140.793C164.03 145.176 163.332 148.148 162.073 150.619C159.717 155.242 155.959 159.001 151.336 161.356C148.865 162.615 145.893 163.313 141.509 163.672C137.094 164.032 131.491 164.034 123.801 164.034L44.6312 164.034C36.9414 164.034 31.3383 164.032 26.9229 163.672C22.5394 163.313 19.5675 162.615 17.0966 161.356C12.4735 159.001 8.71475 155.242 6.35914 150.619C5.10015 148.148 4.40219 145.176 4.04404 140.793C3.68329 136.377 3.68117 130.774 3.68117 123.084L3.68117 43.9144C3.68117 36.2246 3.68329 30.6215 4.04404 26.2061C4.40219 21.8226 5.10015 18.8507 6.35914 16.3798C8.71475 11.7567 12.4735 7.99795 17.0966 5.64234C19.5675 4.38336 22.5394 3.68539 26.9229 3.32725C31.3383 2.9665 36.9414 2.96437 44.6312 2.96437L123.801 2.96437C131.491 2.96437 137.094 2.9665 141.509 3.32725C145.893 3.68539 148.865 4.38336 151.336 5.64234C155.959 7.99795 159.717 11.7567 162.073 16.3798C163.332 18.8507 164.03 21.8226 164.388 26.2061C164.749 30.6215 164.751 36.2246 164.751 43.9144Z" stroke="#512BD4" stroke-opacity="0.5" stroke-width="5.46"/>
<path fill-rule="evenodd" clip-rule="evenodd" d="M102.432 48.1602L112.76 48.1602C121.945 48.1602 129.405 55.6205 129.405 64.805L129.405 101.124C129.405 110.309 121.945 117.769 112.76 117.769H111.944C107.218 117.028 105.166 115.61 103.581 114.412L90.4492 103.616C89.7724 103.068 88.8003 103.068 88.1235 103.616L83.8589 107.123L71.8439 97.2461C71.1672 96.6983 70.2004 96.6983 69.5183 97.2461L52.8251 111.931C49.4628 114.664 47.2446 114.16 45.8051 113.998C42.083 110.942 39.709 106.307 39.709 101.124L39.709 64.805C39.709 55.6205 47.1694 48.1602 56.3538 48.1602L66.6609 48.1602L66.6448 48.2031L66.2956 49.2183L66.1882 49.5674L65.7209 51.6406L65.6565 52.0058L65.4524 54.0844L65.4255 54.6537L65.4255 54.8525L65.4416 55.8032L65.49 56.3617L65.6081 57.2372L65.7585 58.0214L65.9358 58.7465L66.1614 59.5307L66.7522 61.1903L66.9455 61.6898L67.9714 63.8597L68.3313 64.5257L69.5183 66.5614L69.9748 67.2972L71.6344 69.7356L71.8761 70.0579L74.0299 72.867L74.7282 73.7317L77.1881 76.6106L77.693 77.1638L79.7232 79.3498L80.5289 80.1823L81.8555 81.5036L81.587 81.7292L81.4205 81.8796C80.9693 82.2985 80.5396 82.7497 80.1422 83.217C79.9488 83.4425 79.7662 83.6789 79.589 83.9206C79.3204 84.2912 79.0841 84.6779 78.88 85.0807C78.7726 85.2902 78.6759 85.505 78.5953 85.7252C78.3805 86.2892 78.2462 86.88 78.2086 87.4816L78.2086 88.0026C78.2193 88.733 78.3697 89.4581 78.6437 90.1349C78.9176 90.8224 79.3204 91.4561 79.8307 91.9933C80.2013 92.3853 80.6202 92.7291 81.0821 93.0138C81.4742 93.2555 81.8931 93.4542 82.3282 93.6046C83.2735 93.9268 84.2779 94.0396 85.2715 93.9376H85.2769C86.1255 93.857 86.9473 93.6099 87.7046 93.2179C88.0322 93.046 88.3384 92.8472 88.6284 92.6163C89.4609 91.9664 90.1055 91.1124 90.4975 90.1295C90.8037 89.3668 90.9541 88.5504 90.938 87.7286L90.9165 87.299C90.8628 86.7296 90.7231 86.1764 90.5137 85.6447C90.4223 85.4137 90.3203 85.1881 90.2021 84.9679C89.9873 84.5651 89.7402 84.1784 89.4717 83.8078C89.3481 83.6413 89.2192 83.4748 89.085 83.3136C88.6392 82.7819 88.1665 82.2824 87.6563 81.8151L87.2964 81.509L87.9033 80.9074L90.519 78.1789L91.4214 77.1853L92.8286 75.6062L93.7416 74.5374L95.0468 72.9475L95.9277 71.8357L97.2221 70.1009L97.8774 69.2039L98.8065 67.8182L99.58 66.6365L101.036 64.1014L101.868 62.4364L101.89 62.3827L102.529 60.8358C102.529 60.8358 102.545 60.7929 102.55 60.7767L103.238 58.6337L103.307 58.3222L103.608 56.6142L103.667 56.1523L103.683 55.8676L103.705 54.7988L103.705 54.6L103.646 53.644L103.576 52.9028L103.238 50.7597C103.238 50.7329 103.227 50.7007 103.216 50.6738L102.781 49.0893L102.631 48.6489L102.437 48.1602H102.432ZM107.341 93.4488C105.187 93.481 103.426 95.2427 103.399 97.3912C103.431 99.5449 105.193 101.301 107.341 101.334C109.49 101.301 111.251 99.5449 111.283 97.3912C111.251 95.2374 109.49 93.4757 107.341 93.4488Z" fill="url(#paint2_radial_1390_22491)"/>
<path fill-rule="evenodd" clip-rule="evenodd" d="M78.6505 116.35L77.9523 116.936C77.3078 117.468 76.5021 117.758 75.6696 117.768L56.3554 117.768C52.5097 117.768 48.7768 116.442 45.8066 113.998C47.2461 114.154 49.4697 114.658 52.832 111.93L69.5251 97.2455C70.2019 96.6977 71.1687 96.6977 71.8508 97.2455L83.8658 107.123L88.1304 103.616C88.8072 103.068 89.7793 103.068 90.4561 103.616L103.588 114.411C105.173 115.609 107.224 117.027 111.951 117.768L103.218 117.768C102.444 117.758 101.698 117.511 101.075 117.054L100.919 116.936L100.269 116.399C100.215 116.334 100.162 116.275 100.097 116.227C96.751 113.45 93.4048 110.679 90.0586 107.902C89.6504 107.563 89.065 107.569 88.6568 107.902C88.6568 107.902 88.6783 107.929 78.7795 116.221C78.7311 116.259 78.6881 116.302 78.6452 116.35H78.6505ZM107.343 93.4482C105.189 93.4804 103.427 95.2421 103.4 97.3906C103.433 99.5444 105.194 101.301 107.343 101.333C109.496 101.301 111.253 99.5444 111.29 97.3906C111.258 95.2368 109.496 93.4751 107.343 93.4482ZM81.8463 81.4976L80.5197 80.1764L79.714 79.3439L77.6838 77.1578L77.1789 76.6046L74.7189 73.7257L74.0207 72.861L71.8669 70.0573L71.6252 69.7351L69.9656 67.2966L69.509 66.5608L68.322 64.5251L67.9622 63.8591L66.9363 61.6892L66.743 61.1897L66.1521 59.5301L65.9266 58.7459L65.7493 58.0208L65.5989 57.2313L65.4808 56.3558L65.4324 55.7972L65.4109 54.8465L65.4109 54.6478L65.4432 54.0785L65.6473 51.9999L65.7117 51.6346L66.179 49.5614L66.2864 49.2123L66.6355 48.1972L66.7483 47.934L67.3015 46.7201L67.6829 45.995L68.2146 45.1142L68.7463 44.33L69.1277 43.8305L69.5628 43.3041L70.0461 42.7778L70.4597 42.3642L71.4641 41.4834L72.1999 40.8818C72.1999 40.8818 72.2375 40.8549 72.2536 40.8388L73.1237 40.2534L73.8112 39.813L75.1218 39.1255C75.1218 39.1255 75.1647 39.104 75.1862 39.0932L77.0446 38.3252L77.2165 38.2607L78.8654 37.7773L79.5636 37.6216L80.5036 37.4336L81.1266 37.3369L82.0826 37.2187L82.7379 37.1597L84.0377 37.0898H84.548L85.5094 37.106L85.7618 37.1221L87.1583 37.2402L89.0005 37.498L89.2154 37.541L91.0362 37.9922L91.5733 38.1533L92.1695 38.3574L92.8945 38.6313L93.4692 38.873L94.3125 39.2705L94.8442 39.5444L95.7949 40.103L96.1494 40.3232L97.4492 41.2685L97.8198 41.5908L98.7275 42.4179L98.7705 42.4609L99.5385 43.2827L99.8017 43.5834L100.704 44.7812L100.887 45.0658L101.601 46.2743L101.816 46.6879L102.219 47.5902L102.643 48.643L102.793 49.0834L103.228 50.6678C103.234 50.6947 103.245 50.7216 103.25 50.7538L103.588 52.8968L103.658 53.638L103.712 54.5941V54.7928L103.696 55.8616L103.68 56.1463L103.621 56.6082L103.32 58.3162L103.25 58.6277L102.562 60.7708C102.562 60.7708 102.552 60.8137 102.541 60.8299L101.902 62.3767L101.88 62.4304L101.048 64.0955L99.5922 66.6306L98.8188 67.8122L97.8896 69.1979L97.2343 70.0949L95.9399 71.8298L95.0591 72.9416L93.7539 74.5314L92.8408 75.6002L91.4336 77.1793L90.5313 78.173L87.9156 80.9015L87.3087 81.503L87.6685 81.8092C88.1788 82.2764 88.6514 82.776 89.0972 83.3077C89.2315 83.4688 89.3604 83.6353 89.4839 83.8018C89.7579 84.1671 89.9996 84.5591 90.2144 84.962C90.3326 85.1822 90.4346 85.4078 90.5259 85.6387C90.7354 86.1705 90.875 86.729 90.9287 87.293L90.9502 87.7227C90.9663 88.5445 90.816 89.3609 90.5098 90.1235C90.1177 91.1011 89.4732 91.9604 88.6407 92.605C88.3506 92.8305 88.0391 93.0346 87.7169 93.2065C86.9595 93.5986 86.1378 93.8457 85.2892 93.9262H85.2838C84.2901 94.0283 83.2858 93.9101 82.3405 93.5932C81.9054 93.4428 81.4865 93.2441 81.0944 93.0024C80.6325 92.7178 80.2135 92.3794 79.8429 91.9819C79.3327 91.4394 78.9298 90.811 78.6559 90.1235C78.382 89.4468 78.237 88.7217 78.2155 87.9912L78.2155 87.4702C78.2638 86.8687 78.3927 86.2779 78.6076 85.7139C78.6935 85.4937 78.7848 85.2789 78.8922 85.0694C79.1017 84.6666 79.338 84.2745 79.6012 83.9092C79.7731 83.6675 79.9611 83.4312 80.1544 83.2056C80.5573 82.7384 80.9816 82.2872 81.4327 81.8682L81.5992 81.7179L81.8678 81.4923L81.8463 81.4976Z" fill="#24175B"/>
<path fill-rule="evenodd" clip-rule="evenodd" d="M77.9531 116.936L88.6576 107.902C89.0604 107.563 89.6512 107.563 90.0594 107.902L100.92 116.936C101.58 117.473 102.407 117.768 103.256 117.768L75.6328 117.768C76.4814 117.768 77.3032 117.473 77.9585 116.936H77.9531ZM84.6132 84.6934L84.7152 84.7257C84.7475 84.7418 84.7797 84.7633 84.8065 84.7848L84.8925 84.86C85.1073 85.0587 85.3168 85.2681 85.5209 85.483C85.6605 85.6334 85.8002 85.7891 85.9345 85.9556C86.1063 86.1597 86.2621 86.3746 86.4071 86.5948C86.4716 86.6915 86.5253 86.7935 86.579 86.8956C86.6273 86.9869 86.6703 87.0782 86.7079 87.1695C86.7724 87.336 86.8207 87.5079 86.8368 87.6798L86.8368 88.0074C86.7885 88.6089 86.4555 89.1568 85.9398 89.4737C85.6122 89.6724 85.2362 89.7959 84.8549 89.8335L84.4467 89.8443L84.1029 89.8121C83.9418 89.7906 83.7861 89.7476 83.6303 89.6993C83.4745 89.6456 83.3241 89.5757 83.1845 89.4898L82.9159 89.2911C82.5991 89.0225 82.3842 88.6519 82.3036 88.2437C82.2929 88.1739 82.2822 88.1041 82.2714 88.0342L82.2607 87.7173C82.266 87.6314 82.2768 87.5455 82.2983 87.4649C82.3466 87.2823 82.4111 87.105 82.497 86.9332C82.6098 86.7183 82.7333 86.5142 82.873 86.3209C83.1039 86.004 83.3564 85.7086 83.6249 85.4239C83.7968 85.2413 83.974 85.0641 84.162 84.8922L84.2963 84.774C84.3876 84.7149 84.3876 84.7149 84.495 84.6827H84.6078L84.6132 84.6934ZM83.9364 40.8281H83.9794L83.9794 77.609L83.8881 77.4372C82.6796 75.1974 81.5517 72.9147 80.5097 70.5891C79.6665 68.7092 78.8984 66.7918 78.2163 64.8474C77.6684 63.2952 77.2065 61.7215 76.8359 60.1209C76.5459 58.848 76.3203 57.5643 76.229 56.2591C76.1914 55.7059 76.1807 55.1473 76.1968 54.5887C76.2075 54.1053 76.2236 53.622 76.2559 53.1386C76.3042 52.3759 76.3794 51.6186 76.4922 50.8612C76.5835 50.2704 76.6909 49.6796 76.8252 49.0942C76.9326 48.6323 77.0561 48.1703 77.2012 47.7138C77.4053 47.0585 77.6523 46.4194 77.937 45.791C78.039 45.5654 78.1518 45.3398 78.27 45.125C78.979 43.8091 79.9458 42.6006 81.208 41.7895C82.0297 41.2578 82.9643 40.9248 83.9364 40.8281ZM88.7059 40.9194L91.182 41.623C92.3314 42.042 93.4271 42.6006 94.4476 43.2881C95.8279 44.2226 97.0203 45.4096 97.9549 46.79C98.5027 47.6118 98.9592 48.4872 99.3137 49.4111C99.8294 50.7753 100.146 52.204 100.259 53.6542C100.291 54.0355 100.313 54.4169 100.318 54.7982C100.329 55.1527 100.323 55.5072 100.297 55.8617C100.227 56.6512 100.076 57.4354 99.8508 58.1981C99.6682 58.8211 99.4534 59.4388 99.2117 60.0404C98.9055 60.7869 98.5672 61.5228 98.1966 62.2371C97.3694 63.8323 96.4241 65.3523 95.409 66.8294C94.1522 68.6394 92.8094 70.3904 91.3861 72.0822C89.8446 73.9245 88.2333 75.7077 86.5575 77.4318C87.6908 75.3049 88.7543 73.135 89.7372 70.9328C90.285 69.7029 90.8006 68.4622 91.284 67.2107C91.8158 65.8357 92.2938 64.4392 92.7235 63.0267C93.0404 61.9686 93.3196 60.8997 93.5506 59.8148C93.7493 58.8856 93.9051 57.951 94.0018 57.0057C94.0823 56.2215 94.1146 55.4266 94.0931 54.6371C94.0877 54.1537 94.0662 53.6703 94.0394 53.1923C93.9212 51.2533 93.6312 49.3197 93.0618 47.456C92.847 46.7524 92.5892 46.0595 92.283 45.3881C91.5579 43.8091 90.5482 42.3374 89.1786 41.2578C89.1786 41.2578 88.7167 40.9248 88.722 40.9248L88.7059 40.9194Z" fill="white"/>
<defs>
<linearGradient id="paint0_linear_1390_22491" x1="75.9587" y1="7.08499" x2="128.385" y2="165.77" gradientUnits="userSpaceOnUse">
<stop stop-color="white"/>
<stop offset="1" stop-color="#D7D7D7"/>
</linearGradient>
<linearGradient id="paint1_linear_1390_22491" x1="75.5816" y1="0.764568" x2="136.166" y2="170.288" gradientUnits="userSpaceOnUse">
<stop stop-color="#322D37"/>
<stop offset="1" stop-color="#18151B"/>
</linearGradient>
<radialGradient id="paint2_radial_1390_22491" cx="0" cy="0" r="1" gradientUnits="userSpaceOnUse" gradientTransform="translate(86.8964 82.2003) scale(64.9788 64.9789)">
<stop stop-color="#BA7BF0"/>
<stop offset="0.45" stop-color="#996BEC"/>
<stop offset="1" stop-color="#5046E4"/>
</radialGradient>
</defs>
</svg>
