<svg width="167" height="167" viewBox="0 0 167 167" fill="none" xmlns="http://www.w3.org/2000/svg">
<path d="M0.181641 43.68C0.181641 28.3906 0.181641 20.7458 3.15716 14.9061C5.7745 9.76923 9.95087 5.59286 15.0877 2.97552C20.9275 0 28.5722 0 43.8616 0L123.031 0C138.321 0 145.966 0 151.805 2.97552C156.942 5.59286 161.119 9.76923 163.736 14.9061C166.711 20.7458 166.711 28.3906 166.711 43.68L166.711 122.85C166.711 138.139 166.711 145.784 163.736 151.624C161.119 156.761 156.942 160.937 151.805 163.554C145.966 166.53 138.321 166.53 123.031 166.53L43.8616 166.53C28.5722 166.53 20.9275 166.53 15.0877 163.554C9.95087 160.937 5.7745 156.761 3.15716 151.624C0.181641 145.784 0.181641 138.139 0.181641 122.85L0.181641 43.68Z" fill="url(#paint0_linear_1390_23296)"/>
<path d="M0.181641 43.68C0.181641 28.3906 0.181641 20.7458 3.15716 14.9061C5.7745 9.76923 9.95087 5.59286 15.0877 2.97552C20.9275 0 28.5722 0 43.8616 0L123.031 0C138.321 0 145.966 0 151.805 2.97552C156.942 5.59286 161.119 9.76923 163.736 14.9061C166.711 20.7458 166.711 28.3906 166.711 43.68L166.711 122.85C166.711 138.139 166.711 145.784 163.736 151.624C161.119 156.761 156.942 160.937 151.805 163.554C145.966 166.53 138.321 166.53 123.031 166.53L43.8616 166.53C28.5722 166.53 20.9275 166.53 15.0877 163.554C9.95087 160.937 5.7745 156.761 3.15716 151.624C0.181641 145.784 0.181641 138.139 0.181641 122.85L0.181641 43.68Z" fill="url(#paint1_linear_1390_23296)"/>
<path d="M163.981 43.68L163.981 122.85C163.981 130.54 163.979 136.143 163.619 140.558C163.26 144.942 162.562 147.914 161.304 150.385C158.948 155.008 155.189 158.766 150.566 161.122C148.095 162.381 145.123 163.079 140.74 163.437C136.324 163.798 130.721 163.8 123.031 163.8L43.8616 163.8C36.1719 163.8 30.5687 163.798 26.1534 163.437C21.7698 163.079 18.798 162.381 16.3271 161.122C11.7039 158.766 7.94522 155.008 5.58961 150.385C4.33062 147.914 3.63266 144.942 3.27451 140.558C2.91376 136.143 2.91164 130.54 2.91164 122.85L2.91164 43.68C2.91164 35.9902 2.91376 30.3871 3.27451 25.9717C3.63266 21.5882 4.33062 18.6163 5.58961 16.1454C7.94522 11.5223 11.7039 7.76358 16.3271 5.40797C18.798 4.14898 21.7698 3.45102 26.1534 3.09287C30.5687 2.73212 36.1719 2.73 43.8616 2.73L123.031 2.73C130.721 2.73 136.324 2.73212 140.74 3.09287C145.123 3.45102 148.095 4.14898 150.566 5.40797C155.189 7.76358 158.948 11.5223 161.304 16.1454C162.562 18.6163 163.26 21.5882 163.619 25.9717C163.979 30.3871 163.981 35.9902 163.981 43.68Z" stroke="#00ACD7" stroke-opacity="0.5" stroke-width="5.46"/>
<path d="M28.4497 75.0721C28.2266 75.0721 28.1708 74.9605 28.2824 74.7931L29.4539 73.2868C29.5655 73.1194 29.8445 73.0078 30.0676 73.0078L49.9847 73.0078C50.2079 73.0078 50.2637 73.1752 50.1521 73.3426L49.2037 74.7931C49.0921 74.9605 48.8131 75.1278 48.6458 75.1278L28.4497 75.0721Z" fill="#00ACD7"/>
<path d="M20.0278 80.2049C19.8047 80.2049 19.7489 80.0933 19.8605 79.9259L21.0321 78.4196C21.1437 78.2522 21.4226 78.1406 21.6458 78.1406L47.0861 78.1406C47.3092 78.1406 47.4208 78.308 47.365 78.4754L46.9187 79.8143C46.8629 80.0375 46.6398 80.1491 46.4166 80.1491L20.0278 80.2049Z" fill="#00ACD7"/>
<path d="M33.5318 85.3377C33.3086 85.3377 33.2528 85.1703 33.3644 85.0029L34.1454 83.6082C34.257 83.4408 34.4802 83.2734 34.7033 83.2734L45.8614 83.2734C46.0845 83.2734 46.1961 83.4408 46.1961 83.664L46.0845 85.0029C46.0845 85.2261 45.8614 85.3935 45.694 85.3935L33.5318 85.3377Z" fill="#00ACD7"/>
<path d="M91.4394 74.0676C87.9246 74.9603 85.5256 75.6298 82.0666 76.5224C81.2298 76.7456 81.174 76.8014 80.4487 75.9645C79.6118 75.0161 78.9982 74.4024 77.8266 73.8445C74.3118 72.115 70.9086 72.6171 67.7285 74.6813C63.9348 77.1361 61.9821 80.7625 62.0379 85.2815C62.0937 89.7447 65.1622 93.4268 69.5696 94.0405C73.3633 94.5427 76.5434 93.2037 79.0539 90.3584C79.5561 89.7447 80.0024 89.0752 80.5603 88.2941L69.7928 88.2941C68.6212 88.2941 68.3422 87.5689 68.7328 86.6204C69.458 84.8909 70.797 81.9898 71.5781 80.5393C71.7454 80.2046 72.136 79.6467 72.9728 79.6467L93.2804 79.6467C93.1689 81.153 93.1689 82.6593 92.9457 84.1657C92.332 88.1826 90.8257 91.8647 88.3709 95.1006C84.354 100.401 79.1097 103.692 72.4707 104.585C67.0033 105.31 61.9264 104.25 57.4631 100.903C53.3347 97.7785 50.9915 93.65 50.3778 88.5173C49.6525 82.4362 51.4378 76.9687 55.12 72.1708C59.0811 66.9823 64.3253 63.6907 70.7412 62.5191C75.9855 61.5706 81.0066 62.1843 85.5256 65.2528C88.4825 67.2054 90.6025 69.8834 91.9973 73.1192C92.332 73.6213 92.1088 73.9003 91.4394 74.0676Z" fill="#00ACD7"/>
<path d="M109.907 104.919C104.83 104.807 100.2 103.357 96.2946 100.009C93.003 97.1638 90.9387 93.5374 90.2693 89.2416C89.265 82.9373 90.9945 77.3583 94.7882 72.3929C98.8609 67.0371 103.77 64.2476 110.409 63.076C116.1 62.0718 121.456 62.6297 126.31 65.9213C130.717 68.934 133.451 73.0066 134.176 78.3625C135.125 85.8942 132.949 92.0311 127.76 97.2754C124.078 101.013 119.559 103.357 114.371 104.417C112.864 104.695 111.358 104.751 109.907 104.919ZM123.185 82.3794C123.13 81.6541 123.13 81.0962 123.018 80.5383C122.014 75.0151 116.937 71.8908 111.637 73.1182C106.448 74.2898 103.101 77.5814 101.874 82.8257C100.869 87.1774 102.989 91.5848 107.006 93.3701C110.075 94.709 113.143 94.5417 116.1 93.0353C120.508 90.7479 122.907 87.1774 123.185 82.3794Z" fill="#00ACD7"/>
<defs>
<linearGradient id="paint0_linear_1390_23296" x1="75.1892" y1="6.85062" x2="127.615" y2="165.536" gradientUnits="userSpaceOnUse">
<stop stop-color="white"/>
<stop offset="1" stop-color="#D7D7D7"/>
</linearGradient>
<linearGradient id="paint1_linear_1390_23296" x1="74.8121" y1="0.530193" x2="135.396" y2="170.053" gradientUnits="userSpaceOnUse">
<stop stop-color="#322D37"/>
<stop offset="1" stop-color="#18151B"/>
</linearGradient>
</defs>
</svg>
