<svg width="168" height="167" viewBox="0 0 168 167" fill="none" xmlns="http://www.w3.org/2000/svg">
<path d="M0.541016 43.9144C0.541016 28.6249 0.541016 20.9802 3.51654 15.1404C6.13388 10.0036 10.3102 5.82724 15.4471 3.2099C21.2869 0.234375 28.9316 0.234375 44.221 0.234375L123.391 0.234375C138.68 0.234375 146.325 0.234375 152.165 3.2099C157.302 5.82724 161.478 10.0036 164.095 15.1404C167.071 20.9802 167.071 28.6249 167.071 43.9144L167.071 123.084C167.071 138.374 167.071 146.019 164.095 151.858C161.478 156.995 157.302 161.172 152.165 163.789C146.325 166.764 138.68 166.764 123.391 166.764L44.221 166.764C28.9316 166.764 21.2869 166.764 15.4471 163.789C10.3102 161.172 6.13388 156.995 3.51654 151.858C0.541016 146.019 0.541016 138.374 0.541016 123.084L0.541016 43.9144Z" fill="url(#paint0_linear_1390_23388)"/>
<path d="M0.541016 43.9144C0.541016 28.6249 0.541016 20.9802 3.51654 15.1404C6.13388 10.0036 10.3102 5.82724 15.4471 3.2099C21.2869 0.234375 28.9316 0.234375 44.221 0.234375L123.391 0.234375C138.68 0.234375 146.325 0.234375 152.165 3.2099C157.302 5.82724 161.478 10.0036 164.095 15.1404C167.071 20.9802 167.071 28.6249 167.071 43.9144L167.071 123.084C167.071 138.374 167.071 146.019 164.095 151.858C161.478 156.995 157.302 161.172 152.165 163.789C146.325 166.764 138.68 166.764 123.391 166.764L44.221 166.764C28.9316 166.764 21.2869 166.764 15.4471 163.789C10.3102 161.172 6.13388 156.995 3.51654 151.858C0.541016 146.019 0.541016 138.374 0.541016 123.084L0.541016 43.9144Z" fill="url(#paint1_linear_1390_23388)"/>
<path d="M164.341 43.9144L164.341 123.084C164.341 130.774 164.339 136.377 163.978 140.793C163.62 145.176 162.922 148.148 161.663 150.619C159.307 155.242 155.549 159.001 150.925 161.356C148.455 162.615 145.483 163.313 141.099 163.672C136.684 164.032 131.081 164.034 123.391 164.034L44.221 164.034C36.5312 164.034 30.9281 164.032 26.5127 163.672C22.1292 163.313 19.1574 162.615 16.6865 161.356C12.0633 159.001 8.30459 155.242 5.94898 150.619C4.69 148.148 3.99203 145.176 3.63389 140.793C3.27314 136.377 3.27101 130.774 3.27101 123.084L3.27101 43.9144C3.27101 36.2246 3.27314 30.6215 3.63389 26.2061C3.99203 21.8226 4.69 18.8507 5.94898 16.3798C8.30459 11.7567 12.0633 7.99795 16.6865 5.64234C19.1574 4.38336 22.1292 3.68539 26.5127 3.32725C30.9281 2.9665 36.5312 2.96437 44.221 2.96437L123.391 2.96437C131.081 2.96437 136.684 2.9665 141.099 3.32725C145.483 3.68539 148.455 4.38336 150.925 5.64234C155.549 7.99795 159.307 11.7567 161.663 16.3798C162.922 18.8507 163.62 21.8226 163.978 26.2061C164.339 30.6215 164.341 36.2246 164.341 43.9144Z" stroke="#F9BC15" stroke-opacity="0.5" stroke-width="5.46"/>
<path d="M97.3089 65.9615H97.6419L97.4754 65.795L109.132 54.1389L109.132 53.8891C99.3071 45.2303 85.7361 42.233 73.1642 45.9796C60.5922 49.7262 50.9343 59.7172 47.4375 72.3724C47.604 72.2891 47.8538 72.2059 48.1036 72.2059C52.433 69.3751 57.5949 67.7099 63.0067 67.7099C64.8384 67.7099 66.5868 67.8764 68.3352 68.2095C68.4185 68.1262 68.5017 68.1262 68.585 68.1262C76.0782 59.8837 88.7334 58.8846 97.3922 65.9615H97.3089Z" fill="#EA4535"/>
<path d="M120.207 72.2047C118.292 65.1278 114.296 58.7169 108.718 53.8047L96.812 65.6273C101.807 69.7069 104.721 75.868 104.555 82.2789L104.555 84.3603C118.626 84.3603 118.626 105.341 104.555 105.341L83.4075 105.341L83.4075 121.993H83.3242L83.4075 122.159L104.555 122.159C116.711 122.243 127.451 114.416 131.031 102.927C134.611 91.4372 130.198 78.9486 120.207 72.2047Z" fill="#557EBF"/>
<path d="M62.6706 122.242L84.5674 122.242L84.5674 105.424L62.6706 105.424C61.0887 105.424 59.5901 105.091 58.1747 104.508L45.5195 116.663L45.5195 116.83C50.515 120.41 56.5096 122.325 62.7539 122.325L62.6706 122.242Z" fill="#36A852"/>
<path d="M63.6742 67.293C51.2688 67.3762 40.2787 75.0359 36.2824 86.2758C32.286 97.5988 36.2824 110.004 46.1068 117.331L59.095 104.926C51.9348 101.845 50.2697 92.8531 55.7647 87.6079C61.2597 82.2794 70.5846 83.9445 73.8316 90.7717L86.8198 78.3663C81.3248 71.4559 72.7493 67.3762 63.6742 67.4595L63.6742 67.293Z" fill="#F9BC15"/>
<defs>
<linearGradient id="paint0_linear_1390_23388" x1="75.5486" y1="7.08499" x2="127.975" y2="165.77" gradientUnits="userSpaceOnUse">
<stop stop-color="white"/>
<stop offset="1" stop-color="#D7D7D7"/>
</linearGradient>
<linearGradient id="paint1_linear_1390_23388" x1="75.1715" y1="0.764568" x2="135.756" y2="170.288" gradientUnits="userSpaceOnUse">
<stop stop-color="#322D37"/>
<stop offset="1" stop-color="#18151B"/>
</linearGradient>
</defs>
</svg>
