<svg width="168" height="167" viewBox="0 0 168 167" fill="none" xmlns="http://www.w3.org/2000/svg">
<path d="M0.541016 43.68C0.541016 28.3906 0.541016 20.7458 3.51654 14.9061C6.13388 9.76923 10.3102 5.59286 15.4471 2.97552C21.2869 0 28.9316 0 44.221 0L123.391 0C138.68 0 146.325 0 152.165 2.97552C157.302 5.59286 161.478 9.76923 164.095 14.9061C167.071 20.7458 167.071 28.3906 167.071 43.68L167.071 122.85C167.071 138.139 167.071 145.784 164.095 151.624C161.478 156.761 157.302 160.937 152.165 163.554C146.325 166.53 138.68 166.53 123.391 166.53L44.221 166.53C28.9316 166.53 21.2869 166.53 15.4471 163.554C10.3102 160.937 6.13388 156.761 3.51654 151.624C0.541016 145.784 0.541016 138.139 0.541016 122.85L0.541016 43.68Z" fill="url(#paint0_linear_1390_23466)"/>
<path d="M0.541016 43.68C0.541016 28.3906 0.541016 20.7458 3.51654 14.9061C6.13388 9.76923 10.3102 5.59286 15.4471 2.97552C21.2869 0 28.9316 0 44.221 0L123.391 0C138.68 0 146.325 0 152.165 2.97552C157.302 5.59286 161.478 9.76923 164.095 14.9061C167.071 20.7458 167.071 28.3906 167.071 43.68L167.071 122.85C167.071 138.139 167.071 145.784 164.095 151.624C161.478 156.761 157.302 160.937 152.165 163.554C146.325 166.53 138.68 166.53 123.391 166.53L44.221 166.53C28.9316 166.53 21.2869 166.53 15.4471 163.554C10.3102 160.937 6.13388 156.761 3.51654 151.624C0.541016 145.784 0.541016 138.139 0.541016 122.85L0.541016 43.68Z" fill="url(#paint1_linear_1390_23466)"/>
<path d="M164.341 43.68L164.341 122.85C164.341 130.54 164.339 136.143 163.978 140.558C163.62 144.942 162.922 147.914 161.663 150.385C159.307 155.008 155.549 158.766 150.925 161.122C148.455 162.381 145.483 163.079 141.099 163.437C136.684 163.798 131.081 163.8 123.391 163.8L44.221 163.8C36.5312 163.8 30.9281 163.798 26.5127 163.437C22.1292 163.079 19.1574 162.381 16.6865 161.122C12.0633 158.766 8.30459 155.008 5.94898 150.385C4.69 147.914 3.99203 144.942 3.63389 140.558C3.27314 136.143 3.27101 130.54 3.27101 122.85L3.27101 43.68C3.27101 35.9902 3.27314 30.3871 3.63389 25.9717C3.99203 21.5882 4.69 18.6163 5.94898 16.1454C8.30459 11.5223 12.0633 7.76358 16.6865 5.40797C19.1574 4.14898 22.1292 3.45102 26.5127 3.09287C30.9281 2.73212 36.5312 2.73 44.221 2.73L123.391 2.73C131.081 2.73 136.684 2.73212 141.099 3.09287C145.483 3.45102 148.455 4.14898 150.925 5.40797C155.549 7.76358 159.307 11.5223 161.663 16.1454C162.922 18.6163 163.62 21.5882 163.978 25.9717C164.339 30.3871 164.341 35.9902 164.341 43.68Z" stroke="#6762A6" stroke-opacity="0.5" stroke-width="5.46"/>
<path d="M119.906 47.0884C119.906 42.3229 116.079 38.4961 111.313 38.4961L56.2935 38.4961C51.528 38.4961 47.7012 42.3229 47.7012 47.0884L47.7012 119.51C47.7012 124.275 51.528 128.102 56.2935 128.102L111.386 128.102C116.151 128.102 119.978 124.275 119.978 119.51L119.978 47.0884H119.906ZM117.017 47.1606L117.017 118.86C117.017 122.253 114.49 125.142 111.097 125.142L56.7267 125.142C53.3331 125.142 50.5894 122.253 50.5894 118.86L50.5894 47.1606C50.5894 43.767 53.4053 41.3843 56.7267 41.3843L111.025 41.3843C114.418 41.3843 117.09 43.9836 117.09 47.3773L117.017 47.1606ZM64.3082 115.538L74.489 105.358L64.3082 95.1767L64.3082 115.538ZM74.4168 71.5658L74.4168 50.3376L64.3804 50.4098C64.3804 50.4098 64.4526 83.5517 64.5248 83.4073C95.4283 71.3492 93.19 79.9415 93.19 79.9415L93.19 115.611L93.1178 115.755L102.577 115.755L102.577 80.0137C102.577 60.4463 74.4168 71.5658 74.4168 71.5658ZM88.1357 63.0456L98.8219 63.0456C104.598 55.8252 106.548 50.7709 106.548 50.7709L95.5005 50.7709C95.5005 50.7709 91.9625 58.7134 88.1357 63.0456Z" fill="#6762A6"/>
<defs>
<linearGradient id="paint0_linear_1390_23466" x1="75.5486" y1="6.85062" x2="127.975" y2="165.536" gradientUnits="userSpaceOnUse">
<stop stop-color="white"/>
<stop offset="1" stop-color="#D7D7D7"/>
</linearGradient>
<linearGradient id="paint1_linear_1390_23466" x1="75.1715" y1="0.530193" x2="135.756" y2="170.053" gradientUnits="userSpaceOnUse">
<stop stop-color="#322D37"/>
<stop offset="1" stop-color="#18151B"/>
</linearGradient>
</defs>
</svg>
