<svg width="168" height="167" viewBox="0 0 168 167" fill="none" xmlns="http://www.w3.org/2000/svg">
<path d="M0.589844 43.9144C0.589844 28.6249 0.589844 20.9802 3.56536 15.1404C6.18271 10.0036 10.3591 5.82724 15.4959 3.2099C21.3357 0.234375 28.9804 0.234375 44.2698 0.234375L123.44 0.234375C138.729 0.234375 146.374 0.234375 152.214 3.2099C157.35 5.82724 161.527 10.0036 164.144 15.1404C167.12 20.9802 167.12 28.6249 167.12 43.9144L167.12 123.084C167.12 138.374 167.12 146.019 164.144 151.858C161.527 156.995 157.35 161.172 152.214 163.789C146.374 166.764 138.729 166.764 123.44 166.764L44.2698 166.764C28.9804 166.764 21.3357 166.764 15.4959 163.789C10.3591 161.172 6.18271 156.995 3.56536 151.858C0.589844 146.019 0.589844 138.374 0.589844 123.084L0.589844 43.9144Z" fill="url(#paint0_linear_1390_23339)"/>
<path d="M0.589844 43.9144C0.589844 28.6249 0.589844 20.9802 3.56536 15.1404C6.18271 10.0036 10.3591 5.82724 15.4959 3.2099C21.3357 0.234375 28.9804 0.234375 44.2698 0.234375L123.44 0.234375C138.729 0.234375 146.374 0.234375 152.214 3.2099C157.35 5.82724 161.527 10.0036 164.144 15.1404C167.12 20.9802 167.12 28.6249 167.12 43.9144L167.12 123.084C167.12 138.374 167.12 146.019 164.144 151.858C161.527 156.995 157.35 161.172 152.214 163.789C146.374 166.764 138.729 166.764 123.44 166.764L44.2698 166.764C28.9804 166.764 21.3357 166.764 15.4959 163.789C10.3591 161.172 6.18271 156.995 3.56536 151.858C0.589844 146.019 0.589844 138.374 0.589844 123.084L0.589844 43.9144Z" fill="url(#paint1_linear_1390_23339)"/>
<path d="M164.39 43.9144L164.39 123.084C164.39 130.774 164.388 136.377 164.027 140.793C163.669 145.176 162.971 148.148 161.712 150.619C159.356 155.242 155.597 159.001 150.974 161.356C148.503 162.615 145.531 163.313 141.148 163.672C136.733 164.032 131.129 164.034 123.44 164.034L44.2698 164.034C36.5801 164.034 30.9769 164.032 26.5616 163.672C22.1781 163.313 19.2062 162.615 16.7353 161.356C12.1121 159.001 8.35342 155.242 5.99781 150.619C4.73883 148.148 4.04086 145.176 3.68272 140.793C3.32197 136.377 3.31984 130.774 3.31984 123.084L3.31984 43.9144C3.31984 36.2246 3.32197 30.6215 3.68272 26.2061C4.04086 21.8226 4.73883 18.8507 5.99781 16.3798C8.35342 11.7567 12.1121 7.99795 16.7353 5.64234C19.2062 4.38336 22.1781 3.68539 26.5616 3.32725C30.9769 2.9665 36.5801 2.96437 44.2698 2.96437L123.44 2.96437C131.129 2.96437 136.733 2.9665 141.148 3.32725C145.531 3.68539 148.503 4.38336 150.974 5.64234C155.597 7.99795 159.356 11.7567 161.712 16.3798C162.971 18.8507 163.669 21.8226 164.027 26.2061C164.388 30.6215 164.39 36.2246 164.39 43.9144Z" stroke="#FFD600" stroke-opacity="0.5" stroke-width="5.46"/>
<path d="M48.3652 122.403L48.3652 44.5977L126.17 44.5977L126.17 122.403L48.3652 122.403Z" fill="#FFD600"/>
<path d="M100.497 104.879C102.145 107.555 103.937 110.135 107.759 110.135C110.96 110.135 112.632 108.534 112.632 106.36C112.632 103.733 110.888 102.801 107.376 101.272L105.442 100.46C99.8758 98.0954 96.1732 95.1334 96.1732 88.8987C96.1732 83.1418 100.569 78.7704 107.472 78.7704C112.369 78.7704 115.904 80.4664 118.436 84.9095L112.441 88.7554C111.127 86.3905 109.694 85.4589 107.472 85.4589C105.25 85.4589 103.769 86.8922 103.769 88.7554C103.769 91.0486 105.203 91.9802 108.499 93.4135L110.434 94.2256C117.003 97.0205 120.682 99.8631 120.682 106.289C120.682 113.192 115.235 116.99 107.902 116.99C100.569 116.99 96.6748 113.383 94.4055 108.94L100.473 104.903L100.497 104.879ZM72.8113 105.071C74.0295 107.244 75.845 108.893 78.4965 108.893C81.148 108.893 82.4857 107.889 82.4857 104.02L82.4857 78.7227H90.4402L90.4402 105.238C90.4402 113.288 85.7822 116.943 78.9503 116.943C72.7874 116.943 68.3443 112.762 66.5527 108.893L72.8113 105.071Z" fill="#000001"/>
<defs>
<linearGradient id="paint0_linear_1390_23339" x1="75.5974" y1="7.08499" x2="128.023" y2="165.77" gradientUnits="userSpaceOnUse">
<stop stop-color="white"/>
<stop offset="1" stop-color="#D7D7D7"/>
</linearGradient>
<linearGradient id="paint1_linear_1390_23339" x1="75.2203" y1="0.764568" x2="135.804" y2="170.288" gradientUnits="userSpaceOnUse">
<stop stop-color="#322D37"/>
<stop offset="1" stop-color="#18151B"/>
</linearGradient>
</defs>
</svg>
