<svg width="167" height="167" viewBox="0 0 167 167" fill="none" xmlns="http://www.w3.org/2000/svg">
<path d="M0.181641 43.9144C0.181641 28.6249 0.181641 20.9802 3.15716 15.1404C5.7745 10.0036 9.95087 5.82724 15.0877 3.2099C20.9275 0.234375 28.5722 0.234375 43.8616 0.234375L123.031 0.234375C138.321 0.234375 145.966 0.234375 151.805 3.2099C156.942 5.82724 161.119 10.0036 163.736 15.1404C166.711 20.9802 166.711 28.6249 166.711 43.9144L166.711 123.084C166.711 138.374 166.711 146.019 163.736 151.858C161.119 156.995 156.942 161.172 151.805 163.789C145.966 166.764 138.321 166.764 123.031 166.764L43.8616 166.764C28.5722 166.764 20.9275 166.764 15.0877 163.789C9.95087 161.172 5.7745 156.995 3.15716 151.858C0.181641 146.019 0.181641 138.374 0.181641 123.084L0.181641 43.9144Z" fill="url(#paint0_linear_1390_23230)"/>
<path d="M0.181641 43.9144C0.181641 28.6249 0.181641 20.9802 3.15716 15.1404C5.7745 10.0036 9.95087 5.82724 15.0877 3.2099C20.9275 0.234375 28.5722 0.234375 43.8616 0.234375L123.031 0.234375C138.321 0.234375 145.966 0.234375 151.805 3.2099C156.942 5.82724 161.119 10.0036 163.736 15.1404C166.711 20.9802 166.711 28.6249 166.711 43.9144L166.711 123.084C166.711 138.374 166.711 146.019 163.736 151.858C161.119 156.995 156.942 161.172 151.805 163.789C145.966 166.764 138.321 166.764 123.031 166.764L43.8616 166.764C28.5722 166.764 20.9275 166.764 15.0877 163.789C9.95087 161.172 5.7745 156.995 3.15716 151.858C0.181641 146.019 0.181641 138.374 0.181641 123.084L0.181641 43.9144Z" fill="url(#paint1_linear_1390_23230)"/>
<path d="M163.981 43.9144L163.981 123.084C163.981 130.774 163.979 136.377 163.619 140.793C163.26 145.176 162.562 148.148 161.304 150.619C158.948 155.242 155.189 159.001 150.566 161.356C148.095 162.615 145.123 163.313 140.74 163.672C136.324 164.032 130.721 164.034 123.031 164.034L43.8616 164.034C36.1719 164.034 30.5687 164.032 26.1534 163.672C21.7698 163.313 18.798 162.615 16.3271 161.356C11.7039 159.001 7.94522 155.242 5.58961 150.619C4.33062 148.148 3.63266 145.176 3.27451 140.793C2.91376 136.377 2.91164 130.774 2.91164 123.084L2.91164 43.9144C2.91164 36.2246 2.91376 30.6215 3.27451 26.2061C3.63266 21.8226 4.33062 18.8507 5.58961 16.3798C7.94522 11.7567 11.7039 7.99795 16.3271 5.64234C18.798 4.38336 21.7698 3.68539 26.1534 3.32725C30.5687 2.9665 36.1719 2.96437 43.8616 2.96437L123.031 2.96437C130.721 2.96437 136.324 2.9665 140.74 3.32725C145.123 3.68539 148.095 4.38336 150.566 5.64234C155.189 7.99795 158.948 11.7567 161.304 16.3798C162.562 18.8507 163.26 21.8226 163.619 26.2061C163.979 30.6215 163.981 36.2246 163.981 43.9144Z" stroke="#4E7896" stroke-opacity="0.5" stroke-width="5.46"/>
<path d="M68.7418 108.625C68.7418 108.625 64.408 111.264 71.758 112.015C80.6143 113.144 85.3219 112.959 95.1219 111.071C95.1219 111.071 97.7607 112.766 101.339 114.087C79.2967 123.506 51.4103 113.521 68.7454 108.625H68.7418ZM65.9143 96.3785C65.9143 96.3785 61.203 99.9573 68.553 100.712C78.1607 101.656 85.6994 101.841 98.6971 99.206C98.6971 99.206 100.392 101.09 103.22 102.033C76.6544 109.946 46.8842 102.788 65.9143 96.3822V96.3785ZM117.916 117.859C117.916 117.859 121.117 120.497 114.337 122.57C101.713 126.338 61.3954 127.47 50.0891 122.57C46.1328 120.875 53.6679 118.425 56.1179 118.047C58.5679 117.481 59.8855 117.481 59.8855 117.481C55.5517 114.465 31.059 123.699 47.4504 126.338C92.4795 133.684 129.596 123.136 117.916 117.859ZM70.8143 83.5695C70.8143 83.5695 50.2779 88.4696 63.4679 90.1646C69.1193 90.9196 80.2368 90.7308 90.5994 89.9759C99.0782 89.2209 107.557 87.7146 107.557 87.7146C107.557 87.7146 104.541 89.0321 102.468 90.3533C81.5544 95.8159 41.4252 93.3696 52.9166 87.7146C62.713 83.0033 70.8143 83.5695 70.8143 83.5695ZM107.553 104.106C128.656 93.1772 118.86 82.6258 112.076 83.947C110.381 84.3245 109.626 84.702 109.626 84.702C109.626 84.702 110.192 83.5732 111.51 83.1957C124.888 78.4844 135.436 97.3259 107.176 104.676C107.176 104.676 107.365 104.487 107.553 104.11V104.106ZM72.8868 133.876C93.2345 135.194 124.322 133.121 125.077 123.514C125.077 123.514 123.571 127.281 108.308 130.109C90.9733 133.31 69.4967 132.936 56.8729 130.864C56.8729 130.864 59.5116 133.125 72.8868 133.88V133.876Z" fill="#4E7896"/>
<path d="M94.7419 21.3906C94.7419 21.3906 106.422 33.2595 83.6243 51.1609C65.3491 65.6685 79.4793 73.9586 83.6243 83.3775C72.8842 73.7698 65.1604 65.291 70.4342 57.3784C78.1617 45.6946 99.4531 40.0433 94.7419 21.3906ZM88.713 75.4649C94.1756 81.6824 87.2067 87.3338 87.2067 87.3338C87.2067 87.3338 101.148 80.1725 94.7419 71.3198C88.9018 62.841 84.3793 58.696 108.872 44.5658C108.872 44.5658 70.2491 54.1735 88.713 75.4649Z" fill="#F58219"/>
<defs>
<linearGradient id="paint0_linear_1390_23230" x1="75.1892" y1="7.08499" x2="127.615" y2="165.77" gradientUnits="userSpaceOnUse">
<stop stop-color="white"/>
<stop offset="1" stop-color="#D7D7D7"/>
</linearGradient>
<linearGradient id="paint1_linear_1390_23230" x1="74.8121" y1="0.764568" x2="135.396" y2="170.288" gradientUnits="userSpaceOnUse">
<stop stop-color="#322D37"/>
<stop offset="1" stop-color="#18151B"/>
</linearGradient>
</defs>
</svg>
