<svg width="168" height="167" viewBox="0 0 168 167" fill="none" xmlns="http://www.w3.org/2000/svg">
<path d="M0.600586 43.9144C0.600586 28.6249 0.600586 20.9802 3.57611 15.1404C6.19345 10.0036 10.3698 5.82724 15.5066 3.2099C21.3464 0.234375 28.9911 0.234375 44.2806 0.234375L123.45 0.234375C138.74 0.234375 146.385 0.234375 152.224 3.2099C157.361 5.82724 161.538 10.0036 164.155 15.1404C167.13 20.9802 167.13 28.6249 167.13 43.9144L167.13 123.084C167.13 138.374 167.13 146.019 164.155 151.858C161.538 156.995 157.361 161.172 152.224 163.789C146.385 166.764 138.74 166.764 123.45 166.764L44.2806 166.764C28.9911 166.764 21.3464 166.764 15.5066 163.789C10.3698 161.172 6.19345 156.995 3.57611 151.858C0.600586 146.019 0.600586 138.374 0.600586 123.084L0.600586 43.9144Z" fill="url(#paint0_linear_1390_23418)"/>
<path d="M0.600586 43.9144C0.600586 28.6249 0.600586 20.9802 3.57611 15.1404C6.19345 10.0036 10.3698 5.82724 15.5066 3.2099C21.3464 0.234375 28.9911 0.234375 44.2806 0.234375L123.45 0.234375C138.74 0.234375 146.385 0.234375 152.224 3.2099C157.361 5.82724 161.538 10.0036 164.155 15.1404C167.13 20.9802 167.13 28.6249 167.13 43.9144L167.13 123.084C167.13 138.374 167.13 146.019 164.155 151.858C161.538 156.995 157.361 161.172 152.224 163.789C146.385 166.764 138.74 166.764 123.45 166.764L44.2806 166.764C28.9911 166.764 21.3464 166.764 15.5066 163.789C10.3698 161.172 6.19345 156.995 3.57611 151.858C0.600586 146.019 0.600586 138.374 0.600586 123.084L0.600586 43.9144Z" fill="url(#paint1_linear_1390_23418)"/>
<path d="M164.4 43.9144L164.4 123.084C164.4 130.774 164.398 136.377 164.038 140.793C163.679 145.176 162.981 148.148 161.722 150.619C159.367 155.242 155.608 159.001 150.985 161.356C148.514 162.615 145.542 163.313 141.159 163.672C136.743 164.032 131.14 164.034 123.45 164.034L44.2806 164.034C36.5908 164.034 30.9877 164.032 26.5723 163.672C22.1888 163.313 19.2169 162.615 16.746 161.356C12.1229 159.001 8.36416 155.242 6.00855 150.619C4.74957 148.148 4.0516 145.176 3.69346 140.793C3.33271 136.377 3.33058 130.774 3.33058 123.084L3.33058 43.9144C3.33058 36.2246 3.33271 30.6215 3.69346 26.2061C4.0516 21.8226 4.74957 18.8507 6.00855 16.3798C8.36416 11.7567 12.1229 7.99795 16.746 5.64234C19.2169 4.38336 22.1888 3.68539 26.5723 3.32725C30.9877 2.9665 36.5908 2.96437 44.2806 2.96437L123.45 2.96437C131.14 2.96437 136.743 2.9665 141.159 3.32725C145.542 3.68539 148.514 4.38336 150.985 5.64234C155.608 7.99795 159.367 11.7567 161.722 16.3798C162.981 18.8507 163.679 21.8226 164.038 26.2061C164.398 30.6215 164.4 36.2246 164.4 43.9144Z" stroke="#486BB3" stroke-opacity="0.5" stroke-width="5.46"/>
<path d="M77.8653 76.5646C78.1521 76.7739 78.5009 76.8979 78.8808 76.8979C79.8109 76.8979 80.5705 76.1615 80.6093 75.2469L80.6481 75.2236L81.2294 64.9453C80.5318 65.0306 79.8342 65.1468 79.1365 65.3019C75.3151 66.17 72.0053 68.0536 69.4164 70.5961L77.8421 76.5724C77.8421 76.5724 77.8653 76.5724 77.8653 76.5646ZM76.7414 91.6255C76.5398 90.7186 75.6562 90.145 74.7415 90.3155L74.726 90.2923L64.6105 92.0053C66.1298 96.2065 68.99 99.7877 72.7572 102.198L76.6794 92.7262L76.6484 92.6874C76.7801 92.3619 76.8266 91.9976 76.7414 91.6255ZM73.3773 84.3315C73.7184 84.2384 74.0362 84.0369 74.2764 83.7424C74.8578 83.0137 74.757 81.9673 74.0594 81.3627L74.0594 81.3239L66.3701 74.4407C64.0214 78.2621 63.0137 82.7579 63.5021 87.215L73.3695 84.3702C73.3695 84.3702 73.3695 84.3315 73.3773 84.3315ZM80.8496 87.3545L83.6866 88.7187L86.5236 87.3622L87.2212 84.3005L85.2601 81.851H82.1131L80.1442 84.3005L80.8496 87.3545ZM86.7406 75.2081C86.7561 75.5647 86.8801 75.9135 87.1204 76.208C87.7018 76.9367 88.7482 77.0684 89.4924 76.5258L89.5234 76.5413L97.8948 70.6038C94.7323 67.511 90.6085 65.4879 86.1515 64.9453L86.7329 75.2081H86.7406ZM92.6162 90.269C92.4844 90.2457 92.3526 90.2302 92.2208 90.238C91.996 90.2457 91.7713 90.3078 91.562 90.4085C90.7248 90.8116 90.3605 91.796 90.7248 92.6487L90.7093 92.6642L94.6703 102.229C98.4917 99.7954 101.344 96.16 102.84 91.9666L92.6394 90.238L92.6162 90.269ZM85.2059 95.3384C84.8881 94.7648 84.2834 94.4082 83.6246 94.4315C83.0277 94.4547 82.4619 94.788 82.1596 95.3461L77.1832 104.338C80.7488 105.547 84.578 105.748 88.2444 104.904C88.9265 104.749 89.5931 104.563 90.2365 104.345L85.2524 95.3306H85.2136L85.2059 95.3384Z" fill="#486BB3"/>
<path d="M130.616 93.3746L122.524 58.2377C122.098 56.3929 120.85 54.8426 119.137 54.0287L86.3948 38.3864C85.4492 37.9369 84.4027 37.7276 83.3563 37.7818C82.5269 37.8206 81.7053 38.0299 80.9534 38.3864L48.2117 54.0287C46.5064 54.8426 45.2584 56.3929 44.8243 58.2377L36.7552 93.3823C36.3754 95.0179 36.6854 96.7387 37.6078 98.1417C37.7163 98.3122 37.8404 98.475 37.9644 98.6378L60.6293 126.814C61.823 128.294 63.6291 129.155 65.5282 129.147L101.874 129.147C103.781 129.139 105.579 128.279 106.773 126.806L129.43 98.6223C130.609 97.1417 131.043 95.2117 130.616 93.3746ZM118.16 92.9483C117.92 93.9947 116.796 94.6303 115.633 94.3823C115.625 94.3823 115.61 94.3823 115.602 94.3745C115.586 94.3745 115.579 94.3668 115.563 94.359C115.4 94.3203 115.199 94.2892 115.059 94.2505C114.393 94.0722 113.904 93.8009 113.3 93.5684C112.005 93.1033 110.928 92.7157 109.881 92.5607C109.347 92.5219 109.075 92.77 108.781 92.9638C108.641 92.9328 108.199 92.8552 107.944 92.8165C106.068 98.7153 102.068 103.831 96.6499 107.025C96.7429 107.25 96.9057 107.73 96.9754 107.815C96.8514 108.149 96.6654 108.459 96.8281 108.97C97.208 109.955 97.8203 110.924 98.5645 112.079C98.921 112.613 99.2931 113.024 99.6186 113.644C99.6962 113.792 99.7969 114.016 99.8744 114.171C100.378 115.249 100.006 116.489 99.0373 116.954C98.0606 117.427 96.8514 116.931 96.3243 115.846C96.2468 115.691 96.146 115.489 96.084 115.342C95.805 114.706 95.712 114.164 95.5182 113.544C95.0763 112.241 94.7043 111.164 94.1772 110.249C93.8749 109.807 93.5106 109.753 93.1773 109.645C93.1153 109.536 92.8827 109.11 92.7587 108.893C91.6735 109.304 90.5573 109.645 89.3946 109.908C84.3097 111.063 79.2171 110.598 74.6748 108.846L74.233 109.652C73.8996 109.738 73.5818 109.831 73.3881 110.063C72.6749 110.916 72.3881 112.28 71.8688 113.582C71.675 114.195 71.582 114.745 71.3029 115.381C71.2409 115.528 71.1324 115.73 71.0627 115.877V115.892C70.5433 116.97 69.3341 117.466 68.3574 117.001C67.3885 116.536 67.0242 115.295 67.5203 114.218C67.5978 114.063 67.6908 113.838 67.7683 113.691C68.0939 113.079 68.4582 112.66 68.8225 112.125C69.5666 110.962 70.2178 109.924 70.5976 108.939C70.6906 108.614 70.5511 108.164 70.427 107.831L70.7836 106.978C65.5669 103.885 61.451 98.9633 59.4821 92.863L58.6295 93.0103C58.3969 92.8785 57.9396 92.5762 57.5055 92.615C56.4591 92.77 55.3817 93.1575 54.0872 93.6226C53.4826 93.8552 53.002 94.1187 52.3276 94.297C52.1881 94.3358 51.9866 94.3745 51.8238 94.4133C51.8083 94.4133 51.8005 94.421 51.785 94.4288C51.7773 94.4288 51.7618 94.4288 51.754 94.4365C50.5913 94.6846 49.4674 94.049 49.2271 93.0025C48.9868 91.9561 49.7309 90.8941 50.8859 90.6151C50.8936 90.6151 50.9091 90.6074 50.9169 90.6074C50.9246 90.6074 50.9246 90.6074 50.9324 90.5996C51.0952 90.5608 51.3045 90.5066 51.4595 90.4756C52.1416 90.3438 52.6997 90.3748 53.3431 90.3283C54.7151 90.181 55.8467 90.0648 56.8544 89.747C57.1722 89.6152 57.4823 89.1733 57.6993 88.8943L58.521 88.654C57.5986 82.2824 59.1566 76.0348 62.5207 70.9732L61.8928 70.4151C61.854 70.167 61.7998 69.6089 61.4975 69.2834C60.7301 68.5625 59.7534 67.9579 58.583 67.237C58.0249 66.9114 57.5133 66.7022 56.9552 66.2836C56.8389 66.1983 56.6761 66.0588 56.5521 65.958C56.5444 65.958 56.5289 65.9425 56.5211 65.9348C55.5832 65.1829 55.3662 63.8884 56.0405 63.0435C56.4203 62.5707 57.0017 62.3304 57.5986 62.3536C58.0636 62.3692 58.552 62.5397 58.9628 62.8652C59.0946 62.9738 59.2806 63.1133 59.3969 63.2141C59.924 63.6636 60.2418 64.1132 60.6836 64.586C61.6525 65.5705 62.4509 66.3844 63.3268 66.9735C63.7841 67.2448 64.1407 67.1362 64.4895 67.0897C64.6058 67.175 64.9778 67.4463 65.1949 67.5936C68.528 64.0512 72.9152 61.4312 78.0001 60.2763C79.1861 60.005 80.3643 59.8267 81.5425 59.7337L81.589 58.9043C81.8525 58.6485 82.1393 58.2919 82.2246 57.8889C82.3099 56.8347 82.1703 55.703 82.0076 54.331C81.9145 53.6954 81.7673 53.1605 81.7363 52.4707C81.7363 52.3311 81.7363 52.1296 81.7363 51.9668C81.7363 51.9513 81.7363 51.9281 81.7363 51.9126C81.7363 50.7111 82.6122 49.7344 83.6974 49.7344C84.7825 49.7344 85.6585 50.7111 85.6585 51.9126C85.6585 52.0831 85.6662 52.3156 85.6662 52.4707C85.6429 53.1605 85.4879 53.6954 85.3949 54.331C85.2321 55.6952 85.0849 56.8347 85.1701 57.8889C85.2476 58.416 85.5577 58.6252 85.8135 58.8655C85.8212 59.0051 85.8445 59.4779 85.86 59.7414C92.0921 60.2918 97.8746 63.1443 102.13 67.6013L102.874 67.0665C103.13 67.082 103.68 67.1595 104.06 66.9347C104.936 66.3456 105.734 65.524 106.703 64.5473C107.145 64.0745 107.471 63.6326 107.998 63.1753C108.114 63.0745 108.3 62.935 108.432 62.8265C109.37 62.0746 110.68 62.1599 111.354 63.0048C112.029 63.8497 111.812 65.1441 110.874 65.896C110.742 66.0045 110.571 66.1518 110.44 66.2448C109.881 66.6557 109.37 66.8649 108.812 67.1982C107.641 67.9191 106.665 68.5237 105.897 69.2446C105.533 69.6322 105.564 70.0042 105.525 70.3531C105.417 70.4538 105.037 70.7949 104.828 70.9732C106.564 73.5544 107.804 76.4301 108.502 79.4609C109.215 82.5537 109.323 85.6387 108.913 88.6075L109.703 88.84C109.843 89.0416 110.137 89.5299 110.548 89.6927C111.556 90.0105 112.687 90.1268 114.059 90.274C114.703 90.3283 115.261 90.2973 115.943 90.4213C116.106 90.4523 116.346 90.5143 116.509 90.5531C117.672 90.8399 118.408 91.9018 118.168 92.9483H118.16Z" fill="#486BB3"/>
<path d="M100.955 74.4375L93.297 81.2897V81.313C93.0412 81.5455 92.8397 81.8555 92.7544 82.2276C92.5451 83.1345 93.0954 84.0337 93.9791 84.2817V84.3205L103.901 87.173C104.11 85.0336 103.986 82.8167 103.475 80.5998C102.963 78.3597 102.103 76.2901 100.955 74.4375Z" fill="#486BB3"/>
<defs>
<linearGradient id="paint0_linear_1390_23418" x1="75.6082" y1="7.08499" x2="128.034" y2="165.77" gradientUnits="userSpaceOnUse">
<stop stop-color="white"/>
<stop offset="1" stop-color="#D7D7D7"/>
</linearGradient>
<linearGradient id="paint1_linear_1390_23418" x1="75.2311" y1="0.764568" x2="135.815" y2="170.288" gradientUnits="userSpaceOnUse">
<stop stop-color="#322D37"/>
<stop offset="1" stop-color="#18151B"/>
</linearGradient>
</defs>
</svg>
