<svg width="167" height="167" viewBox="0 0 167 167" fill="none" xmlns="http://www.w3.org/2000/svg">
<path d="M0.0703125 43.68C0.0703125 28.3906 0.0703125 20.7458 3.04583 14.9061C5.66318 9.76923 9.83954 5.59286 14.9764 2.97552C20.8162 0 28.4609 0 43.7503 0H122.92C138.21 0 145.854 0 151.694 2.97552C156.831 5.59286 161.007 9.76923 163.625 14.9061C166.6 20.7458 166.6 28.3906 166.6 43.68V122.85C166.6 138.139 166.6 145.784 163.625 151.624C161.007 156.761 156.831 160.937 151.694 163.554C145.854 166.53 138.21 166.53 122.92 166.53H43.7503C28.4609 166.53 20.8162 166.53 14.9764 163.554C9.83954 160.937 5.66318 156.761 3.04583 151.624C0.0703125 145.784 0.0703125 138.139 0.0703125 122.85V43.68Z" fill="url(#paint0_linear_16415_381)"/>
<path d="M43.75 0.5H122.92C130.573 0.5 136.282 0.500265 140.81 0.870117C145.331 1.23952 148.629 1.97511 151.467 3.4209C156.51 5.99026 160.61 10.0901 163.18 15.1328C164.625 17.9704 165.36 21.2687 165.729 25.79C166.099 30.3172 166.1 36.0269 166.1 43.6797V122.85C166.1 130.502 166.099 136.212 165.729 140.739C165.36 145.26 164.625 148.559 163.18 151.396C160.61 156.439 156.51 160.539 151.467 163.108C148.629 164.554 145.331 165.29 140.81 165.659C136.282 166.029 130.573 166.03 122.92 166.03H43.75C36.0972 166.03 30.3875 166.029 25.8604 165.659C21.339 165.29 18.0408 164.554 15.2031 163.108C10.1606 160.539 6.06059 156.44 3.49121 151.397C2.04535 148.56 1.30984 145.261 0.94043 140.739C0.570573 136.212 0.570312 130.502 0.570312 122.85V43.6797C0.570313 36.0269 0.570544 30.3172 0.94043 25.79C1.30985 21.2687 2.04536 17.9704 3.49121 15.1328C6.0606 10.0902 10.1605 5.99028 15.2031 3.4209C18.0408 1.97505 21.339 1.23953 25.8604 0.870117C30.3875 0.500231 36.0972 0.5 43.75 0.5Z" stroke="white" stroke-opacity="0.5"/>
<path d="M0.0703125 43.68C0.0703125 28.3906 0.0703125 20.7458 3.04583 14.9061C5.66318 9.76923 9.83954 5.59286 14.9764 2.97552C20.8162 0 28.4609 0 43.7503 0H122.92C138.21 0 145.854 0 151.694 2.97552C156.831 5.59286 161.007 9.76923 163.625 14.9061C166.6 20.7458 166.6 28.3906 166.6 43.68V122.85C166.6 138.139 166.6 145.784 163.625 151.624C161.007 156.761 156.831 160.937 151.694 163.554C145.854 166.53 138.21 166.53 122.92 166.53H43.7503C28.4609 166.53 20.8162 166.53 14.9764 163.554C9.83954 160.937 5.66318 156.761 3.04583 151.624C0.0703125 145.784 0.0703125 138.139 0.0703125 122.85V43.68Z" fill="url(#paint1_linear_16415_381)"/>
<path d="M163.87 43.6844V122.854C163.87 130.544 163.868 136.147 163.507 140.562C163.149 144.946 162.451 147.918 161.192 150.389C158.837 155.012 155.078 158.77 150.455 161.126C147.984 162.385 145.012 163.083 140.628 163.441C136.213 163.802 130.61 163.804 122.92 163.804H43.7508C36.061 163.804 30.4579 163.802 26.0425 163.441C21.659 163.083 18.6872 162.385 16.2163 161.126C11.5931 158.77 7.83436 155.012 5.47875 150.389C4.21977 147.918 3.5218 144.946 3.16365 140.562C2.8029 136.147 2.80078 130.544 2.80078 122.854V43.6844C2.80078 35.9946 2.8029 30.3915 3.16365 25.9761C3.5218 21.5926 4.21977 18.6207 5.47875 16.1498C7.83436 11.5267 11.5931 7.76795 16.2163 5.41234C18.6872 4.15335 21.659 3.45539 26.0425 3.09724C30.4579 2.73649 36.061 2.73438 43.7508 2.73438H122.92C130.61 2.73438 136.213 2.73649 140.628 3.09724C145.012 3.45539 147.984 4.15335 150.455 5.41234C155.078 7.76795 158.837 11.5267 161.192 16.1498C162.451 18.6207 163.149 21.5926 163.507 25.9761C163.868 30.3915 163.87 35.9946 163.87 43.6844Z" stroke="white" stroke-opacity="0.5" stroke-width="5.46"/>
<path d="M79.452 42.7108C85.525 36.6381 95.4064 36.638 101.479 42.7108C105.099 46.3303 106.56 51.3015 105.866 56.0136C110.578 55.3195 115.549 56.7808 119.169 60.4003C125.243 66.4746 125.243 76.3566 119.17 82.4296L87.0917 114.508C86.5016 115.098 86.5016 116.06 87.0917 116.65L93.5399 123.099L93.6474 123.212C94.7348 124.416 94.6982 126.275 93.538 127.435C92.3402 128.633 90.3969 128.633 89.1991 127.435L82.7518 120.988C79.7686 118.005 79.7686 113.15 82.7518 110.167L114.83 78.0887C118.51 74.4087 118.51 68.4192 114.83 64.7391C111.15 61.0591 105.161 61.0577 101.479 64.7391L74.7929 91.4247C73.5951 92.6224 71.6527 92.6224 70.455 91.4247C69.2572 90.2269 69.2572 88.2836 70.455 87.0858L97.1405 60.4003C100.821 56.7202 100.821 50.7298 97.1405 47.0497C93.4605 43.3698 87.4723 43.3686 83.7909 47.0497L48.4716 82.369C47.2739 83.5667 45.3305 83.5666 44.1327 82.369C42.9349 81.1713 42.9349 79.2279 44.1327 78.0302L79.452 42.7108ZM88.4325 51.4208C89.6302 50.2231 91.5736 50.2233 92.7714 51.4208C93.9691 52.6186 93.9691 54.5619 92.7714 55.7596L66.5702 81.9608C62.8903 85.6409 62.8903 91.6314 66.5702 95.3114C70.2502 98.9914 76.2394 98.9926 79.9208 95.3114L106.122 69.1102C107.32 67.9125 109.263 67.9125 110.461 69.1102C111.659 70.308 111.659 72.2513 110.461 73.4491L84.2597 99.6503C78.1868 105.723 68.3053 105.723 62.2323 99.6503C56.1593 93.5773 56.1593 83.695 62.2323 77.622L88.4325 51.4208Z" fill="white"/>
<defs>
<linearGradient id="paint0_linear_16415_381" x1="75.0779" y1="6.85062" x2="127.504" y2="165.536" gradientUnits="userSpaceOnUse">
<stop stop-color="white"/>
<stop offset="1" stop-color="#D7D7D7"/>
</linearGradient>
<linearGradient id="paint1_linear_16415_381" x1="74.7008" y1="0.530192" x2="135.285" y2="170.053" gradientUnits="userSpaceOnUse">
<stop stop-color="#322D37"/>
<stop offset="1" stop-color="#18151B"/>
</linearGradient>
</defs>
</svg>
