<svg width="167" height="167" viewBox="0 0 167 167" fill="none" xmlns="http://www.w3.org/2000/svg">
<path d="M0 43.68C0 28.3906 0 20.7458 2.97552 14.9061C5.59286 9.76923 9.76923 5.59286 14.9061 2.97552C20.7458 0 28.3906 0 43.68 0L122.85 0C138.139 0 145.784 0 151.624 2.97552C156.761 5.59286 160.937 9.76923 163.554 14.9061C166.53 20.7458 166.53 28.3906 166.53 43.68L166.53 122.85C166.53 138.139 166.53 145.784 163.554 151.624C160.937 156.761 156.761 160.937 151.624 163.554C145.784 166.53 138.139 166.53 122.85 166.53L43.68 166.53C28.3906 166.53 20.7458 166.53 14.9061 163.554C9.76923 160.937 5.59286 156.761 2.97552 151.624C0 145.784 0 138.139 0 122.85L0 43.68Z" fill="url(#paint0_linear_16368_186)"/>
<path d="M0 43.68C0 28.3906 0 20.7458 2.97552 14.9061C5.59286 9.76923 9.76923 5.59286 14.9061 2.97552C20.7458 0 28.3906 0 43.68 0L122.85 0C138.139 0 145.784 0 151.624 2.97552C156.761 5.59286 160.937 9.76923 163.554 14.9061C166.53 20.7458 166.53 28.3906 166.53 43.68L166.53 122.85C166.53 138.139 166.53 145.784 163.554 151.624C160.937 156.761 156.761 160.937 151.624 163.554C145.784 166.53 138.139 166.53 122.85 166.53L43.68 166.53C28.3906 166.53 20.7458 166.53 14.9061 163.554C9.76923 160.937 5.59286 156.761 2.97552 151.624C0 145.784 0 138.139 0 122.85L0 43.68Z" fill="url(#paint1_linear_16368_186)"/>
<path d="M43.6797 2.73047L122.85 2.73047C130.539 2.73047 136.143 2.73202 140.559 3.09277C144.942 3.45093 147.914 4.14926 150.385 5.4082C155.008 7.76382 158.767 11.5225 161.122 16.1455C162.381 18.6164 163.078 21.5883 163.437 25.9717C163.797 30.387 163.8 35.9901 163.8 43.6797L163.8 122.85C163.8 130.539 163.797 136.143 163.437 140.559C163.078 144.942 162.381 147.914 161.122 150.385C158.767 155.008 155.008 158.766 150.385 161.122C147.914 162.381 144.942 163.079 140.559 163.437C136.143 163.798 130.539 163.8 122.85 163.8L43.6797 163.8C35.9901 163.8 30.387 163.798 25.9717 163.437C21.5882 163.079 18.6164 162.381 16.1455 161.122C11.5225 158.767 7.76382 155.008 5.4082 150.385C4.14925 147.914 3.45093 144.942 3.09277 140.559C2.73202 136.143 2.73047 130.539 2.73047 122.85L2.73047 43.6797C2.73047 35.9901 2.73203 30.387 3.09277 25.9717C3.45092 21.5882 4.14922 18.6164 5.4082 16.1455C7.7638 11.5224 11.5224 7.7638 16.1455 5.4082C18.6164 4.14922 21.5882 3.45092 25.9717 3.09277C30.387 2.73203 35.9901 2.73047 43.6797 2.73047Z" stroke="#EA4B71" stroke-opacity="0.5" stroke-width="5.46"/>
<path fill-rule="evenodd" clip-rule="evenodd" d="M123.402 78.3917C118.399 78.3917 114.195 74.9697 113.003 70.339H100.697C98.0727 70.339 95.8332 72.2363 95.4019 74.8248L94.9604 77.4728C94.5416 79.9865 93.2698 82.1742 91.4714 83.7601C93.2698 85.346 94.5416 87.5336 94.9604 90.0474L95.4019 92.6954C95.8332 95.2838 98.0727 97.1811 100.697 97.1811H102.266C103.458 92.5504 107.662 89.1285 112.665 89.1285C118.595 89.1285 123.402 93.9355 123.402 99.8653C123.402 105.795 118.595 110.602 112.665 110.602C107.662 110.602 103.458 107.18 102.266 102.55H100.697C95.4485 102.55 90.9694 98.755 90.1064 93.578L89.6649 90.93C89.2336 88.3416 86.9941 86.4443 84.3698 86.4443H80.1163C78.9245 91.075 74.7205 94.4969 69.7176 94.4969C64.7147 94.4969 60.5108 91.075 59.319 86.4443H53.2741C52.0824 91.075 47.8784 94.4969 42.8755 94.4969C36.9457 94.4969 32.1387 89.6899 32.1387 83.7601C32.1387 77.8302 36.9457 73.0232 42.8755 73.0232C47.8784 73.0232 52.0824 76.4452 53.2741 81.0759H59.319C60.5108 76.4452 64.7147 73.0232 69.7176 73.0232C74.7205 73.0232 78.9245 76.4452 80.1163 81.0759H84.3698C86.9941 81.0759 89.2336 79.1786 89.6649 76.5901L90.1064 73.9421C90.9694 68.7652 95.4485 64.9706 100.697 64.9706H113.003C114.195 60.3399 118.399 56.918 123.402 56.918C129.332 56.918 134.139 61.7249 134.139 67.6548C134.139 73.5847 129.332 78.3917 123.402 78.3917ZM123.402 73.0232C126.367 73.0232 128.77 70.6195 128.77 67.6548C128.77 64.6901 126.367 62.2864 123.402 62.2864C120.437 62.2864 118.033 64.6901 118.033 67.6548C118.033 70.6195 120.437 73.0232 123.402 73.0232ZM42.8755 89.1285C45.8402 89.1285 48.2439 86.7248 48.2439 83.7601C48.2439 80.7954 45.8402 78.3917 42.8755 78.3917C39.9106 78.3917 37.5071 80.7954 37.5071 83.7601C37.5071 86.7248 39.9106 89.1285 42.8755 89.1285ZM75.086 83.7601C75.086 86.7248 72.6823 89.1285 69.7176 89.1285C66.7529 89.1285 64.3492 86.7248 64.3492 83.7601C64.3492 80.7954 66.7529 78.3917 69.7176 78.3917C72.6823 78.3917 75.086 80.7954 75.086 83.7601ZM118.033 99.8653C118.033 102.83 115.63 105.234 112.665 105.234C109.7 105.234 107.297 102.83 107.297 99.8653C107.297 96.9006 109.7 94.4969 112.665 94.4969C115.63 94.4969 118.033 96.9006 118.033 99.8653Z" fill="#EA4B71"/>
<defs>
<linearGradient id="paint0_linear_16368_186" x1="75.0076" y1="6.85062" x2="127.434" y2="165.536" gradientUnits="userSpaceOnUse">
<stop stop-color="white"/>
<stop offset="1" stop-color="#D7D7D7"/>
</linearGradient>
<linearGradient id="paint1_linear_16368_186" x1="74.6305" y1="0.530193" x2="135.215" y2="170.053" gradientUnits="userSpaceOnUse">
<stop stop-color="#322D37"/>
<stop offset="1" stop-color="#18151B"/>
</linearGradient>
</defs>
</svg>
