<svg width="167" height="167" viewBox="0 0 167 167" fill="none" xmlns="http://www.w3.org/2000/svg">
<path d="M0.421875 43.68C0.421875 28.3906 0.421875 20.7458 3.3974 14.9061C6.01474 9.76923 10.1911 5.59286 15.3279 2.97552C21.1677 0 28.8124 0 44.1019 0L123.272 0C138.561 0 146.206 0 152.046 2.97552C157.182 5.59286 161.359 9.76923 163.976 14.9061C166.952 20.7458 166.952 28.3906 166.952 43.68L166.952 122.85C166.952 138.139 166.952 145.784 163.976 151.624C161.359 156.761 157.182 160.937 152.046 163.554C146.206 166.53 138.561 166.53 123.272 166.53L44.1019 166.53C28.8124 166.53 21.1677 166.53 15.3279 163.554C10.1911 160.937 6.01474 156.761 3.3974 151.624C0.421875 145.784 0.421875 138.139 0.421875 122.85L0.421875 43.68Z" fill="url(#paint0_linear_1390_23435)"/>
<path d="M0.421875 43.68C0.421875 28.3906 0.421875 20.7458 3.3974 14.9061C6.01474 9.76923 10.1911 5.59286 15.3279 2.97552C21.1677 0 28.8124 0 44.1019 0L123.272 0C138.561 0 146.206 0 152.046 2.97552C157.182 5.59286 161.359 9.76923 163.976 14.9061C166.952 20.7458 166.952 28.3906 166.952 43.68L166.952 122.85C166.952 138.139 166.952 145.784 163.976 151.624C161.359 156.761 157.182 160.937 152.046 163.554C146.206 166.53 138.561 166.53 123.272 166.53L44.1019 166.53C28.8124 166.53 21.1677 166.53 15.3279 163.554C10.1911 160.937 6.01474 156.761 3.3974 151.624C0.421875 145.784 0.421875 138.139 0.421875 122.85L0.421875 43.68Z" fill="url(#paint1_linear_1390_23435)"/>
<path d="M164.222 43.68L164.222 122.85C164.222 130.54 164.22 136.143 163.859 140.558C163.501 144.942 162.803 147.914 161.544 150.385C159.188 155.008 155.429 158.766 150.806 161.122C148.335 162.381 145.364 163.079 140.98 163.437C136.565 163.798 130.961 163.8 123.272 163.8L44.1019 163.8C36.4121 163.8 30.809 163.798 26.3936 163.437C22.0101 163.079 19.0382 162.381 16.5673 161.122C11.9442 158.766 8.18545 155.008 5.82984 150.385C4.57086 147.914 3.87289 144.942 3.51475 140.558C3.154 136.143 3.15187 130.54 3.15187 122.85L3.15187 43.68C3.15187 35.9902 3.154 30.3871 3.51475 25.9717C3.87289 21.5882 4.57086 18.6163 5.82984 16.1454C8.18545 11.5223 11.9442 7.76358 16.5673 5.40797C19.0382 4.14898 22.0101 3.45102 26.3936 3.09287C30.809 2.73212 36.4121 2.73 44.1019 2.73L123.272 2.73C130.961 2.73 136.565 2.73212 140.98 3.09287C145.364 3.45102 148.335 4.14898 150.806 5.40797C155.429 7.76358 159.188 11.5223 161.544 16.1454C162.803 18.6163 163.501 21.5882 163.859 25.9717C164.22 30.3871 164.222 35.9902 164.222 43.68Z" stroke="#E0234E" stroke-opacity="0.5" stroke-width="5.46"/>
<path fill-rule="evenodd" clip-rule="evenodd" d="M91.8828 36.8555C91.2089 36.8555 90.5833 37.0003 90.0059 37.1924C91.2335 38.0102 91.9064 39.0929 92.2434 40.3205C92.267 40.489 92.3153 40.6092 92.3399 40.7777C92.3636 40.9225 92.3882 41.0663 92.3882 41.2112C92.4847 43.3284 91.8345 43.5934 91.3773 44.8447C90.6798 46.4565 90.8719 48.1895 91.7143 49.5846C91.7862 49.7531 91.8828 49.9452 92.003 50.1137C91.0887 44.0259 96.1655 43.1117 97.1045 41.2102C97.1764 39.5501 95.8049 38.4427 94.7222 37.6732C93.6877 37.0476 92.7488 36.8555 91.8828 36.8555ZM99.535 38.2269C99.4385 38.7806 99.5114 38.6358 99.4867 38.9244C99.4631 39.1166 99.4631 39.3579 99.4385 39.5501C99.3902 39.7422 99.3419 39.9353 99.27 40.1274C99.2217 40.3195 99.1498 40.5126 99.0779 40.7047C98.9813 40.8969 98.9094 41.0653 98.8128 41.2584C98.7409 41.355 98.6926 41.4506 98.6207 41.5471C98.5724 41.619 98.5242 41.6919 98.4759 41.7639C98.3557 41.9323 98.2355 42.1008 98.1153 42.2447C97.9705 42.3895 97.8503 42.557 97.6818 42.6782V42.7018C97.537 42.822 97.3931 42.9668 97.2247 43.087C96.7192 43.4722 96.1419 43.7609 95.6128 44.1215C95.4444 44.2417 95.2759 44.3383 95.132 44.4821C94.9636 44.6023 94.8187 44.7225 94.6749 44.8673C94.5064 45.0122 94.3862 45.156 94.2414 45.3245C94.1212 45.4693 93.9764 45.6368 93.8808 45.8053C93.7606 45.9737 93.6404 46.1422 93.5439 46.3107C93.4473 46.5028 93.3754 46.6713 93.2788 46.8644C93.2069 47.0565 93.134 47.225 93.0867 47.4181C93.0148 47.6348 92.9665 47.8269 92.9182 48.0201C92.8946 48.1166 92.8946 48.2368 92.87 48.3324C92.8463 48.4289 92.8463 48.5245 92.8217 48.621C92.8217 48.8132 92.798 49.0299 92.798 49.223C92.798 49.3678 92.798 49.5117 92.8217 49.6565C92.8217 49.8486 92.8453 50.0417 92.8936 50.2585C92.9173 50.4506 92.9655 50.6437 93.0138 50.8358C93.0857 51.0279 93.134 51.2211 93.2059 51.4132C93.2542 51.5334 93.3261 51.6536 93.3744 51.7501L87.8404 49.6082C86.9015 49.3432 85.9872 49.1028 85.0492 48.8861C84.5438 48.7659 84.0384 48.6457 83.533 48.5255C82.0896 48.2368 80.6216 48.0201 79.1537 47.8762C79.1054 47.8762 79.0817 47.8526 79.0335 47.8526C77.5901 47.7077 76.1704 47.6358 74.7261 47.6358C73.6669 47.6358 72.6088 47.6841 71.5743 47.756C70.1063 47.8526 68.6383 48.0447 67.1713 48.2851C66.8108 48.3334 66.4492 48.4053 66.0886 48.4772C65.3428 48.622 64.6206 48.7895 63.9231 48.958C63.5625 49.0545 63.2009 49.1501 62.8403 49.2467C62.4797 49.3915 62.1428 49.56 61.8058 49.7038C61.5408 49.824 61.2767 49.9442 61.0117 50.0644C60.9634 50.088 60.9152 50.088 60.8915 50.1127C60.6511 50.2329 60.4344 50.3294 60.2176 50.4496C60.1457 50.4733 60.0974 50.4979 60.0492 50.5215C59.7841 50.6417 59.5201 50.7866 59.3033 50.9068C59.1349 50.9787 58.9664 51.0752 58.8225 51.1472C58.7506 51.1954 58.6541 51.2437 58.6058 51.2674C58.3891 51.3876 58.1723 51.5078 57.9802 51.628C57.7634 51.7481 57.5713 51.8683 57.4028 51.9885C57.2344 52.1087 57.0659 52.2053 56.9221 52.3255C56.8984 52.3491 56.8738 52.3491 56.8501 52.3738C56.7053 52.4703 56.5378 52.5905 56.393 52.7107C56.393 52.7107 56.3693 52.7344 56.3447 52.759C56.2245 52.8555 56.1043 52.9511 55.9841 53.0477C55.9358 53.0713 55.8876 53.1196 55.8393 53.1442C55.7191 53.2408 55.5989 53.361 55.4787 53.4575C55.4551 53.5058 55.4068 53.5294 55.3821 53.5541C55.2373 53.6989 55.0935 53.8191 54.9486 53.9629C54.925 53.9629 54.925 53.9866 54.9004 54.0112C54.7555 54.1314 54.6117 54.2762 54.4669 54.4201C54.4432 54.4437 54.4432 54.4684 54.4186 54.4684C54.2984 54.5886 54.1782 54.7088 54.058 54.8536C54.0097 54.9019 53.9378 54.9501 53.8895 54.9984C53.7693 55.1432 53.6245 55.2871 53.4807 55.4319C53.457 55.4802 53.4087 55.5038 53.3841 55.5521C53.192 55.7442 53.0235 55.9373 52.8304 56.1294C52.8068 56.1531 52.7821 56.1777 52.7585 56.2014C52.3733 56.6102 51.9644 57.0191 51.5309 57.3807C51.0974 57.7659 50.6403 58.1265 50.1831 58.4398C49.7023 58.7768 49.2452 59.0654 48.7398 59.3541C48.259 59.6191 47.7535 59.8595 47.2235 60.0763C46.7181 60.293 46.189 60.4851 45.659 60.6536C44.6481 60.8704 43.6136 61.2792 42.723 61.3511C42.5309 61.3511 42.3141 61.3994 42.121 61.4231C41.9043 61.4713 41.7121 61.5196 41.519 61.5679C41.3269 61.6398 41.1338 61.7127 40.9417 61.7846C40.7496 61.8566 40.5565 61.9531 40.3644 62.0497C40.1959 62.1699 40.0038 62.2664 39.8353 62.3866C39.6668 62.5068 39.4983 62.6516 39.3545 62.7955C39.186 62.9157 39.0176 63.0842 38.8737 63.229C38.7289 63.3975 38.585 63.5423 38.4648 63.7098C38.3446 63.9019 38.1998 64.0704 38.1042 64.2635C37.984 64.4319 37.8639 64.6241 37.7673 64.8172C37.6707 65.0339 37.5752 65.226 37.5023 65.4428C37.4304 65.6349 37.3574 65.8517 37.2855 66.0684C37.2372 66.2605 37.189 66.4536 37.1653 66.6458C37.1653 66.6694 37.1417 66.694 37.1417 66.7177C37.0934 66.9344 37.0934 67.2231 37.0698 67.3669C37.0461 67.5354 37.0215 67.6793 37.0215 67.8477C37.0215 67.9443 37.0215 68.0645 37.0451 68.16C37.0688 68.3285 37.0934 68.4733 37.1417 68.6172C37.19 68.762 37.2382 68.9059 37.3102 69.0507V69.0743C37.3821 69.2192 37.4786 69.363 37.5752 69.5078C37.6717 69.6527 37.7673 69.7965 37.8885 69.9413C38.0087 70.0615 38.1535 70.2064 38.2974 70.3266C38.4422 70.4714 38.586 70.5916 38.7545 70.7118C39.3318 71.2172 39.4767 71.3857 40.2225 71.7709C40.3427 71.8428 40.4629 71.8911 40.6077 71.963C40.6313 71.963 40.656 71.9867 40.6796 71.9867C40.6796 72.0349 40.6796 72.0586 40.7033 72.1069C40.7269 72.299 40.7752 72.4921 40.8235 72.6842C40.8717 72.901 40.9437 73.0931 41.0156 73.2615C41.0875 73.4064 41.1358 73.5502 41.2077 73.695C41.2314 73.7433 41.256 73.7916 41.2796 73.8152C41.3762 74.0074 41.4717 74.1758 41.5683 74.3443C41.6885 74.5128 41.8087 74.6813 41.9289 74.8497C42.0491 74.9946 42.1939 75.162 42.3378 75.3069C42.4826 75.4517 42.6264 75.5719 42.7949 75.7157C42.7949 75.7157 42.8185 75.7394 42.8432 75.7394C42.988 75.8596 43.1319 75.9798 43.2767 76.0763C43.4452 76.1965 43.6136 76.2931 43.8057 76.3896C43.9742 76.4862 44.1663 76.5818 44.3594 76.6547C44.5043 76.7266 44.6718 76.7749 44.8402 76.8231C44.8639 76.8468 44.8885 76.8468 44.9368 76.8714C45.0333 76.8951 45.1535 76.9197 45.2491 76.9433C45.1772 78.2429 45.1525 79.4695 45.3457 79.903C45.5624 80.3837 46.6205 78.9167 47.6797 77.232C47.5348 78.8921 47.4393 80.8409 47.6797 81.4192C47.9447 82.0212 49.388 80.1443 50.6393 78.0744C67.6994 74.1285 83.268 85.9187 84.9044 102.57C84.5911 99.971 81.3911 98.5277 79.9231 98.8883C79.2009 100.669 77.9743 102.955 76.0009 104.374C76.1694 102.786 76.0975 101.149 75.7605 99.5612C75.2315 101.775 74.196 103.844 72.7773 105.625C70.4916 105.794 68.2058 104.686 67.0019 103.026C66.9053 102.954 66.8817 102.809 66.8098 102.713C66.7378 102.544 66.6649 102.376 66.6177 102.207C66.5457 102.039 66.4975 101.871 66.4728 101.702C66.4492 101.534 66.4492 101.365 66.4492 101.173L66.4492 100.812C66.4728 100.644 66.5211 100.475 66.5694 100.307C66.6177 100.139 66.6659 99.97 66.7378 99.8016C66.8344 99.6331 66.9063 99.4646 67.0265 99.2962C67.4354 98.1415 67.4354 97.2025 66.6896 96.6488C66.5447 96.5523 66.4009 96.4804 66.2324 96.4085C66.1359 96.3848 66.0157 96.3365 65.9201 96.3119C65.8482 96.2883 65.7999 96.2636 65.728 96.24C65.5595 96.1917 65.391 96.1434 65.2226 96.1198C65.0541 96.0715 64.8856 96.0479 64.7172 96.0479C64.5487 96.0242 64.3566 95.9996 64.1881 95.9996C64.0679 95.9996 63.9477 96.0232 63.8275 96.0232C63.6354 96.0232 63.4669 96.0469 63.2984 96.0952C63.13 96.1188 62.9615 96.1434 62.793 96.1917C62.6245 96.24 62.4561 96.2883 62.2876 96.3602C62.1191 96.4321 61.9753 96.505 61.8068 96.5769C61.662 96.6488 61.5181 96.7454 61.3497 96.8173C55.7427 100.474 59.0876 109.041 62.9142 111.52C61.4708 111.785 60.0028 112.097 59.594 112.41C59.5703 112.434 59.5457 112.459 59.5457 112.459C60.5802 113.084 61.663 113.613 62.794 114.071C64.3339 114.576 65.9704 115.033 66.6925 115.225V115.249C68.6896 115.658 70.7113 115.803 72.7566 115.682C83.4157 114.937 92.1507 106.827 93.7389 96.1434C93.7872 96.3602 93.8355 96.5523 93.8838 96.769C93.9557 97.2025 94.0522 97.6597 94.1005 98.1168V98.1405C94.1488 98.3572 94.1724 98.574 94.1971 98.7661V98.8626C94.2207 99.0794 94.2453 99.2961 94.2453 99.4883C94.269 99.7533 94.2936 100.017 94.2936 100.282L94.2936 100.668C94.2936 100.788 94.3173 100.933 94.3173 101.053C94.3173 101.198 94.2936 101.341 94.2936 101.486L94.2936 101.823C94.2936 101.992 94.27 102.137 94.27 102.304C94.27 102.401 94.27 102.496 94.2463 102.617C94.2463 102.786 94.2227 102.954 94.2227 103.146C94.199 103.218 94.199 103.291 94.199 103.363C94.1754 103.555 94.1508 103.724 94.1271 103.917C94.1271 103.989 94.1271 104.062 94.1035 104.134C94.0798 104.374 94.0315 104.591 94.0069 104.831L94.0069 104.879C93.9586 105.096 93.9104 105.337 93.8621 105.553L93.8621 105.625C93.8138 105.842 93.7655 106.059 93.7173 106.275C93.7173 106.298 93.6936 106.346 93.6936 106.371C93.6453 106.588 93.5971 106.805 93.5251 107.02V107.092C93.4532 107.333 93.3803 107.549 93.333 107.766C93.3094 107.79 93.3094 107.814 93.3094 107.814C93.2375 108.055 93.1645 108.295 93.0926 108.537C92.9961 108.777 92.9242 108.994 92.8276 109.234C92.731 109.475 92.6591 109.715 92.5626 109.932C92.466 110.172 92.3705 110.389 92.2739 110.629H92.2503C92.1537 110.846 92.0581 111.086 91.937 111.303C91.9133 111.375 91.8887 111.423 91.865 111.472C91.8414 111.495 91.8414 111.52 91.8168 111.543C90.2532 114.695 87.9429 117.463 85.0552 119.628C84.863 119.748 84.6699 119.893 84.4778 120.037C84.4295 120.085 84.3576 120.109 84.3093 120.157C84.1409 120.278 83.9724 120.398 83.7803 120.518L83.8522 120.663H83.8758C84.2128 120.614 84.5497 120.566 84.8867 120.518H84.9103C85.5359 120.421 86.1616 120.301 86.7872 120.181C86.9557 120.157 87.1478 120.109 87.3162 120.061C87.4364 120.037 87.533 120.012 87.6532 119.989C87.8217 119.965 87.9901 119.917 88.1586 119.892C88.3034 119.844 88.4473 119.82 88.5921 119.772C90.998 119.195 93.332 118.401 95.5705 117.462C91.7448 122.683 86.6197 126.894 80.6276 129.662C83.3951 129.47 86.1616 129.013 88.8325 128.242C98.5301 125.379 106.687 118.858 111.572 110.076C110.585 115.634 108.371 120.928 105.099 125.547C107.433 124.008 109.574 122.227 111.523 120.206C116.913 114.575 120.45 107.428 121.653 99.7523C122.471 103.554 122.712 107.476 122.351 111.35C139.724 87.1197 123.794 61.9984 117.129 55.3817C117.106 55.3334 117.081 55.3097 117.081 55.2615C117.065 55.2772 117.057 55.2933 117.057 55.3097C117.057 55.294 117.049 55.2779 117.034 55.2615C117.034 55.5501 117.01 55.8388 116.985 56.1275C116.913 56.6812 116.84 57.2102 116.745 57.7393C116.625 58.2684 116.48 58.7984 116.336 59.3275C116.168 59.8329 115.975 60.362 115.759 60.8674C115.542 61.3482 115.302 61.8536 115.037 62.3354C114.772 62.7925 114.483 63.2743 114.171 63.7068C113.857 64.164 113.521 64.5975 113.184 65.0063C112.824 65.4398 112.439 65.8241 112.053 66.2093C111.813 66.426 111.596 66.6182 111.356 66.8113C111.164 66.9797 110.995 67.1246 110.802 67.2921C110.369 67.629 109.936 67.9413 109.454 68.231C108.997 68.5197 108.516 68.8083 108.035 69.0487C107.529 69.2891 107.024 69.5059 106.518 69.7226C106.013 69.9147 105.484 70.0832 104.954 70.228C104.425 70.3729 103.871 70.4931 103.342 70.5886C102.788 70.6852 102.236 70.7335 101.705 70.7807C101.32 70.8044 100.935 70.829 100.551 70.829C99.9971 70.829 99.4444 70.7807 98.9143 70.7325C98.3606 70.6842 97.8079 70.6123 97.2779 70.4921C96.7242 70.3955 96.1951 70.2517 95.666 70.0832H95.6424C96.1715 70.0349 96.7015 69.9867 97.2306 69.8911C97.7843 69.7945 98.3133 69.6743 98.8424 69.5305C99.3715 69.3857 99.9015 69.2172 100.406 69.0251C100.935 68.833 101.44 68.5916 101.922 68.3512C102.428 68.1108 102.885 67.8458 103.366 67.5571C103.823 67.2448 104.28 66.9315 104.713 66.5945C105.147 66.2576 105.556 65.897 105.941 65.5118C106.35 65.1512 106.711 64.7413 107.072 64.3324C107.433 63.8989 107.77 63.4664 108.083 63.0329C108.131 62.961 108.179 62.8645 108.228 62.7925C108.468 62.4073 108.708 62.0221 108.925 61.6378C109.19 61.1571 109.431 60.6753 109.647 60.1699C109.864 59.6644 110.056 59.159 110.225 58.63C110.393 58.1245 110.513 57.5955 110.634 57.0664C110.73 56.5127 110.826 55.9836 110.874 55.4546C110.922 54.9009 110.971 54.3482 110.971 53.8181C110.971 53.4329 110.947 53.0477 110.922 52.6634C110.874 52.1097 110.802 51.5807 110.73 51.0516C110.634 50.4979 110.513 49.9688 110.37 49.4398C110.201 48.9343 110.033 48.4053 109.84 47.8999C109.648 47.3944 109.407 46.889 109.167 46.4082C108.902 45.9274 108.638 45.4457 108.349 44.9885C108.036 44.5314 107.723 44.0979 107.386 43.6654C107.026 43.2565 106.664 42.8476 106.28 42.4378C106.088 42.2456 105.871 42.0289 105.654 41.8358C104.571 40.9934 103.44 40.1993 102.309 39.4781C102.141 39.3816 101.996 39.3097 101.829 39.2377C101.035 38.7323 100.289 38.4673 99.5429 38.2269H99.535Z" fill="#E0234E"/>
<defs>
<linearGradient id="paint0_linear_1390_23435" x1="75.4294" y1="6.85062" x2="127.855" y2="165.536" gradientUnits="userSpaceOnUse">
<stop stop-color="white"/>
<stop offset="1" stop-color="#D7D7D7"/>
</linearGradient>
<linearGradient id="paint1_linear_1390_23435" x1="75.0523" y1="0.530193" x2="135.636" y2="170.053" gradientUnits="userSpaceOnUse">
<stop stop-color="#322D37"/>
<stop offset="1" stop-color="#18151B"/>
</linearGradient>
</defs>
</svg>
