<svg width="167" height="167" viewBox="0 0 167 167" fill="none" xmlns="http://www.w3.org/2000/svg">
<path d="M0.362305 43.9144C0.362305 28.6249 0.362305 20.9802 3.33783 15.1404C5.95517 10.0036 10.1315 5.82724 15.2684 3.2099C21.1081 0.234375 28.7529 0.234375 44.0423 0.234375L123.212 0.234375C138.502 0.234375 146.146 0.234375 151.986 3.2099C157.123 5.82724 161.299 10.0036 163.917 15.1404C166.892 20.9802 166.892 28.6249 166.892 43.9144L166.892 123.084C166.892 138.374 166.892 146.019 163.917 151.858C161.299 156.995 157.123 161.172 151.986 163.789C146.146 166.764 138.502 166.764 123.212 166.764L44.0423 166.764C28.7529 166.764 21.1081 166.764 15.2684 163.789C10.1315 161.172 5.95517 156.995 3.33783 151.858C0.362305 146.019 0.362305 138.374 0.362305 123.084L0.362305 43.9144Z" fill="url(#paint0_linear_1390_23444)"/>
<path d="M0.362305 43.9144C0.362305 28.6249 0.362305 20.9802 3.33783 15.1404C5.95517 10.0036 10.1315 5.82724 15.2684 3.2099C21.1081 0.234375 28.7529 0.234375 44.0423 0.234375L123.212 0.234375C138.502 0.234375 146.146 0.234375 151.986 3.2099C157.123 5.82724 161.299 10.0036 163.917 15.1404C166.892 20.9802 166.892 28.6249 166.892 43.9144L166.892 123.084C166.892 138.374 166.892 146.019 163.917 151.858C161.299 156.995 157.123 161.172 151.986 163.789C146.146 166.764 138.502 166.764 123.212 166.764L44.0423 166.764C28.7529 166.764 21.1081 166.764 15.2684 163.789C10.1315 161.172 5.95517 156.995 3.33783 151.858C0.362305 146.019 0.362305 138.374 0.362305 123.084L0.362305 43.9144Z" fill="url(#paint1_linear_1390_23444)"/>
<path d="M164.162 43.9144L164.162 123.084C164.162 130.774 164.16 136.377 163.799 140.793C163.441 145.176 162.743 148.148 161.484 150.619C159.129 155.242 155.37 159.001 150.747 161.356C148.276 162.615 145.304 163.313 140.92 163.672C136.505 164.032 130.902 164.034 123.212 164.034L44.0423 164.034C36.3525 164.034 30.7494 164.032 26.334 163.672C21.9505 163.313 18.9786 162.615 16.5077 161.356C11.8846 159.001 8.12588 155.242 5.77027 150.619C4.51129 148.148 3.81332 145.176 3.45518 140.793C3.09443 136.377 3.0923 130.774 3.0923 123.084L3.0923 43.9144C3.0923 36.2246 3.09443 30.6215 3.45518 26.2061C3.81332 21.8226 4.51129 18.8507 5.77027 16.3798C8.12588 11.7567 11.8846 7.99795 16.5077 5.64234C18.9786 4.38336 21.9505 3.68539 26.334 3.32725C30.7494 2.9665 36.3525 2.96437 44.0423 2.96437L123.212 2.96437C130.902 2.96437 136.505 2.9665 140.92 3.32725C145.304 3.68539 148.276 4.38336 150.747 5.64234C155.37 7.99795 159.129 11.7567 161.484 16.3798C162.743 18.8507 163.441 21.8226 163.799 26.2061C164.16 30.6215 164.162 36.2246 164.162 43.9144Z" stroke="white" stroke-opacity="0.5" stroke-width="5.46"/>
<path d="M103.392 71.2266H124.284L124.284 75.0837H115.998L115.998 95.3707H111.855L111.855 75.0837H103.395L103.395 71.2266H103.392Z" fill="white"/>
<path d="M69.0294 71.2266L69.0294 75.0837H52.2829L52.2829 81.2879H65.7507L65.7507 85.145H52.2829L52.2829 91.5166H69.0294L69.0294 95.3737H48.1396L48.1396 75.0837L48.1396 71.2266H69.0325H69.0294Z" fill="white"/>
<path d="M79.4619 71.2344H74.04L93.4655 95.3785H98.9056L89.1914 83.314L98.8874 71.2526L93.4625 71.2618L86.4728 79.944L79.4619 71.2344Z" fill="white"/>
<path d="M85.0284 88.4777L82.3129 85.1016L74.0264 95.3942H79.4665L85.0314 88.4777H85.0284Z" fill="white"/>
<path fill-rule="evenodd" clip-rule="evenodd" d="M48.2865 95.3681L28.8366 71.2148H23.6553L23.6553 95.359H27.7985L27.7985 76.3749L43.0777 95.3681H48.2834H48.2865Z" fill="white"/>
<path d="M125.214 95.2178C124.91 95.2178 124.651 95.1113 124.438 94.9012C124.222 94.6912 124.115 94.4355 124.118 94.1341C124.118 93.8418 124.222 93.5892 124.438 93.3791C124.654 93.169 124.913 93.0625 125.214 93.0625C125.516 93.0625 125.762 93.169 125.978 93.3791C126.197 93.5892 126.307 93.8418 126.31 94.1341C126.307 94.332 126.255 94.5146 126.155 94.679C126.051 94.8464 125.92 94.9743 125.753 95.0687C125.589 95.1661 125.412 95.2148 125.214 95.2148V95.2178Z" fill="white"/>
<path d="M132.287 85.0508H134.123L134.123 92.1257C134.123 92.7771 133.98 93.3312 133.706 93.8C133.429 94.2688 133.042 94.625 132.549 94.8777C132.059 95.1273 131.481 95.2552 130.829 95.2552C130.232 95.2552 129.694 95.1486 129.219 94.9355C128.741 94.7255 128.363 94.4089 128.083 93.9949C127.803 93.5808 127.663 93.0633 127.663 92.4423H129.502C129.502 92.7132 129.566 92.9476 129.684 93.1455C129.803 93.3434 129.965 93.4925 130.172 93.5961C130.382 93.7026 130.625 93.7544 130.896 93.7544C131.191 93.7544 131.444 93.6935 131.648 93.5687C131.852 93.4469 132.01 93.2642 132.12 93.0207C132.226 92.7802 132.284 92.4818 132.284 92.1257L132.284 85.0508H132.287Z" fill="white"/>
<path d="M141.681 87.8153C141.635 87.386 141.44 87.0511 141.096 86.8137C140.749 86.5732 140.305 86.4545 139.757 86.4545C139.373 86.4545 139.041 86.5123 138.767 86.6249C138.493 86.7406 138.277 86.8959 138.131 87.0938C137.985 87.2916 137.912 87.5139 137.906 87.7665C137.906 87.9766 137.957 88.1593 138.055 88.3115C138.152 88.4667 138.286 88.5976 138.457 88.7011C138.624 88.8077 138.813 88.899 139.02 88.969C139.227 89.0421 139.434 89.103 139.644 89.1517L140.603 89.3861C140.986 89.4744 141.361 89.5931 141.717 89.7453C142.073 89.8945 142.396 90.0863 142.679 90.3146C142.962 90.5429 143.187 90.8199 143.352 91.1457C143.516 91.4684 143.601 91.8489 143.601 92.2842C143.601 92.8748 143.449 93.3924 143.145 93.8399C142.837 94.2843 142.399 94.6344 141.821 94.8871C141.245 95.1367 140.548 95.2646 139.729 95.2646C138.91 95.2646 138.247 95.1428 137.665 94.8993C137.081 94.6588 136.627 94.3056 136.298 93.8399C135.969 93.3741 135.793 92.8079 135.769 92.1412H137.589C137.613 92.4913 137.726 92.7805 137.918 93.0149C138.113 93.2462 138.365 93.4198 138.673 93.5354C138.983 93.6481 139.333 93.7059 139.717 93.7059C140.101 93.7059 140.472 93.645 140.779 93.5263C141.084 93.4076 141.321 93.2401 141.492 93.027C141.665 92.8139 141.754 92.5613 141.757 92.2751C141.757 92.0133 141.674 91.7941 141.522 91.6236C141.367 91.4532 141.154 91.307 140.883 91.1914C140.609 91.0757 140.286 90.9691 139.924 90.8778L138.761 90.5855C137.921 90.3724 137.257 90.0497 136.77 89.6144C136.283 89.1791 136.039 88.6037 136.039 87.8822C136.039 87.2916 136.204 86.7711 136.53 86.3236C136.855 85.8791 137.303 85.532 137.866 85.2855C138.432 85.0358 139.075 84.9141 139.787 84.9141C140.499 84.9141 141.145 85.0358 141.693 85.2855C142.241 85.532 142.67 85.8761 142.98 86.3114C143.291 86.7498 143.455 87.249 143.464 87.8153H141.684H141.681Z" fill="white"/>
<defs>
<linearGradient id="paint0_linear_1390_23444" x1="75.3699" y1="7.08499" x2="127.796" y2="165.77" gradientUnits="userSpaceOnUse">
<stop stop-color="white"/>
<stop offset="1" stop-color="#D7D7D7"/>
</linearGradient>
<linearGradient id="paint1_linear_1390_23444" x1="74.9928" y1="0.764568" x2="135.577" y2="170.288" gradientUnits="userSpaceOnUse">
<stop stop-color="#322D37"/>
<stop offset="1" stop-color="#18151B"/>
</linearGradient>
</defs>
</svg>
