<svg width="168" height="167" viewBox="0 0 168 167" fill="none" xmlns="http://www.w3.org/2000/svg">
<path d="M0.589844 43.6839C0.589844 28.3945 0.589844 20.7497 3.56536 14.91C6.18271 9.77314 10.3591 5.59677 15.4959 2.97943C21.3357 0.00390625 28.9804 0.00390625 44.2698 0.00390625L123.44 0.00390625C138.729 0.00390625 146.374 0.00390625 152.214 2.97943C157.35 5.59677 161.527 9.77314 164.144 14.91C167.12 20.7497 167.12 28.3945 167.12 43.6839L167.12 122.854C167.12 138.143 167.12 145.788 164.144 151.628C161.527 156.765 157.35 160.941 152.214 163.558C146.374 166.534 138.729 166.534 123.44 166.534L44.2698 166.534C28.9804 166.534 21.3357 166.534 15.4959 163.558C10.3591 160.941 6.18271 156.765 3.56536 151.628C0.589844 145.788 0.589844 138.143 0.589844 122.854L0.589844 43.6839Z" fill="url(#paint0_linear_1390_23320)"/>
<path d="M0.589844 43.6839C0.589844 28.3945 0.589844 20.7497 3.56536 14.91C6.18271 9.77314 10.3591 5.59677 15.4959 2.97943C21.3357 0.00390625 28.9804 0.00390625 44.2698 0.00390625L123.44 0.00390625C138.729 0.00390625 146.374 0.00390625 152.214 2.97943C157.35 5.59677 161.527 9.77314 164.144 14.91C167.12 20.7497 167.12 28.3945 167.12 43.6839L167.12 122.854C167.12 138.143 167.12 145.788 164.144 151.628C161.527 156.765 157.35 160.941 152.214 163.558C146.374 166.534 138.729 166.534 123.44 166.534L44.2698 166.534C28.9804 166.534 21.3357 166.534 15.4959 163.558C10.3591 160.941 6.18271 156.765 3.56536 151.628C0.589844 145.788 0.589844 138.143 0.589844 122.854L0.589844 43.6839Z" fill="url(#paint1_linear_1390_23320)"/>
<path d="M164.39 43.6839L164.39 122.854C164.39 130.544 164.388 136.147 164.027 140.562C163.669 144.946 162.971 147.918 161.712 150.388C159.356 155.012 155.597 158.77 150.974 161.126C148.503 162.385 145.531 163.083 141.148 163.441C136.733 163.802 131.129 163.804 123.44 163.804L44.2698 163.804C36.5801 163.804 30.9769 163.802 26.5616 163.441C22.1781 163.083 19.2062 162.385 16.7353 161.126C12.1121 158.77 8.35342 155.012 5.99781 150.388C4.73883 147.918 4.04086 144.946 3.68272 140.562C3.32197 136.147 3.31984 130.544 3.31984 122.854L3.31984 43.6839C3.31984 35.9942 3.32197 30.391 3.68272 25.9756C4.04086 21.5921 4.73883 18.6202 5.99781 16.1494C8.35342 11.5262 12.1121 7.76748 16.7353 5.41187C19.2062 4.15289 22.1781 3.45493 26.5616 3.09678C30.9769 2.73603 36.5801 2.73391 44.2698 2.73391L123.44 2.73391C131.129 2.73391 136.733 2.73603 141.148 3.09678C145.531 3.45493 148.503 4.15289 150.974 5.41187C155.597 7.76748 159.356 11.5262 161.712 16.1494C162.971 18.6202 163.669 21.5921 164.027 25.9756C164.388 30.391 164.39 35.9941 164.39 43.6839Z" stroke="#21A366" stroke-opacity="0.5" stroke-width="5.46"/>
<path d="M83.8721 128.33C82.6556 128.33 81.4518 128.012 80.3837 127.397L69.2784 120.819C67.6211 119.891 68.4307 119.564 68.9775 119.374C71.19 118.598 71.6351 118.424 73.996 117.08C74.2461 116.936 74.5683 116.991 74.8226 117.14L83.355 122.201C83.6644 122.366 84.101 122.366 84.385 122.201L117.65 102.995C117.959 102.817 118.159 102.466 118.159 102.097L118.159 63.7199C118.159 63.3384 117.959 62.9951 117.642 62.8043L84.3977 43.6159C84.0883 43.4337 83.6814 43.4337 83.3762 43.6159L50.1239 62.8001C49.8018 62.9824 49.5941 63.3427 49.5941 63.7072L49.5941 102.097C49.5941 102.466 49.7933 102.813 50.1112 102.987L59.2201 108.251C64.1666 110.722 67.1887 107.81 67.1887 104.882L67.1887 66.9921C67.1887 66.4538 67.6126 66.0342 68.1552 66.0342L72.3684 66.0342C72.894 66.0342 73.3263 66.4496 73.3263 66.9921L73.3263 104.899C73.3263 111.494 69.7277 115.283 63.4757 115.283C61.5513 115.283 60.0339 115.283 55.8037 113.202L47.0763 108.171C44.9188 106.92 43.5879 104.585 43.5879 102.097L43.5879 63.7114C43.5879 61.2148 44.9231 58.8793 47.0763 57.6459L80.3837 38.4363C82.4903 37.2452 85.2878 37.2452 87.3817 38.4363L120.642 57.6586C122.787 58.9005 124.127 61.2233 124.127 63.7241L124.127 102.114C124.127 104.602 122.787 106.925 120.638 108.179L87.3775 127.389C86.3093 128.008 85.1056 128.321 83.8721 128.321" fill="#21A366"/>
<path d="M94.1504 101.878C79.5948 101.878 76.543 95.1978 76.543 89.5901C76.543 89.0602 76.9711 88.6321 77.5051 88.6321H81.8031C82.2779 88.6321 82.6805 88.9797 82.7526 89.446C83.4011 93.8245 85.3339 96.0328 94.1376 96.0328C101.148 96.0328 104.132 94.4518 104.132 90.7303C104.132 88.5897 103.28 87.0002 92.3913 85.9321C83.2824 85.0335 77.6535 83.0244 77.6535 75.7381C77.6535 69.0283 83.3163 65.0312 92.7982 65.0312C103.45 65.0312 108.731 68.7316 109.393 76.6749C109.418 76.9504 109.321 77.2132 109.134 77.4166C108.952 77.6074 108.693 77.726 108.426 77.726H104.103C103.653 77.726 103.263 77.4081 103.17 76.9758C102.128 72.3684 99.614 70.8976 92.777 70.8976C85.122 70.8976 84.2319 73.5594 84.2319 75.5601C84.2319 77.9804 85.2831 78.6882 95.6085 80.0573C105.832 81.4137 110.69 83.3296 110.69 90.5141C110.69 97.6986 104.641 101.916 94.1037 101.916" fill="#21A366"/>
<defs>
<linearGradient id="paint0_linear_1390_23320" x1="75.5974" y1="6.85452" x2="128.023" y2="165.54" gradientUnits="userSpaceOnUse">
<stop stop-color="white"/>
<stop offset="1" stop-color="#D7D7D7"/>
</linearGradient>
<linearGradient id="paint1_linear_1390_23320" x1="75.2203" y1="0.534099" x2="135.804" y2="170.057" gradientUnits="userSpaceOnUse">
<stop stop-color="#322D37"/>
<stop offset="1" stop-color="#18151B"/>
</linearGradient>
</defs>
</svg>
