<svg width="168" height="167" viewBox="0 0 168 167" fill="none" xmlns="http://www.w3.org/2000/svg">
<path d="M0.891602 43.68C0.891602 28.3906 0.891602 20.7458 3.86712 14.9061C6.48446 9.76923 10.6608 5.59286 15.7977 2.97552C21.6374 0 29.2822 0 44.5716 0L123.741 0C139.031 0 146.676 0 152.515 2.97552C157.652 5.59286 161.829 9.76923 164.446 14.9061C167.421 20.7458 167.421 28.3906 167.421 43.68L167.421 122.85C167.421 138.139 167.421 145.784 164.446 151.624C161.829 156.761 157.652 160.937 152.515 163.554C146.676 166.53 139.031 166.53 123.741 166.53L44.5716 166.53C29.2822 166.53 21.6374 166.53 15.7977 163.554C10.6608 160.937 6.48446 156.761 3.86712 151.624C0.891602 145.784 0.891602 138.139 0.891602 122.85L0.891602 43.68Z" fill="url(#paint0_linear_1390_23424)"/>
<path d="M0.891602 43.68C0.891602 28.3906 0.891602 20.7458 3.86712 14.9061C6.48446 9.76923 10.6608 5.59286 15.7977 2.97552C21.6374 0 29.2822 0 44.5716 0L123.741 0C139.031 0 146.676 0 152.515 2.97552C157.652 5.59286 161.829 9.76923 164.446 14.9061C167.421 20.7458 167.421 28.3906 167.421 43.68L167.421 122.85C167.421 138.139 167.421 145.784 164.446 151.624C161.829 156.761 157.652 160.937 152.515 163.554C146.676 166.53 139.031 166.53 123.741 166.53L44.5716 166.53C29.2822 166.53 21.6374 166.53 15.7977 163.554C10.6608 160.937 6.48446 156.761 3.86712 151.624C0.891602 145.784 0.891602 138.139 0.891602 122.85L0.891602 43.68Z" fill="url(#paint1_linear_1390_23424)"/>
<path d="M164.691 43.68L164.691 122.85C164.691 130.54 164.689 136.143 164.329 140.558C163.97 144.942 163.272 147.914 162.013 150.385C159.658 155.008 155.899 158.766 151.276 161.122C148.805 162.381 145.833 163.079 141.45 163.437C137.034 163.798 131.431 163.8 123.741 163.8L44.5716 163.8C36.8818 163.8 31.2787 163.798 26.8633 163.437C22.4798 163.079 19.5079 162.381 17.037 161.122C12.4139 158.766 8.65518 155.008 6.29957 150.385C5.04058 147.914 4.34262 144.942 3.98447 140.558C3.62372 136.143 3.6216 130.54 3.6216 122.85L3.6216 43.68C3.6216 35.9902 3.62372 30.3871 3.98447 25.9717C4.34262 21.5882 5.04058 18.6163 6.29957 16.1454C8.65518 11.5223 12.4139 7.76358 17.037 5.40797C19.5079 4.14898 22.4798 3.45102 26.8633 3.09287C31.2787 2.73212 36.8818 2.73 44.5716 2.73L123.741 2.73C131.431 2.73 137.034 2.73212 141.45 3.09287C145.833 3.45102 148.805 4.14898 151.276 5.40797C155.899 7.76358 159.658 11.5223 162.013 16.1454C163.272 18.6163 163.97 21.5882 164.329 25.9717C164.689 30.3871 164.691 35.9902 164.691 43.68Z" stroke="#00C58E" stroke-opacity="0.5" stroke-width="5.46"/>
<path d="M90.9535 63.2287L87.5384 69.1409L75.8612 48.9122L40.0089 111L64.2813 111C64.2813 114.266 66.9281 116.912 70.1935 116.912L40.0089 116.912C37.896 116.912 35.9453 115.785 34.89 113.956C33.8348 112.128 33.8348 109.873 34.89 108.044L70.7398 45.9561C71.7951 44.1276 73.7483 43 75.8612 43C77.9742 43 79.9249 44.1276 80.9826 45.9561L90.9535 63.2262V63.2287Z" fill="#00C58E"/>
<path d="M116.831 108.042L94.3671 69.1388L90.952 63.2266L87.5369 69.1388L65.0756 108.042C64.0204 109.871 64.0204 112.126 65.0756 113.954C66.1308 115.783 68.0841 116.91 70.1945 116.91L111.705 116.91C113.817 116.91 115.771 115.783 116.826 113.954C117.881 112.126 117.884 109.871 116.826 108.039H116.831V108.042ZM70.1945 110.998L90.952 75.0509L111.705 110.998L70.1945 110.998Z" fill="#2F495E"/>
<path d="M132.894 113.96C131.839 115.789 129.885 116.916 127.775 116.916L111.707 116.916C114.973 116.916 117.619 114.269 117.619 111.004H127.762L98.9797 61.1544L94.3672 69.1446L90.9521 63.2324L93.8583 58.1983C94.9136 56.3697 96.8668 55.2422 98.9797 55.2422C101.093 55.2422 103.043 56.3697 104.101 58.1983L132.894 108.048C133.949 109.876 133.949 112.131 132.894 113.96Z" fill="#108775"/>
<defs>
<linearGradient id="paint0_linear_1390_23424" x1="75.8992" y1="6.85062" x2="128.325" y2="165.536" gradientUnits="userSpaceOnUse">
<stop stop-color="white"/>
<stop offset="1" stop-color="#D7D7D7"/>
</linearGradient>
<linearGradient id="paint1_linear_1390_23424" x1="75.5221" y1="0.530193" x2="136.106" y2="170.053" gradientUnits="userSpaceOnUse">
<stop stop-color="#322D37"/>
<stop offset="1" stop-color="#18151B"/>
</linearGradient>
</defs>
</svg>
