<svg width="168" height="167" viewBox="0 0 168 167" fill="none" xmlns="http://www.w3.org/2000/svg">
<path d="M0.710937 43.68C0.710937 28.3906 0.710937 20.7458 3.68646 14.9061C6.3038 9.76923 10.4802 5.59286 15.617 2.97552C21.4568 0 29.1015 0 44.3909 0L123.561 0C138.85 0 146.495 0 152.335 2.97552C157.472 5.59286 161.648 9.76923 164.265 14.9061C167.241 20.7458 167.241 28.3906 167.241 43.68L167.241 122.85C167.241 138.139 167.241 145.784 164.265 151.624C161.648 156.761 157.472 160.937 152.335 163.554C146.495 166.53 138.85 166.53 123.561 166.53L44.3909 166.53C29.1015 166.53 21.4568 166.53 15.617 163.554C10.4802 160.937 6.3038 156.761 3.68646 151.624C0.710937 145.784 0.710937 138.139 0.710937 122.85L0.710937 43.68Z" fill="url(#paint0_linear_1390_23265)"/>
<path d="M0.710937 43.68C0.710937 28.3906 0.710937 20.7458 3.68646 14.9061C6.3038 9.76923 10.4802 5.59286 15.617 2.97552C21.4568 0 29.1015 0 44.3909 0L123.561 0C138.85 0 146.495 0 152.335 2.97552C157.472 5.59286 161.648 9.76923 164.265 14.9061C167.241 20.7458 167.241 28.3906 167.241 43.68L167.241 122.85C167.241 138.139 167.241 145.784 164.265 151.624C161.648 156.761 157.472 160.937 152.335 163.554C146.495 166.53 138.85 166.53 123.561 166.53L44.3909 166.53C29.1015 166.53 21.4568 166.53 15.617 163.554C10.4802 160.937 6.3038 156.761 3.68646 151.624C0.710937 145.784 0.710937 138.139 0.710937 122.85L0.710937 43.68Z" fill="url(#paint1_linear_1390_23265)"/>
<path d="M164.511 43.68L164.511 122.85C164.511 130.54 164.509 136.143 164.148 140.558C163.79 144.942 163.092 147.914 161.833 150.385C159.477 155.008 155.718 158.766 151.095 161.122C148.624 162.381 145.653 163.079 141.269 163.437C136.854 163.798 131.251 163.8 123.561 163.8L44.3909 163.8C36.7012 163.8 31.098 163.798 26.6827 163.437C22.2991 163.079 19.3273 162.381 16.8564 161.122C12.2332 158.766 8.47451 155.008 6.11891 150.385C4.85992 147.914 4.16196 144.942 3.80381 140.558C3.44306 136.143 3.44094 130.54 3.44094 122.85L3.44094 43.68C3.44094 35.9902 3.44306 30.3871 3.80381 25.9717C4.16196 21.5882 4.85992 18.6163 6.11891 16.1454C8.47451 11.5223 12.2332 7.76358 16.8564 5.40797C19.3273 4.14898 22.2991 3.45102 26.6826 3.09287C31.098 2.73212 36.7012 2.73 44.3909 2.73L123.561 2.73C131.251 2.73 136.854 2.73212 141.269 3.09287C145.653 3.45102 148.624 4.14898 151.095 5.40797C155.718 7.76358 159.477 11.5223 161.833 16.1454C163.092 18.6163 163.79 21.5882 164.148 25.9717C164.509 30.3871 164.511 35.9902 164.511 43.68Z" stroke="#777BB3" stroke-opacity="0.5" stroke-width="5.46"/>
<g clip-path="url(#clip0_1390_23265)">
<mask id="mask0_1390_23265" style="mask-type:luminance" maskUnits="userSpaceOnUse" x="30" y="54" width="108" height="58">
<path d="M30.1895 83.124C30.1895 98.6686 54.1457 111.271 83.6974 111.271C113.249 111.271 137.205 98.6686 137.205 83.124C137.205 67.5794 113.249 54.9766 83.6974 54.9766C54.1457 54.9766 30.1895 67.5794 30.1895 83.124Z" fill="white"/>
</mask>
<g mask="url(#mask0_1390_23265)">
<path d="M30.1816 83.124C30.1816 98.6686 54.1379 111.271 83.6896 111.271C113.241 111.271 137.198 98.6686 137.198 83.124C137.198 67.5794 113.241 54.9766 83.6896 54.9766C54.1379 54.9766 30.1816 67.5794 30.1816 83.124Z" fill="url(#paint2_radial_1390_23265)"/>
</g>
<path d="M83.6951 109.181C112.092 109.181 135.113 97.5148 135.113 83.1237C135.113 68.7326 112.092 57.0664 83.6951 57.0664C55.2985 57.0664 32.2773 68.7326 32.2773 83.1237C32.2773 97.5148 55.2985 109.181 83.6951 109.181Z" fill="#777BB3"/>
<path d="M59.2636 86.3544C61.5984 86.3544 63.3417 85.924 64.4441 85.0756C65.5356 84.2349 66.2896 82.7795 66.6844 80.7497C67.0529 78.8515 66.912 77.5262 66.2679 76.8125C65.6084 76.0817 64.1824 75.7117 62.0303 75.7117H58.299L56.2305 86.356L59.2636 86.356V86.3544ZM47.0586 99.4667C46.8852 99.4667 46.7211 99.3893 46.6112 99.2546C46.5013 99.1214 46.4564 98.9449 46.4889 98.7746L51.9713 70.5668C52.0239 70.2943 52.2639 70.0977 52.541 70.0977L64.3574 70.0977C68.0701 70.0977 70.8353 71.1056 72.5725 73.0951C74.3189 75.0939 74.8592 77.8885 74.1749 81.4015C73.8962 82.8321 73.4193 84.1621 72.7536 85.3512C72.0878 86.5418 71.2084 87.6441 70.1386 88.6273C68.8582 89.8256 67.409 90.6942 65.8344 91.2051C64.2862 91.7099 62.2966 91.9653 59.9216 91.9653L55.1375 91.9653L53.7719 98.9945C53.7193 99.2669 53.4808 99.4651 53.2021 99.4651H47.0571L47.0586 99.4667Z" fill="black"/>
<path d="M58.7783 76.2893H62.0312C64.6292 76.2893 65.5302 76.859 65.8368 77.1981C66.3446 77.7617 66.4422 78.9507 66.1139 80.6368C65.747 82.5241 65.0658 83.8618 64.0904 84.6127C63.0917 85.3822 61.4676 85.7708 59.2629 85.7708L56.9343 85.7708L58.7767 76.2877L58.7783 76.2893ZM64.3582 69.5156L52.5419 69.5156C51.986 69.5156 51.5076 69.9089 51.4024 70.4554L45.92 98.6632C45.8534 99.0039 45.9432 99.3553 46.163 99.6232C46.3829 99.891 46.7127 100.046 47.0595 100.046H53.2045C53.7604 100.046 54.2388 99.651 54.3441 99.106L55.6183 92.546L59.924 92.546C62.3594 92.546 64.4093 92.2797 66.0164 91.7564C67.6699 91.2192 69.1903 90.3088 70.5358 89.0501C71.649 88.0267 72.5656 86.8763 73.2607 85.633C73.9559 84.3898 74.4544 83.0026 74.744 81.51C75.4624 77.8128 74.8787 74.8525 73.0084 72.7112C71.1551 70.5901 68.2444 69.5156 64.3567 69.5156M55.5254 86.9336L59.2629 86.9336C61.7401 86.9336 63.5856 86.4676 64.7979 85.534C66.0102 84.6004 66.8292 83.0428 67.2535 80.8582C67.6607 78.7619 67.4749 77.2833 66.6976 76.4209C65.9189 75.5585 64.3644 75.1281 62.0296 75.1281H57.8199L55.5254 86.9336ZM64.3567 70.6768C67.9115 70.6768 70.5048 71.6089 72.1336 73.4761C73.7639 75.3417 74.2547 77.9459 73.6044 81.2902C73.3366 82.6681 72.8845 83.9269 72.2466 85.0679C71.6087 86.209 70.7758 87.2541 69.7462 88.2001C68.5184 89.3489 67.1559 90.1664 65.6557 90.6541C64.1554 91.1433 62.2448 91.3864 59.9224 91.3864L54.6583 91.3864L53.2014 98.8862H47.0564L52.5388 70.6784L64.3551 70.6784" fill="white"/>
<path d="M88.2644 91.9667C88.091 91.9667 87.9269 91.8893 87.817 91.7546C87.707 91.6214 87.6621 91.4449 87.6946 91.2746L90.1192 78.794C90.3499 77.6065 90.2926 76.755 89.9597 76.3958C89.7554 76.1759 89.1423 75.8074 87.3262 75.8074H82.9322L79.8837 91.4975C79.831 91.77 79.591 91.9667 79.3139 91.9667H73.2168C73.0434 91.9667 72.8793 91.8893 72.7694 91.7546C72.6595 91.6214 72.6146 91.4449 72.6471 91.2746L78.1295 63.0668C78.1821 62.7943 78.4221 62.5977 78.6992 62.5977H84.7963C84.9697 62.5977 85.1338 62.6751 85.2437 62.8082C85.3537 62.9429 85.3986 63.1179 85.3661 63.2882L84.0438 70.0959H88.7707C92.3719 70.0959 94.8136 70.7307 96.2349 72.0359C97.684 73.3689 98.1361 75.4978 97.5787 78.3683L95.0272 91.4945C94.9746 91.7669 94.7361 91.9636 94.4574 91.9636H88.2644V91.9667Z" fill="black"/>
<path d="M84.7971 62.0156H78.7001C78.1442 62.0156 77.6658 62.4104 77.5605 62.9554L72.0781 91.1632C72.0116 91.5039 72.1014 91.8553 72.3228 92.1232C72.5442 92.391 72.8724 92.5458 73.2192 92.5458H79.3163C79.8721 92.5458 80.3505 92.1526 80.4558 91.606L83.413 76.3851H87.3285C89.14 76.3851 89.5209 76.7721 89.5364 76.7892C89.6463 76.9068 89.7903 77.4549 89.5518 78.6827L87.1273 91.1632C87.0607 91.5039 87.1505 91.8553 87.3719 92.1232C87.5933 92.391 87.9215 92.5458 88.2683 92.5458H94.4614C95.0172 92.5458 95.4956 92.1526 95.6009 91.606L98.1509 78.4799C98.7501 75.3988 98.2376 73.0873 96.6289 71.6087C95.0946 70.1997 92.5245 69.5154 88.7715 69.5154H84.7491L85.9382 63.3982C86.0048 63.0576 85.915 62.7062 85.6951 62.4383C85.4737 62.1705 85.1455 62.0156 84.7987 62.0156M84.7987 63.1768L83.3418 70.6766H88.7731C92.1901 70.6766 94.5481 71.2727 95.844 72.4649C97.1414 73.657 97.53 75.5893 97.0114 78.2585L94.4598 91.3846H88.2668L90.6914 78.9041C90.9669 77.4843 90.8663 76.5151 90.3863 75.9995C89.9064 75.484 88.8876 75.2254 87.327 75.2254H82.4546L79.3147 91.3862H73.2177L78.7001 63.1784H84.7971" fill="white"/>
<path d="M107.225 86.3544C109.559 86.3544 111.303 85.924 112.405 85.0756C113.497 84.2349 114.251 82.7795 114.645 80.7497C115.014 78.8515 114.873 77.5262 114.229 76.8125C113.569 76.0817 112.143 75.7117 109.991 75.7117H106.26L104.191 86.356L107.225 86.356V86.3544ZM95.0196 99.4667C94.8462 99.4667 94.6821 99.3893 94.5721 99.2546C94.4622 99.1214 94.4173 98.9449 94.4498 98.7746L99.9322 70.5668C99.9849 70.2943 100.225 70.0977 100.502 70.0977L112.318 70.0977C116.033 70.0977 118.796 71.1056 120.533 73.0951C122.28 75.0939 122.819 77.8885 122.136 81.4015C121.857 82.8321 121.38 84.1621 120.715 85.3512C120.049 86.5418 119.169 87.6441 118.1 88.6273C116.819 89.8256 115.37 90.6942 113.795 91.2051C112.247 91.7099 110.258 91.9653 107.883 91.9653L103.098 91.9653L101.733 98.9945C101.68 99.2669 101.44 99.4651 101.163 99.4651H95.018L95.0196 99.4667Z" fill="black"/>
<path d="M106.739 76.2893H109.992C112.59 76.2893 113.491 76.859 113.798 77.1981C114.307 77.7617 114.403 78.9507 114.075 80.6368C113.708 82.5241 113.027 83.8618 112.051 84.6127C111.053 85.3822 109.429 85.7708 107.224 85.7708L104.895 85.7708L106.738 76.2877L106.739 76.2893ZM112.319 69.5156L100.503 69.5156C99.947 69.5156 99.4686 69.9089 99.3633 70.4554L93.8809 98.6632C93.8143 99.0039 93.9041 99.3553 94.124 99.6232C94.3438 99.891 94.6736 100.046 95.0204 100.046H101.165C101.721 100.046 102.2 99.651 102.305 99.106L103.579 92.546L107.885 92.546C110.32 92.546 112.37 92.2797 113.977 91.7564C115.631 91.2192 117.151 90.3088 118.498 89.0501C119.611 88.0267 120.528 86.8763 121.223 85.633C121.918 84.3898 122.417 83.0026 122.706 81.51C123.425 77.8128 122.841 74.8525 120.971 72.7112C119.118 70.5901 116.207 69.5156 112.319 69.5156ZM103.488 86.9336L107.225 86.9336C109.703 86.9336 111.548 86.4676 112.76 85.534C113.973 84.6004 114.792 83.0428 115.216 80.8582C115.623 78.7619 115.437 77.2833 114.66 76.4209C113.881 75.5585 112.327 75.1281 109.992 75.1281H105.782L103.488 86.9336ZM112.319 70.6768C115.874 70.6768 118.467 71.6089 120.096 73.4761C121.726 75.3417 122.217 77.9459 121.567 81.2902C121.299 82.6681 120.847 83.9269 120.209 85.0679C119.571 86.209 118.738 87.2541 117.709 88.2001C116.481 89.3489 115.118 90.1664 113.618 90.6541C112.118 91.1433 110.207 91.3864 107.885 91.3864L102.621 91.3864L101.164 98.8862H95.0189L100.501 70.6784L112.318 70.6784" fill="white"/>
</g>
<defs>
<linearGradient id="paint0_linear_1390_23265" x1="75.7185" y1="6.85062" x2="128.144" y2="165.536" gradientUnits="userSpaceOnUse">
<stop stop-color="white"/>
<stop offset="1" stop-color="#D7D7D7"/>
</linearGradient>
<linearGradient id="paint1_linear_1390_23265" x1="75.3414" y1="0.530193" x2="135.926" y2="170.053" gradientUnits="userSpaceOnUse">
<stop stop-color="#322D37"/>
<stop offset="1" stop-color="#18151B"/>
</linearGradient>
<radialGradient id="paint2_radial_1390_23265" cx="0" cy="0" r="1" gradientUnits="userSpaceOnUse" gradientTransform="translate(62.1368 64.7585) scale(70.2632 70.2633)">
<stop stop-color="#AEB2D5"/>
<stop offset="0.3" stop-color="#AEB2D5"/>
<stop offset="0.75" stop-color="#484C89"/>
<stop offset="1" stop-color="#484C89"/>
</radialGradient>
<clipPath id="clip0_1390_23265">
<rect width="107.016" height="56.2949" fill="white" transform="translate(30.1973 54.9805)"/>
</clipPath>
</defs>
</svg>
