<svg width="167" height="167" viewBox="0 0 167 167" fill="none" xmlns="http://www.w3.org/2000/svg">
<path d="M0.121094 43.68C0.121094 28.3906 0.121094 20.7458 3.09661 14.9061C5.71396 9.76923 9.89032 5.59286 15.0271 2.97552C20.8669 0 28.5116 0 43.8011 0L122.971 0C138.26 0 145.905 0 151.745 2.97552C156.882 5.59286 161.058 9.76923 163.675 14.9061C166.651 20.7458 166.651 28.3906 166.651 43.68L166.651 122.85C166.651 138.139 166.651 145.784 163.675 151.624C161.058 156.761 156.882 160.937 151.745 163.554C145.905 166.53 138.26 166.53 122.971 166.53L43.8011 166.53C28.5117 166.53 20.8669 166.53 15.0271 163.554C9.89032 160.937 5.71396 156.761 3.09661 151.624C0.121094 145.784 0.121094 138.139 0.121094 122.85L0.121094 43.68Z" fill="url(#paint0_linear_1390_23326)"/>
<path d="M163.921 43.68L163.921 122.85C163.921 130.54 163.919 136.143 163.558 140.558C163.2 144.942 162.502 147.914 161.243 150.385C158.887 155.008 155.129 158.766 150.505 161.122C148.035 162.381 145.063 163.079 140.679 163.437C136.264 163.798 130.661 163.8 122.971 163.8L43.8011 163.8C36.1113 163.8 30.5082 163.798 26.0928 163.437C21.7093 163.079 18.7374 162.381 16.2665 161.122C11.6434 158.766 7.88467 155.008 5.52906 150.385C4.27008 147.914 3.57211 144.942 3.21397 140.558C2.85322 136.143 2.85109 130.54 2.85109 122.85L2.85109 43.68C2.85109 35.9902 2.85322 30.3871 3.21397 25.9717C3.57211 21.5882 4.27008 18.6163 5.52906 16.1454C7.88467 11.5223 11.6434 7.76358 16.2665 5.40797C18.7374 4.14898 21.7093 3.45102 26.0928 3.09287C30.5082 2.73212 36.1113 2.73 43.8011 2.73L122.971 2.73C130.661 2.73 136.264 2.73212 140.679 3.09287C145.063 3.45102 148.035 4.14898 150.505 5.40797C155.129 7.76358 158.887 11.5223 161.243 16.1454C162.502 18.6163 163.2 21.5882 163.558 25.9717C163.919 30.3871 163.921 35.9902 163.921 43.68Z" stroke="url(#paint1_linear_1390_23326)" stroke-opacity="0.5" stroke-width="5.46"/>
<path d="M83.2172 40.2663C79.7024 40.2817 76.341 40.5834 73.3863 41.1093C64.6759 42.6562 63.095 45.9046 63.095 51.891L63.095 59.7955L83.67 59.7955L83.67 62.4329L55.3746 62.4329C49.3963 62.4329 44.1547 66.0526 42.52 72.9439C40.6321 80.8407 40.5477 85.7753 42.52 94.0201C43.9858 100.161 47.4777 104.531 53.456 104.531H60.5318L60.5318 95.0565C60.5318 88.2116 66.4103 82.171 73.3863 82.171L93.9383 82.171C99.6557 82.171 104.23 77.4221 104.23 71.6368L104.23 51.891C104.23 46.2681 99.5253 42.0529 93.9383 41.1093C90.4004 40.5215 86.7321 40.2508 83.2172 40.2663ZM72.0894 46.6239C74.2152 46.6239 75.9496 48.4028 75.9496 50.5839C75.9496 52.765 74.2152 54.5207 72.0894 54.5207C69.9559 54.5207 68.2292 52.7573 68.2292 50.5839C68.2292 48.4105 69.9559 46.6239 72.0894 46.6239Z" fill="url(#paint2_linear_1390_23326)"/>
<path d="M106.832 62.4258L106.832 71.5674C106.832 78.6519 100.836 84.6159 94.005 84.6159L73.4975 84.6159C67.8768 84.6159 63.2285 89.4361 63.2285 95.07L63.2285 114.666C63.2285 120.246 68.0682 123.523 73.4975 125.12C79.999 127.039 86.2324 127.384 94.005 125.12C99.1739 123.623 104.274 120.599 104.274 114.666L104.274 106.821L83.7666 106.821L83.7666 104.204L114.543 104.204C120.508 104.204 122.737 100.028 124.812 93.7728C126.956 87.3254 126.864 81.1235 124.812 72.8569C123.334 66.9006 120.524 62.4258 114.543 62.4258L106.839 62.4258H106.832ZM95.2991 112.056C97.428 112.056 99.151 113.806 99.151 115.963C99.151 118.12 97.428 119.893 95.2991 119.893C93.1703 119.893 91.4473 118.127 91.4473 115.963C91.4473 113.798 93.1779 112.056 95.2991 112.056Z" fill="url(#paint3_linear_1390_23326)"/>
<defs>
<linearGradient id="paint0_linear_1390_23326" x1="74.7516" y1="0.530193" x2="135.336" y2="170.053" gradientUnits="userSpaceOnUse">
<stop stop-color="#322D37"/>
<stop offset="1" stop-color="#18151B"/>
</linearGradient>
<linearGradient id="paint1_linear_1390_23326" x1="83.386" y1="0" x2="83.386" y2="166.53" gradientUnits="userSpaceOnUse">
<stop stop-color="#326B9B"/>
<stop offset="1" stop-color="#FFD844"/>
</linearGradient>
<linearGradient id="paint2_linear_1390_23326" x1="38.5557" y1="43.0663" x2="86.4204" y2="83.2081" gradientUnits="userSpaceOnUse">
<stop stop-color="#5A9FD4"/>
<stop offset="1" stop-color="#306998"/>
</linearGradient>
<linearGradient id="paint3_linear_1390_23326" x1="103.565" y1="109.078" x2="86.4216" y2="85.3033" gradientUnits="userSpaceOnUse">
<stop stop-color="#FFD43B"/>
<stop offset="1" stop-color="#FFE873"/>
</linearGradient>
</defs>
</svg>
