<svg width="167" height="167" viewBox="0 0 167 167" fill="none" xmlns="http://www.w3.org/2000/svg">
<path d="M0.242187 43.68C0.242187 28.3906 0.242187 20.7458 3.21771 14.9061C5.83505 9.76923 10.0114 5.59286 15.1482 2.97552C20.988 0 28.6327 0 43.9222 0L123.092 0C138.381 0 146.026 0 151.866 2.97552C157.003 5.59286 161.179 9.76923 163.797 14.9061C166.772 20.7458 166.772 28.3906 166.772 43.68L166.772 122.85C166.772 138.139 166.772 145.784 163.797 151.624C161.179 156.761 157.003 160.937 151.866 163.554C146.026 166.53 138.381 166.53 123.092 166.53L43.9222 166.53C28.6327 166.53 20.988 166.53 15.1482 163.554C10.0114 160.937 5.83505 156.761 3.21771 151.624C0.242187 145.784 0.242187 138.139 0.242187 122.85L0.242187 43.68Z" fill="url(#paint0_linear_1390_23224)"/>
<path d="M0.242187 43.68C0.242187 28.3906 0.242187 20.7458 3.21771 14.9061C5.83505 9.76923 10.0114 5.59286 15.1482 2.97552C20.988 0 28.6327 0 43.9222 0L123.092 0C138.381 0 146.026 0 151.866 2.97552C157.003 5.59286 161.179 9.76923 163.797 14.9061C166.772 20.7458 166.772 28.3906 166.772 43.68L166.772 122.85C166.772 138.139 166.772 145.784 163.797 151.624C161.179 156.761 157.003 160.937 151.866 163.554C146.026 166.53 138.381 166.53 123.092 166.53L43.9222 166.53C28.6327 166.53 20.988 166.53 15.1482 163.554C10.0114 160.937 5.83505 156.761 3.21771 151.624C0.242187 145.784 0.242187 138.139 0.242187 122.85L0.242187 43.68Z" fill="url(#paint1_linear_1390_23224)"/>
<path d="M164.042 43.68L164.042 122.85C164.042 130.54 164.04 136.143 163.679 140.558C163.321 144.942 162.623 147.914 161.364 150.385C159.008 155.008 155.25 158.766 150.627 161.122C148.156 162.381 145.184 163.079 140.8 163.437C136.385 163.798 130.782 163.8 123.092 163.8L43.9222 163.8C36.2324 163.8 30.6293 163.798 26.2139 163.437C21.8304 163.079 18.8585 162.381 16.3876 161.122C11.7645 158.766 8.00576 155.008 5.65016 150.385C4.39117 147.914 3.69321 144.942 3.33506 140.558C2.97431 136.143 2.97219 130.54 2.97219 122.85L2.97219 43.68C2.97219 35.9902 2.97431 30.3871 3.33506 25.9717C3.69321 21.5882 4.39117 18.6163 5.65016 16.1454C8.00576 11.5223 11.7645 7.76358 16.3876 5.40797C18.8585 4.14898 21.8304 3.45102 26.2139 3.09287C30.6293 2.73212 36.2324 2.73 43.9222 2.73L123.092 2.73C130.782 2.73 136.385 2.73212 140.8 3.09287C145.184 3.45102 148.156 4.14898 150.627 5.40797C155.25 7.76358 159.008 11.5223 161.364 16.1454C162.623 18.6163 163.321 21.5882 163.679 25.9717C164.04 30.3871 164.042 35.9902 164.042 43.68Z" stroke="#1C62B3" stroke-opacity="0.5" stroke-width="5.46"/>
<path fill-rule="evenodd" clip-rule="evenodd" d="M83.2006 109.45C57.7759 109.45 37.166 95.647 37.166 78.6197C37.166 61.5924 57.7759 47.7891 83.2006 47.7891C108.625 47.7891 129.235 61.5924 129.235 78.6197C129.235 95.647 108.625 109.45 83.2006 109.45ZM90.2472 59.8432C70.923 59.8432 55.2568 69.28 55.2568 80.9205C55.2568 92.5609 70.923 101.998 90.2472 101.998C109.571 101.998 123.833 95.5461 123.833 80.9205C123.833 66.2948 109.571 59.8432 90.2472 59.8432Z" fill="url(#paint2_linear_1390_23224)"/>
<path fill-rule="evenodd" clip-rule="evenodd" d="M107.273 95.5413C107.273 95.5413 110.059 96.3815 111.678 97.2012C112.239 97.4859 113.211 98.0528 113.912 98.7971C114.599 99.5262 114.933 100.265 114.933 100.265L125.914 118.779L108.166 118.787L99.8673 103.202C99.8673 103.202 98.1679 100.282 97.1223 99.4355C96.2502 98.7295 95.8787 98.4779 95.0156 98.4779H90.7983L90.8022 118.775L75.0977 118.781L75.0977 66.9336L106.634 66.9336C106.634 66.9336 120.998 67.1928 120.998 80.8583C120.998 94.5237 107.273 95.5413 107.273 95.5413ZM100.442 78.1796L90.9349 78.1732L90.9298 86.9894L100.442 86.9868C100.442 86.9868 104.847 86.9728 104.847 82.5028C104.847 78.0327 100.442 78.1808 100.442 78.1808V78.1796Z" fill="url(#paint3_linear_1390_23224)"/>
<defs>
<linearGradient id="paint0_linear_1390_23224" x1="75.2498" y1="6.85062" x2="127.676" y2="165.536" gradientUnits="userSpaceOnUse">
<stop stop-color="white"/>
<stop offset="1" stop-color="#D7D7D7"/>
</linearGradient>
<linearGradient id="paint1_linear_1390_23224" x1="74.8727" y1="0.530193" x2="135.457" y2="170.053" gradientUnits="userSpaceOnUse">
<stop stop-color="#322D37"/>
<stop offset="1" stop-color="#18151B"/>
</linearGradient>
<linearGradient id="paint2_linear_1390_23224" x1="37.5721" y1="47.5191" x2="94.5904" y2="132.654" gradientUnits="userSpaceOnUse">
<stop stop-color="#CBCED0"/>
<stop offset="1" stop-color="#84838B"/>
</linearGradient>
<linearGradient id="paint3_linear_1390_23224" x1="71.8865" y1="70.6685" x2="123.729" y2="121.474" gradientUnits="userSpaceOnUse">
<stop stop-color="#276DC3"/>
<stop offset="1" stop-color="#165CAA"/>
</linearGradient>
</defs>
</svg>
