<svg width="168" height="167" viewBox="0 0 168 167" fill="none" xmlns="http://www.w3.org/2000/svg">
<path d="M0.832031 43.9144C0.832031 28.6249 0.832031 20.9802 3.80755 15.1404C6.42489 10.0036 10.6013 5.82724 15.7381 3.2099C21.5779 0.234375 29.2226 0.234375 44.512 0.234375L123.682 0.234375C138.971 0.234375 146.616 0.234375 152.456 3.2099C157.593 5.82724 161.769 10.0036 164.386 15.1404C167.362 20.9802 167.362 28.6249 167.362 43.9144L167.362 123.084C167.362 138.374 167.362 146.019 164.386 151.858C161.769 156.995 157.593 161.172 152.456 163.789C146.616 166.764 138.971 166.764 123.682 166.764L44.512 166.764C29.2226 166.764 21.5779 166.764 15.7381 163.789C10.6013 161.172 6.42489 156.995 3.80755 151.858C0.832031 146.019 0.832031 138.374 0.832031 123.084L0.832031 43.9144Z" fill="url(#paint0_linear_1390_23439)"/>
<path d="M0.832031 43.9144C0.832031 28.6249 0.832031 20.9802 3.80755 15.1404C6.42489 10.0036 10.6013 5.82724 15.7381 3.2099C21.5779 0.234375 29.2226 0.234375 44.512 0.234375L123.682 0.234375C138.971 0.234375 146.616 0.234375 152.456 3.2099C157.593 5.82724 161.769 10.0036 164.386 15.1404C167.362 20.9802 167.362 28.6249 167.362 43.9144L167.362 123.084C167.362 138.374 167.362 146.019 164.386 151.858C161.769 156.995 157.593 161.172 152.456 163.789C146.616 166.764 138.971 166.764 123.682 166.764L44.512 166.764C29.2226 166.764 21.5779 166.764 15.7381 163.789C10.6013 161.172 6.42489 156.995 3.80755 151.858C0.832031 146.019 0.832031 138.374 0.832031 123.084L0.832031 43.9144Z" fill="url(#paint1_linear_1390_23439)"/>
<path d="M164.632 43.9144L164.632 123.084C164.632 130.774 164.63 136.377 164.269 140.793C163.911 145.176 163.213 148.148 161.954 150.619C159.598 155.242 155.84 159.001 151.216 161.356C148.746 162.615 145.774 163.313 141.39 163.672C136.975 164.032 131.372 164.034 123.682 164.034L44.512 164.034C36.8223 164.034 31.2191 164.032 26.8037 163.672C22.4202 163.313 19.4484 162.615 16.9775 161.356C12.3543 159.001 8.59561 155.242 6.24 150.619C4.98101 148.148 4.28305 145.176 3.9249 140.793C3.56415 136.377 3.56203 130.774 3.56203 123.084L3.56203 43.9144C3.56203 36.2246 3.56415 30.6215 3.9249 26.2061C4.28305 21.8226 4.98101 18.8507 6.24 16.3798C8.59561 11.7567 12.3543 7.99795 16.9775 5.64234C19.4484 4.38336 22.4202 3.68539 26.8037 3.32725C31.2191 2.9665 36.8223 2.96437 44.512 2.96437L123.682 2.96437C131.372 2.96437 136.975 2.9665 141.39 3.32725C145.774 3.68539 148.746 4.38336 151.216 5.64234C155.84 7.99795 159.598 11.7567 161.954 16.3798C163.213 18.8507 163.911 21.8226 164.269 26.2061C164.63 30.6215 164.632 36.2246 164.632 43.9144Z" stroke="#61DAFB" stroke-opacity="0.5" stroke-width="5.46"/>
<path d="M84.4507 75.5742C79.9982 75.5742 76.373 79.1993 76.373 83.6519C76.373 88.1045 79.9982 91.7296 84.4507 91.7296C88.9033 91.7296 92.5284 88.1045 92.5284 83.6519C92.5284 79.1993 88.9033 75.5742 84.4507 75.5742Z" fill="#61DAFB"/>
<path d="M129.753 83.6513C129.753 77.3074 122.305 71.8303 110.721 68.481C111.154 66.7079 111.548 64.9347 111.824 63.2404C113.361 53.7047 111.667 47.0062 107.056 44.3662C101.54 41.1745 93.0681 44.9178 84.3994 53.2713C75.7701 44.9178 67.2984 41.2139 61.7819 44.4056C57.2111 47.0456 55.5168 53.7441 57.0535 63.2798C57.3293 64.9741 57.7234 66.7079 58.1568 68.5204C46.5722 71.8303 39.125 77.3468 39.125 83.6907C39.125 90.0346 46.5722 95.5511 58.1568 98.861C55.241 110.564 56.2654 119.745 61.7819 122.936C63.1216 123.725 64.6584 124.119 66.3527 124.119C70.3718 124.119 75.2184 121.912 80.4985 117.617C81.7988 116.553 83.1385 115.332 84.4388 114.071C85.7391 115.332 87.0788 116.553 88.3791 117.617C93.6592 121.912 98.5058 124.119 102.525 124.119C104.219 124.119 105.756 123.725 107.096 122.936C112.612 119.745 113.637 110.564 110.721 98.861C122.305 95.5511 129.753 90.0346 129.753 83.6907V83.6513ZM105.126 47.7942C108.16 49.528 109.184 54.9262 107.963 62.6099C107.726 64.186 107.332 65.8016 106.938 67.4565C103.234 66.5896 99.1757 65.9592 94.8807 65.5652C92.3983 62.0583 89.7977 58.8666 87.2365 56.0689C93.2258 50.2767 98.7816 47.1244 102.604 47.1244C103.589 47.1244 104.456 47.3214 105.204 47.7548L105.126 47.7942ZM97.0873 90.9015C95.6688 93.3051 94.2108 95.6693 92.7135 97.8759C90.0735 98.0729 87.3153 98.1911 84.4782 98.1911C81.6412 98.1911 78.8829 98.0729 76.2429 97.8759C74.7456 95.6693 73.2483 93.3051 71.8692 90.9015C70.49 88.4979 69.1897 86.0549 68.0076 83.6119C69.1503 81.2083 70.4506 78.8047 71.8692 76.3223C73.2877 73.8399 74.785 71.5151 76.2429 69.3479C78.8829 69.1509 81.6412 69.0327 84.4782 69.0327C87.3153 69.0327 90.0735 69.1509 92.7135 69.3479C94.2108 71.5151 95.6688 73.8399 97.0873 76.3223C98.5058 78.8047 99.8061 81.2477 100.949 83.6119C99.7667 86.0155 98.5058 88.4585 97.0873 90.9015ZM103.037 88.2221C104.18 90.9015 105.086 93.5021 105.874 95.9451C103.352 96.4968 100.634 97.009 97.7571 97.3637C98.7028 95.9057 99.6091 94.4084 100.515 92.8717C101.422 91.335 102.249 89.7982 103.037 88.2221ZM84.4782 108.318C82.7051 106.387 80.9319 104.259 79.1982 101.974C80.9319 102.053 82.6657 102.092 84.4782 102.092C86.2908 102.092 88.0245 102.053 89.7583 101.974C88.0245 104.259 86.2908 106.348 84.4782 108.318ZM71.1993 97.3637C68.3229 97.009 65.604 96.5362 63.0822 95.9451C63.8703 93.4627 64.7766 90.9015 65.9193 88.2221C66.7073 89.7588 67.5348 91.335 68.4411 92.8717C69.3473 94.4084 70.2536 95.9057 71.1993 97.3637ZM65.9193 78.9623C64.816 76.3223 63.8703 73.7611 63.0822 71.2392C65.604 70.6876 68.3229 70.1753 71.1993 69.8207C70.2536 71.2786 69.3473 72.776 68.4411 74.3127C67.5348 75.8494 66.7073 77.4256 65.9193 78.9623ZM84.4782 58.8666C86.212 60.7579 87.9851 62.8857 89.7583 65.2105C88.0245 65.1317 86.2908 65.0923 84.4782 65.0923C82.6657 65.0923 80.9319 65.1317 79.1982 65.2105C80.9713 62.8857 82.7051 60.7579 84.4782 58.8666ZM100.515 74.3521C99.6091 72.8154 98.7028 71.318 97.7571 69.8601C100.634 70.2148 103.352 70.6876 105.874 71.2786C105.086 73.8005 104.14 76.3617 103.037 79.0017C102.249 77.465 101.422 75.9282 100.515 74.3521ZM60.9544 62.6099C59.7329 54.9262 60.7574 49.528 63.7915 47.7942C64.5401 47.3608 65.407 47.1638 66.3921 47.1638C70.2142 47.1638 75.7701 50.3161 81.7594 56.1084C79.1588 58.906 76.5976 62.0977 74.1151 65.6046C69.8202 65.9986 65.7616 66.629 62.0577 67.4959C61.6243 65.841 61.2697 64.186 61.0332 62.6493L60.9544 62.6099ZM43.0653 83.6513C43.0653 79.5533 49.1334 75.1402 59.2207 72.2637C60.3634 75.9282 61.8607 79.7504 63.6339 83.6513C61.8213 87.5916 60.3634 91.4138 59.2207 95.0389C49.1334 92.1624 43.0653 87.7887 43.0653 83.6513ZM78.0161 114.504C71.9874 119.39 66.7861 121.203 63.7521 119.469C60.2058 117.42 59.4177 109.933 61.9789 99.7673C65.6828 100.634 69.7414 101.265 74.0363 101.659C76.5187 105.126 79.08 108.357 81.6806 111.155C80.4591 112.337 79.2376 113.48 78.0161 114.465L78.0161 114.504ZM105.126 119.469C102.092 121.203 96.8903 119.39 90.8616 114.504C89.6401 113.519 88.4186 112.376 87.197 111.194C89.8371 108.357 92.3983 105.166 94.8413 101.698C99.1363 101.304 103.195 100.674 106.899 99.8067C109.46 109.973 108.672 117.42 105.126 119.508V119.469ZM109.657 94.9995C108.554 91.3744 107.056 87.5522 105.244 83.6119C107.017 79.7504 108.514 75.9282 109.657 72.2243C119.705 75.1008 125.812 79.4745 125.812 83.6119C125.812 87.7492 119.705 92.123 109.657 94.9995Z" fill="#61DAFB"/>
<defs>
<linearGradient id="paint0_linear_1390_23439" x1="75.8396" y1="7.08499" x2="128.266" y2="165.77" gradientUnits="userSpaceOnUse">
<stop stop-color="white"/>
<stop offset="1" stop-color="#D7D7D7"/>
</linearGradient>
<linearGradient id="paint1_linear_1390_23439" x1="75.4625" y1="0.764568" x2="136.047" y2="170.288" gradientUnits="userSpaceOnUse">
<stop stop-color="#322D37"/>
<stop offset="1" stop-color="#18151B"/>
</linearGradient>
</defs>
</svg>
