<svg width="168" height="167" viewBox="0 0 168 167" fill="none" xmlns="http://www.w3.org/2000/svg">
<path d="M0.710937 43.9144C0.710937 28.6249 0.710937 20.9802 3.68646 15.1404C6.3038 10.0036 10.4802 5.82724 15.617 3.2099C21.4568 0.234375 29.1015 0.234375 44.3909 0.234375L123.561 0.234375C138.85 0.234375 146.495 0.234375 152.335 3.2099C157.472 5.82724 161.648 10.0036 164.265 15.1404C167.241 20.9802 167.241 28.6249 167.241 43.9144L167.241 123.084C167.241 138.374 167.241 146.019 164.265 151.858C161.648 156.995 157.472 161.172 152.335 163.789C146.495 166.764 138.85 166.764 123.561 166.764L44.3909 166.764C29.1015 166.764 21.4568 166.764 15.617 163.789C10.4802 161.172 6.3038 156.995 3.68646 151.858C0.710937 146.019 0.710937 138.374 0.710937 123.084L0.710937 43.9144Z" fill="url(#paint0_linear_1390_23243)"/>
<path d="M0.710937 43.9144C0.710937 28.6249 0.710937 20.9802 3.68646 15.1404C6.3038 10.0036 10.4802 5.82724 15.617 3.2099C21.4568 0.234375 29.1015 0.234375 44.3909 0.234375L123.561 0.234375C138.85 0.234375 146.495 0.234375 152.335 3.2099C157.472 5.82724 161.648 10.0036 164.265 15.1404C167.241 20.9802 167.241 28.6249 167.241 43.9144L167.241 123.084C167.241 138.374 167.241 146.019 164.265 151.858C161.648 156.995 157.472 161.172 152.335 163.789C146.495 166.764 138.85 166.764 123.561 166.764L44.3909 166.764C29.1015 166.764 21.4568 166.764 15.617 163.789C10.4802 161.172 6.3038 156.995 3.68646 151.858C0.710937 146.019 0.710937 138.374 0.710937 123.084L0.710937 43.9144Z" fill="url(#paint1_linear_1390_23243)"/>
<path d="M164.511 43.9144L164.511 123.084C164.511 130.774 164.509 136.377 164.148 140.793C163.79 145.176 163.092 148.148 161.833 150.619C159.477 155.242 155.718 159.001 151.095 161.356C148.624 162.615 145.653 163.313 141.269 163.672C136.854 164.032 131.251 164.034 123.561 164.034L44.3909 164.034C36.7012 164.034 31.098 164.032 26.6827 163.672C22.2991 163.313 19.3273 162.615 16.8564 161.356C12.2332 159.001 8.47451 155.242 6.11891 150.619C4.85992 148.148 4.16196 145.176 3.80381 140.793C3.44306 136.377 3.44094 130.774 3.44094 123.084L3.44094 43.9144C3.44094 36.2246 3.44306 30.6215 3.80381 26.2061C4.16196 21.8226 4.85992 18.8507 6.11891 16.3798C8.47451 11.7567 12.2332 7.99795 16.8564 5.64234C19.3273 4.38336 22.2991 3.68539 26.6826 3.32725C31.098 2.9665 36.7012 2.96437 44.3909 2.96437L123.561 2.96437C131.251 2.96437 136.854 2.9665 141.269 3.32725C145.653 3.68539 148.624 4.38336 151.095 5.64234C155.718 7.99795 159.477 11.7567 161.833 16.3798C163.092 18.8507 163.79 21.8226 164.148 26.2061C164.509 30.6215 164.511 36.2246 164.511 43.9144Z" stroke="#C31904" stroke-opacity="0.5" stroke-width="5.46"/>
<path fill-rule="evenodd" clip-rule="evenodd" d="M107.246 96.8475L58.9805 125.508L121.476 121.266L126.289 58.25L107.246 96.8475Z" fill="url(#paint2_linear_1390_23243)"/>
<path fill-rule="evenodd" clip-rule="evenodd" d="M121.579 121.223L116.207 84.1484L101.576 103.469L121.579 121.223Z" fill="url(#paint3_linear_1390_23243)"/>
<path fill-rule="evenodd" clip-rule="evenodd" d="M121.649 121.222L82.2965 118.133L59.1875 125.425L121.649 121.222Z" fill="url(#paint4_linear_1390_23243)"/>
<path fill-rule="evenodd" clip-rule="evenodd" d="M59.2453 125.432L69.076 93.2266L47.4434 97.8518L59.2453 125.432Z" fill="url(#paint5_linear_1390_23243)"/>
<path fill-rule="evenodd" clip-rule="evenodd" d="M101.569 103.576L92.5234 68.1445L66.6367 92.4098L101.569 103.576Z" fill="url(#paint6_linear_1390_23243)"/>
<path fill-rule="evenodd" clip-rule="evenodd" d="M124.235 68.642L99.7652 48.6562L92.9512 70.6858L124.235 68.642Z" fill="url(#paint7_linear_1390_23243)"/>
<path fill-rule="evenodd" clip-rule="evenodd" d="M112.794 41.5325L98.402 49.4858L89.3223 41.4258L112.794 41.5325Z" fill="url(#paint8_linear_1390_23243)"/>
<path fill-rule="evenodd" clip-rule="evenodd" d="M41.75 108.657L47.779 97.6616L42.902 84.5625L41.75 108.657Z" fill="url(#paint9_linear_1390_23243)"/>
<path fill-rule="evenodd" clip-rule="evenodd" d="M42.5762 84.1485L47.483 98.0668L68.8042 93.2837L93.1463 70.6611L100.016 48.8407L89.1995 41.2031L70.8096 48.0855C65.0153 53.4744 53.7723 64.1372 53.3669 64.3377C52.9658 64.5425 45.9427 77.8166 42.5762 84.1485Z" fill="white"/>
<path fill-rule="evenodd" clip-rule="evenodd" d="M59.8065 59.1464C72.3637 46.6959 88.552 39.3399 94.7644 45.6079C100.973 51.8758 94.3889 67.1083 81.8317 79.5546C69.2746 92.0008 53.2869 99.7621 47.0787 93.4942C40.8662 87.2305 47.2493 71.5927 59.8065 59.1464Z" fill="url(#paint10_linear_1390_23243)"/>
<path fill-rule="evenodd" clip-rule="evenodd" d="M59.2441 125.422L68.998 93.1133L101.392 103.52C89.6792 114.503 76.6527 123.787 59.2441 125.422Z" fill="url(#paint11_linear_1390_23243)"/>
<path fill-rule="evenodd" clip-rule="evenodd" d="M93.1914 70.5982L101.507 103.538C111.291 93.2506 120.072 82.1911 124.373 68.5117L93.1914 70.5982Z" fill="url(#paint12_linear_1390_23243)"/>
<path fill-rule="evenodd" clip-rule="evenodd" d="M124.287 68.6752C127.615 58.6312 128.383 44.2222 112.69 41.5469L99.8125 48.6596L124.287 68.6752Z" fill="url(#paint13_linear_1390_23243)"/>
<path fill-rule="evenodd" clip-rule="evenodd" d="M41.75 108.513C42.2108 125.09 54.1707 125.337 59.2652 125.482L47.4974 98L41.75 108.513Z" fill="#9E1209"/>
<path fill-rule="evenodd" clip-rule="evenodd" d="M93.2383 70.6468C100.756 75.2678 115.908 84.548 116.215 84.7187C116.693 84.9875 122.747 74.5083 124.121 68.5859L93.2383 70.6468Z" fill="url(#paint14_radial_1390_23243)"/>
<path fill-rule="evenodd" clip-rule="evenodd" d="M68.9844 93.1133L82.0237 118.27C89.7338 114.089 95.7713 108.994 101.301 103.537L68.9844 93.1133Z" fill="url(#paint15_radial_1390_23243)"/>
<path fill-rule="evenodd" clip-rule="evenodd" d="M47.4471 98.0328L45.5996 120.032C49.0856 124.794 53.8815 125.208 58.912 124.837C55.2724 115.778 48.0018 97.6659 47.4471 98.0328Z" fill="url(#paint16_linear_1390_23243)"/>
<path fill-rule="evenodd" clip-rule="evenodd" d="M99.7344 48.7165L125.638 52.3519C124.256 46.4935 120.01 42.7132 112.774 41.5312L99.7344 48.7165Z" fill="url(#paint17_linear_1390_23243)"/>
<defs>
<linearGradient id="paint0_linear_1390_23243" x1="75.7185" y1="7.08499" x2="128.144" y2="165.77" gradientUnits="userSpaceOnUse">
<stop stop-color="white"/>
<stop offset="1" stop-color="#D7D7D7"/>
</linearGradient>
<linearGradient id="paint1_linear_1390_23243" x1="75.3414" y1="0.764568" x2="135.926" y2="170.288" gradientUnits="userSpaceOnUse">
<stop stop-color="#322D37"/>
<stop offset="1" stop-color="#18151B"/>
</linearGradient>
<linearGradient id="paint2_linear_1390_23243" x1="116.023" y1="133.175" x2="98.1923" y2="101.686" gradientUnits="userSpaceOnUse">
<stop stop-color="#FB7655"/>
<stop offset="0.41" stop-color="#E42B1E"/>
<stop offset="0.99" stop-color="#990000"/>
<stop offset="1" stop-color="#990000"/>
</linearGradient>
<linearGradient id="paint3_linear_1390_23243" x1="124.911" y1="106.724" x2="101.926" y2="91.2996" gradientUnits="userSpaceOnUse">
<stop stop-color="#871101"/>
<stop offset="0.99" stop-color="#911209"/>
<stop offset="1" stop-color="#911209"/>
</linearGradient>
<linearGradient id="paint4_linear_1390_23243" x1="106.519" y1="134.129" x2="83.5338" y2="118.705" gradientUnits="userSpaceOnUse">
<stop stop-color="#871101"/>
<stop offset="0.99" stop-color="#911209"/>
<stop offset="1" stop-color="#911209"/>
</linearGradient>
<linearGradient id="paint5_linear_1390_23243" x1="58.264" y1="95.5562" x2="61.8267" y2="118.712" gradientUnits="userSpaceOnUse">
<stop stop-color="white"/>
<stop offset="0.23" stop-color="#E57252"/>
<stop offset="0.46" stop-color="#DE3B20"/>
<stop offset="0.99" stop-color="#A60003"/>
<stop offset="1" stop-color="#A60003"/>
</linearGradient>
<linearGradient id="paint6_linear_1390_23243" x1="82.7652" y1="73.9388" x2="84.0794" y2="97.5684" gradientUnits="userSpaceOnUse">
<stop stop-color="white"/>
<stop offset="0.23" stop-color="#E4714E"/>
<stop offset="0.56" stop-color="#BE1A0D"/>
<stop offset="0.99" stop-color="#A80D00"/>
<stop offset="1" stop-color="#A80D00"/>
</linearGradient>
<linearGradient id="paint7_linear_1390_23243" x1="104.514" y1="52.091" x2="108.444" y2="69.0302" gradientUnits="userSpaceOnUse">
<stop stop-color="white"/>
<stop offset="0.18" stop-color="#E46342"/>
<stop offset="0.4" stop-color="#C82410"/>
<stop offset="0.99" stop-color="#A80D00"/>
<stop offset="1" stop-color="#A80D00"/>
</linearGradient>
<linearGradient id="paint8_linear_1390_23243" x1="92.5181" y1="46.1278" x2="109.453" y2="37.6625" gradientUnits="userSpaceOnUse">
<stop stop-color="white"/>
<stop offset="0.54" stop-color="#C81F11"/>
<stop offset="0.99" stop-color="#BF0905"/>
<stop offset="1" stop-color="#BF0905"/>
</linearGradient>
<linearGradient id="paint9_linear_1390_23243" x1="43.4141" y1="89.6528" x2="44.8093" y2="103.61" gradientUnits="userSpaceOnUse">
<stop stop-color="white"/>
<stop offset="0.31" stop-color="#DE4024"/>
<stop offset="0.99" stop-color="#BF190B"/>
<stop offset="1" stop-color="#BF190B"/>
</linearGradient>
<linearGradient id="paint10_linear_1390_23243" x1="33.8303" y1="107.383" x2="99.3555" y2="40.0056" gradientUnits="userSpaceOnUse">
<stop stop-color="#BD0012"/>
<stop offset="0.07" stop-color="white"/>
<stop offset="0.17" stop-color="white"/>
<stop offset="0.27" stop-color="#C82F1C"/>
<stop offset="0.33" stop-color="#820C01"/>
<stop offset="0.46" stop-color="#A31601"/>
<stop offset="0.72" stop-color="#B31301"/>
<stop offset="0.99" stop-color="#E82609"/>
<stop offset="1" stop-color="#E82609"/>
</linearGradient>
<linearGradient id="paint11_linear_1390_23243" x1="84.0214" y1="114.178" x2="64.2875" y2="109.31" gradientUnits="userSpaceOnUse">
<stop stop-color="#8C0C01"/>
<stop offset="0.54" stop-color="#990C00"/>
<stop offset="0.99" stop-color="#A80D0E"/>
<stop offset="1" stop-color="#A80D0E"/>
</linearGradient>
<linearGradient id="paint12_linear_1390_23243" x1="117.926" y1="90.49" x2="100.389" y2="74.7754" gradientUnits="userSpaceOnUse">
<stop stop-color="#7E110B"/>
<stop offset="0.99" stop-color="#9E0C00"/>
<stop offset="1" stop-color="#9E0C00"/>
</linearGradient>
<linearGradient id="paint13_linear_1390_23243" x1="124.364" y1="61.6563" x2="115.63" y2="52.3163" gradientUnits="userSpaceOnUse">
<stop stop-color="#79130D"/>
<stop offset="0.99" stop-color="#9E120B"/>
<stop offset="1" stop-color="#9E120B"/>
</linearGradient>
<radialGradient id="paint14_radial_1390_23243" cx="0" cy="0" r="1" gradientUnits="userSpaceOnUse" gradientTransform="translate(103.12 75.0757) scale(21.4876 21.4876)">
<stop stop-color="#A80D00"/>
<stop offset="0.99" stop-color="#7E0E08"/>
<stop offset="1" stop-color="#7E0E08"/>
</radialGradient>
<radialGradient id="paint15_radial_1390_23243" cx="0" cy="0" r="1" gradientUnits="userSpaceOnUse" gradientTransform="translate(73.3621 103.392) scale(28.562 28.562)">
<stop stop-color="#A30C00"/>
<stop offset="0.99" stop-color="#800E08"/>
<stop offset="1" stop-color="#800E08"/>
</radialGradient>
<linearGradient id="paint16_linear_1390_23243" x1="53.1305" y1="125.404" x2="46.0135" y2="101.254" gradientUnits="userSpaceOnUse">
<stop stop-color="#8B2114"/>
<stop offset="0.43" stop-color="#9E100A"/>
<stop offset="0.99" stop-color="#B3100C"/>
<stop offset="1" stop-color="#B3100C"/>
</linearGradient>
<linearGradient id="paint17_linear_1390_23243" x1="107.73" y1="45.3842" x2="123.688" y2="52.4287" gradientUnits="userSpaceOnUse">
<stop stop-color="#B31000"/>
<stop offset="0.44" stop-color="#910F08"/>
<stop offset="0.99" stop-color="#791C12"/>
<stop offset="1" stop-color="#791C12"/>
</linearGradient>
</defs>
</svg>
