<svg width="167" height="167" viewBox="0 0 167 167" fill="none" xmlns="http://www.w3.org/2000/svg">
<path d="M0.121094 43.9144C0.121094 28.6249 0.121094 20.9802 3.09661 15.1404C5.71396 10.0036 9.89032 5.82724 15.0271 3.2099C20.8669 0.234375 28.5116 0.234375 43.8011 0.234375L122.971 0.234375C138.26 0.234375 145.905 0.234375 151.745 3.2099C156.882 5.82724 161.058 10.0036 163.675 15.1404C166.651 20.9802 166.651 28.6249 166.651 43.9144L166.651 123.084C166.651 138.374 166.651 146.019 163.675 151.858C161.058 156.995 156.882 161.172 151.745 163.789C145.905 166.764 138.26 166.764 122.971 166.764L43.8011 166.764C28.5117 166.764 20.8669 166.764 15.0271 163.789C9.89032 161.172 5.71396 156.995 3.09661 151.858C0.121094 146.019 0.121094 138.374 0.121094 123.084L0.121094 43.9144Z" fill="url(#paint0_linear_1390_22488)"/>
<path d="M163.921 43.9144L163.921 123.084C163.921 130.774 163.919 136.377 163.558 140.793C163.2 145.176 162.502 148.148 161.243 150.619C158.887 155.242 155.129 159.001 150.505 161.356C148.035 162.615 145.063 163.313 140.679 163.672C136.264 164.032 130.661 164.034 122.971 164.034L43.8011 164.034C36.1113 164.034 30.5082 164.032 26.0928 163.672C21.7093 163.313 18.7374 162.615 16.2665 161.356C11.6434 159.001 7.88467 155.242 5.52906 150.619C4.27008 148.148 3.57211 145.176 3.21397 140.793C2.85322 136.377 2.85109 130.774 2.85109 123.084L2.85109 43.9144C2.85109 36.2246 2.85322 30.6215 3.21397 26.2061C3.57211 21.8226 4.27008 18.8507 5.52906 16.3798C7.88467 11.7567 11.6434 7.99795 16.2665 5.64234C18.7374 4.38336 21.7093 3.68539 26.0928 3.32725C30.5082 2.9665 36.1113 2.96437 43.8011 2.96437L122.971 2.96437C130.661 2.96437 136.264 2.9665 140.679 3.32725C145.063 3.68539 148.035 4.38336 150.505 5.64234C155.129 7.99795 158.887 11.7567 161.243 16.3798C162.502 18.8507 163.2 21.8226 163.558 26.2061C163.919 30.6215 163.921 36.2246 163.921 43.9144Z" stroke="url(#paint1_linear_1390_22488)" stroke-opacity="0.5" stroke-width="5.46"/>
<path fill-rule="evenodd" clip-rule="evenodd" d="M113.487 71.5933C114.111 70.1934 115.748 69.5544 117.148 70.1782C118.548 70.8021 119.18 72.4454 118.563 73.8453C117.939 75.2528 116.303 75.8842 114.903 75.2604C113.495 74.6365 112.863 73.0008 113.487 71.5933ZM80.9857 45.4446C82.0967 44.3871 83.8546 44.4251 84.9124 45.5359C85.9702 46.6466 85.9321 48.4041 84.8211 49.4692C83.71 50.5267 81.9598 50.4887 80.8944 49.3779C79.8366 48.2595 79.8747 46.5021 80.9857 45.4446ZM117.231 82.8532C117.231 83.7053 117.201 84.5498 117.14 85.3943H113.632C113.282 85.3943 113.137 85.6225 113.137 85.9649L113.137 87.5778C113.137 91.3666 110.999 92.1958 109.127 92.4012C107.346 92.599 105.368 91.6557 105.124 90.5601C104.074 84.6411 102.316 83.3781 99.5462 81.1946C102.986 79.0111 106.562 75.7929 106.562 71.4868C106.562 66.8307 103.374 63.9016 101.198 62.4637C98.146 60.4552 94.7672 60.052 93.854 60.052L57.5778 60.052C62.4937 54.5666 69.16 50.6789 76.7014 49.2638L80.9781 53.7449C81.9446 54.7568 83.5426 54.7948 84.5547 53.8286L89.3413 49.2562C99.3635 51.1202 107.856 57.3587 112.742 65.9177L109.469 73.3127C108.906 74.5909 109.485 76.0897 110.755 76.6603L117.064 79.46C117.178 80.5708 117.231 81.7044 117.231 82.8532ZM75.3011 77.0559L75.3011 70.6195H86.8377C87.4313 70.6195 91.0459 71.3118 91.0459 74.0051C91.0459 76.2494 88.276 77.0483 86.0006 77.0483H75.3011V77.0559ZM49.0547 79.1785L55.0361 76.5233C56.3145 75.9527 56.8929 74.4615 56.3221 73.1758L55.0893 70.3913H59.9368L59.9368 92.2263H50.1658C49.3211 89.2439 48.8645 86.1018 48.8645 82.8532C48.8569 81.6055 48.9253 80.3806 49.0547 79.1785ZM52.3117 71.4564C52.9357 72.8562 52.3041 74.5072 50.8963 75.1234C49.4961 75.7473 47.8524 75.1234 47.236 73.7083C46.6119 72.3009 47.2436 70.6651 48.6514 70.0413C50.0516 69.4174 51.6953 70.0565 52.3117 71.4564ZM62.9123 114.426C61.4131 114.754 59.9368 113.795 59.6172 112.296C59.2976 110.79 60.2488 109.314 61.748 108.994C63.2471 108.675 64.7234 109.626 65.043 111.132C65.3627 112.623 64.4114 114.107 62.9123 114.426ZM101.555 105.54C100.185 105.244 98.8384 106.118 98.5493 107.488L97.1567 113.993C92.8571 115.948 88.0781 117.028 83.048 117.028C78.0179 117.028 73.0258 115.887 68.6425 113.856L67.2499 107.351C66.9531 105.982 65.6138 105.114 64.244 105.403L58.4986 106.636C57.4332 105.54 56.4439 104.369 55.5307 103.136L83.4741 103.136C83.7937 103.136 83.9992 103.075 83.9992 102.794L83.9992 92.911C83.9992 92.6219 83.7861 92.5686 83.4741 92.5686H75.3011L75.3011 86.3072H84.1362C84.9428 86.3072 88.451 86.5355 89.5696 91.0166C89.9197 92.3936 90.6883 96.8748 91.221 98.3127C91.7461 99.9256 93.8844 103.136 96.1674 103.136H110.086C110.246 103.136 110.413 103.121 110.588 103.083C109.622 104.391 108.564 105.639 107.422 106.796L101.555 105.54ZM102.887 114.563C101.388 114.236 100.437 112.76 100.756 111.262C101.076 109.763 102.552 108.804 104.051 109.131C105.55 109.451 106.509 110.934 106.182 112.433C105.862 113.924 104.386 114.883 102.887 114.563ZM129.164 82.0011L125.237 79.5741C125.207 79.1937 125.169 78.8133 125.123 78.4329L128.494 75.2908C128.837 74.9713 128.989 74.4996 128.897 74.0431C128.806 73.5866 128.486 73.2062 128.045 73.0388L123.73 71.4259C123.624 71.0531 123.51 70.6804 123.395 70.3152L126.082 66.5796C126.356 66.1992 126.409 65.7047 126.234 65.2711C126.059 64.8374 125.663 64.5331 125.207 64.457L120.656 63.719C120.481 63.3767 120.298 63.0343 120.108 62.6996L122.018 58.5075C122.216 58.0815 122.17 57.587 121.912 57.199C121.653 56.8109 121.211 56.5827 120.74 56.5979L116.12 56.7577C115.885 56.461 115.641 56.1643 115.39 55.8752L116.448 51.3788C116.554 50.9223 116.417 50.443 116.09 50.1159C115.763 49.7887 115.283 49.6518 114.827 49.7583L110.329 50.8158C110.04 50.5724 109.743 50.3289 109.447 50.0855L109.606 45.4674C109.622 45.0033 109.393 44.5544 109.005 44.2958C108.617 44.0371 108.122 43.999 107.696 44.1892L103.503 46.0989C103.168 45.9163 102.826 45.7261 102.484 45.5511L101.745 41.0015C101.669 40.5374 101.365 40.1494 100.931 39.9744C100.497 39.7918 100.003 39.8527 99.6223 40.1266L95.8858 42.8198C95.5205 42.7057 95.1477 42.5916 94.7748 42.4851L93.1691 38.1561C93.0093 37.7148 92.6288 37.3953 92.1646 37.304C91.708 37.2127 91.2362 37.3649 90.9166 37.7072L87.7661 41.0852C87.3856 41.0395 87.0051 41.0015 86.6246 40.9711L84.1971 37.0453C83.9536 36.6497 83.5198 36.4063 83.048 36.4063C82.5762 36.4063 82.1424 36.6497 81.8989 37.0453L79.4713 40.9711C79.0909 41.0015 78.7104 41.0395 78.3299 41.0852L75.1794 37.7072C74.8598 37.3649 74.388 37.2127 73.9314 37.304C73.4748 37.3953 73.0943 37.7148 72.9269 38.1561L71.3136 42.4698C70.9407 42.5763 70.5678 42.6905 70.2025 42.8046L66.4661 40.1114C66.0856 39.8375 65.5909 39.7766 65.1572 39.9592C64.7234 40.1342 64.419 40.5298 64.3429 40.9863L63.6048 45.5359C63.2623 45.7109 62.9199 45.8934 62.5851 46.0836L58.392 44.174C57.9659 43.9762 57.4712 44.0219 57.0831 44.2805C56.695 44.5392 56.4667 44.9805 56.4819 45.4522L56.6417 50.0702C56.345 50.3061 56.0482 50.5495 55.759 50.8006L51.2616 49.7431C50.805 49.6366 50.3256 49.7735 49.9983 50.1007C49.6635 50.4354 49.5341 50.9071 49.6407 51.3636L50.6984 55.8599C50.4549 56.149 50.2114 56.4458 49.9679 56.7425L45.3487 56.5827C44.8845 56.5675 44.4355 56.7957 44.1768 57.1837C43.9181 57.5717 43.88 58.0663 44.0703 58.4923L45.9803 62.6843C45.7977 63.0191 45.6074 63.3614 45.4324 63.7038L40.8817 64.4418C40.4175 64.5179 40.0294 64.8222 39.8544 65.2558C39.6794 65.6895 39.7326 66.184 40.0066 66.5644L42.7005 70.3C42.5863 70.6651 42.4722 71.0379 42.3656 71.4107L38.0432 73.0312C37.6019 73.191 37.2823 73.5714 37.1909 74.0355C37.0996 74.492 37.2518 74.9637 37.5943 75.2832L40.9654 78.4253C40.9274 78.8057 40.8893 79.1861 40.8513 79.5665L36.9246 81.9935C36.5365 82.2521 36.293 82.6858 36.293 83.1499C36.293 83.614 36.5365 84.0552 36.9322 84.2987L40.8589 86.7257C40.8893 87.1061 40.9274 87.4865 40.973 87.8669L37.6019 91.0166C37.2594 91.3361 37.1072 91.8078 37.1985 92.2643C37.2899 92.7208 37.6095 93.1012 38.0508 93.2686L42.3656 94.8815C42.4722 95.2542 42.5863 95.627 42.7005 95.9922L40.0066 99.7278C39.7326 100.108 39.6717 100.603 39.8544 101.036C40.037 101.47 40.4251 101.782 40.8893 101.85L45.4324 102.596C45.6074 102.938 45.7901 103.281 45.9803 103.615L44.0703 107.807C43.8724 108.234 43.9181 108.728 44.1768 109.116C44.4355 109.504 44.8845 109.732 45.3487 109.717L49.9603 109.557C50.2038 109.854 50.4397 110.151 50.6908 110.44L49.6331 114.936C49.5265 115.393 49.6635 115.864 49.9907 116.199C50.318 116.534 50.7974 116.663 51.254 116.557L55.7514 115.499C56.0406 115.75 56.3374 115.986 56.6341 116.23L56.4743 120.848C56.4591 121.312 56.6874 121.761 57.0755 122.019C57.4636 122.278 57.9583 122.316 58.3844 122.126L62.5774 120.216C62.9123 120.406 63.2547 120.589 63.5972 120.764L64.3353 125.306C64.4114 125.77 64.7158 126.158 65.1496 126.341C65.5833 126.523 66.078 126.462 66.4585 126.188L70.1949 123.495C70.5602 123.609 70.9331 123.723 71.306 123.838L72.9193 128.151C73.0791 128.593 73.4596 128.912 73.9238 129.003C74.3803 129.095 74.8522 128.943 75.1718 128.6L78.3223 125.23C78.7027 125.275 79.0832 125.314 79.4637 125.344L81.8913 129.27C82.1348 129.665 82.5686 129.909 83.0404 129.909C83.5122 129.909 83.9459 129.665 84.1895 129.27L86.617 125.344C86.9975 125.314 87.378 125.275 87.7585 125.23L90.909 128.6C91.2286 128.943 91.7004 129.095 92.157 129.003C92.6136 128.912 92.9941 128.593 93.1615 128.151L94.7748 123.838C95.1477 123.731 95.5205 123.617 95.8858 123.495L99.6223 126.188C100.003 126.462 100.497 126.516 100.931 126.341C101.365 126.166 101.669 125.77 101.745 125.306L102.484 120.764C102.826 120.589 103.168 120.399 103.503 120.216L107.696 122.126C108.122 122.324 108.617 122.278 109.005 122.019C109.393 121.761 109.622 121.319 109.606 120.848L109.447 116.23C109.743 115.994 110.04 115.75 110.329 115.499L114.827 116.557C115.283 116.663 115.763 116.534 116.09 116.199C116.425 115.864 116.554 115.393 116.448 114.936L115.39 110.44C115.633 110.151 115.877 109.854 116.12 109.557L120.74 109.717C121.204 109.732 121.653 109.504 121.912 109.116C122.17 108.728 122.216 108.234 122.018 107.807L120.108 103.615C120.298 103.273 120.481 102.938 120.656 102.596L125.207 101.858C125.671 101.782 126.059 101.478 126.234 101.044C126.417 100.61 126.356 100.116 126.082 99.7354L123.388 95.9998C123.502 95.627 123.616 95.2619 123.723 94.8891L128.038 93.2762C128.479 93.1088 128.798 92.736 128.89 92.2719C128.981 91.8154 128.829 91.3437 128.486 91.0242L125.115 87.8745C125.153 87.4941 125.191 87.1137 125.229 86.7333L129.156 84.3063C129.552 84.0629 129.795 83.6292 129.795 83.1575C129.795 82.6858 129.559 82.2521 129.164 82.0011Z" fill="url(#paint2_linear_1390_22488)"/>
<path fill-rule="evenodd" clip-rule="evenodd" d="M113.487 71.5933C114.111 70.1934 115.748 69.5544 117.148 70.1782C118.548 70.8021 119.18 72.4454 118.563 73.8453C117.939 75.2528 116.303 75.8842 114.903 75.2604C113.495 74.6365 112.863 73.0008 113.487 71.5933ZM80.9857 45.4446C82.0967 44.3871 83.8546 44.4251 84.9124 45.5359C85.9702 46.6466 85.9321 48.4041 84.8211 49.4692C83.71 50.5267 81.9598 50.4887 80.8944 49.3779C79.8366 48.2595 79.8747 46.5021 80.9857 45.4446ZM117.231 82.8532C117.231 83.7053 117.201 84.5498 117.14 85.3943H113.632C113.282 85.3943 113.137 85.6225 113.137 85.9649L113.137 87.5778C113.137 91.3666 110.999 92.1958 109.127 92.4012C107.346 92.599 105.368 91.6557 105.124 90.5601C104.074 84.6411 102.316 83.3781 99.5462 81.1946C102.986 79.0111 106.562 75.7929 106.562 71.4868C106.562 66.8307 103.374 63.9016 101.198 62.4637C98.146 60.4552 94.7672 60.052 93.854 60.052L57.5778 60.052C62.4937 54.5666 69.16 50.6789 76.7014 49.2638L80.9781 53.7449C81.9446 54.7568 83.5426 54.7948 84.5547 53.8286L89.3413 49.2562C99.3635 51.1202 107.856 57.3587 112.742 65.9177L109.469 73.3127C108.906 74.5909 109.485 76.0897 110.755 76.6603L117.064 79.46C117.178 80.5708 117.231 81.7044 117.231 82.8532ZM75.3011 77.0559L75.3011 70.6195H86.8377C87.4313 70.6195 91.0459 71.3118 91.0459 74.0051C91.0459 76.2494 88.276 77.0483 86.0006 77.0483H75.3011V77.0559ZM49.0547 79.1785L55.0361 76.5233C56.3145 75.9527 56.8929 74.4615 56.3221 73.1758L55.0893 70.3913H59.9368L59.9368 92.2263H50.1658C49.3211 89.2439 48.8645 86.1018 48.8645 82.8532C48.8569 81.6055 48.9253 80.3806 49.0547 79.1785ZM52.3117 71.4564C52.9357 72.8562 52.3041 74.5072 50.8963 75.1234C49.4961 75.7473 47.8524 75.1234 47.236 73.7083C46.6119 72.3009 47.2436 70.6651 48.6514 70.0413C50.0516 69.4174 51.6953 70.0565 52.3117 71.4564ZM62.9123 114.426C61.4131 114.754 59.9368 113.795 59.6172 112.296C59.2976 110.79 60.2488 109.314 61.748 108.994C63.2471 108.675 64.7234 109.626 65.043 111.132C65.3627 112.623 64.4114 114.107 62.9123 114.426ZM101.555 105.54C100.185 105.244 98.8384 106.118 98.5493 107.488L97.1567 113.993C92.8571 115.948 88.0781 117.028 83.048 117.028C78.0179 117.028 73.0258 115.887 68.6425 113.856L67.2499 107.351C66.9531 105.982 65.6138 105.114 64.244 105.403L58.4986 106.636C57.4332 105.54 56.4439 104.369 55.5307 103.136L83.4741 103.136C83.7937 103.136 83.9992 103.075 83.9992 102.794L83.9992 92.911C83.9992 92.6219 83.7861 92.5686 83.4741 92.5686H75.3011L75.3011 86.3072H84.1362C84.9428 86.3072 88.451 86.5355 89.5696 91.0166C89.9197 92.3936 90.6883 96.8748 91.221 98.3127C91.7461 99.9256 93.8844 103.136 96.1674 103.136H110.086C110.246 103.136 110.413 103.121 110.588 103.083C109.622 104.391 108.564 105.639 107.422 106.796L101.555 105.54ZM102.887 114.563C101.388 114.236 100.437 112.76 100.756 111.262C101.076 109.763 102.552 108.804 104.051 109.131C105.55 109.451 106.509 110.934 106.182 112.433C105.862 113.924 104.386 114.883 102.887 114.563ZM129.164 82.0011L125.237 79.5741C125.207 79.1937 125.169 78.8133 125.123 78.4329L128.494 75.2908C128.837 74.9713 128.989 74.4996 128.897 74.0431C128.806 73.5866 128.486 73.2062 128.045 73.0388L123.73 71.4259C123.624 71.0531 123.51 70.6804 123.395 70.3152L126.082 66.5796C126.356 66.1992 126.409 65.7047 126.234 65.2711C126.059 64.8374 125.663 64.5331 125.207 64.457L120.656 63.719C120.481 63.3767 120.298 63.0343 120.108 62.6996L122.018 58.5075C122.216 58.0815 122.17 57.587 121.912 57.199C121.653 56.8109 121.211 56.5827 120.74 56.5979L116.12 56.7577C115.885 56.461 115.641 56.1643 115.39 55.8752L116.448 51.3788C116.554 50.9223 116.417 50.443 116.09 50.1159C115.763 49.7887 115.283 49.6518 114.827 49.7583L110.329 50.8158C110.04 50.5724 109.743 50.3289 109.447 50.0855L109.606 45.4674C109.622 45.0033 109.393 44.5544 109.005 44.2958C108.617 44.0371 108.122 43.999 107.696 44.1892L103.503 46.0989C103.168 45.9163 102.826 45.7261 102.484 45.5511L101.745 41.0015C101.669 40.5374 101.365 40.1494 100.931 39.9744C100.497 39.7918 100.003 39.8527 99.6223 40.1266L95.8858 42.8198C95.5205 42.7057 95.1477 42.5916 94.7748 42.4851L93.1691 38.1561C93.0093 37.7148 92.6288 37.3953 92.1646 37.304C91.708 37.2127 91.2362 37.3649 90.9166 37.7072L87.7661 41.0852C87.3856 41.0395 87.0051 41.0015 86.6246 40.9711L84.1971 37.0453C83.9536 36.6497 83.5198 36.4063 83.048 36.4063C82.5762 36.4063 82.1424 36.6497 81.8989 37.0453L79.4713 40.9711C79.0909 41.0015 78.7104 41.0395 78.3299 41.0852L75.1794 37.7072C74.8598 37.3649 74.388 37.2127 73.9314 37.304C73.4748 37.3953 73.0943 37.7148 72.9269 38.1561L71.3136 42.4698C70.9407 42.5763 70.5678 42.6905 70.2025 42.8046L66.4661 40.1114C66.0856 39.8375 65.5909 39.7766 65.1572 39.9592C64.7234 40.1342 64.419 40.5298 64.3429 40.9863L63.6048 45.5359C63.2623 45.7109 62.9199 45.8934 62.5851 46.0836L58.392 44.174C57.9659 43.9762 57.4712 44.0219 57.0831 44.2805C56.695 44.5392 56.4667 44.9805 56.4819 45.4522L56.6417 50.0702C56.345 50.3061 56.0482 50.5495 55.759 50.8006L51.2616 49.7431C50.805 49.6366 50.3256 49.7735 49.9983 50.1007C49.6635 50.4354 49.5341 50.9071 49.6407 51.3636L50.6984 55.8599C50.4549 56.149 50.2114 56.4458 49.9679 56.7425L45.3487 56.5827C44.8845 56.5675 44.4355 56.7957 44.1768 57.1837C43.9181 57.5717 43.88 58.0663 44.0703 58.4923L45.9803 62.6843C45.7977 63.0191 45.6074 63.3614 45.4324 63.7038L40.8817 64.4418C40.4175 64.5179 40.0294 64.8222 39.8544 65.2558C39.6794 65.6895 39.7326 66.184 40.0066 66.5644L42.7005 70.3C42.5863 70.6651 42.4722 71.0379 42.3656 71.4107L38.0432 73.0312C37.6019 73.191 37.2823 73.5714 37.1909 74.0355C37.0996 74.492 37.2518 74.9637 37.5943 75.2832L40.9654 78.4253C40.9274 78.8057 40.8893 79.1861 40.8513 79.5665L36.9246 81.9935C36.5365 82.2521 36.293 82.6858 36.293 83.1499C36.293 83.614 36.5365 84.0552 36.9322 84.2987L40.8589 86.7257C40.8893 87.1061 40.9274 87.4865 40.973 87.8669L37.6019 91.0166C37.2594 91.3361 37.1072 91.8078 37.1985 92.2643C37.2899 92.7208 37.6095 93.1012 38.0508 93.2686L42.3656 94.8815C42.4722 95.2542 42.5863 95.627 42.7005 95.9922L40.0066 99.7278C39.7326 100.108 39.6717 100.603 39.8544 101.036C40.037 101.47 40.4251 101.782 40.8893 101.85L45.4324 102.596C45.6074 102.938 45.7901 103.281 45.9803 103.615L44.0703 107.807C43.8724 108.234 43.9181 108.728 44.1768 109.116C44.4355 109.504 44.8845 109.732 45.3487 109.717L49.9603 109.557C50.2038 109.854 50.4397 110.151 50.6908 110.44L49.6331 114.936C49.5265 115.393 49.6635 115.864 49.9907 116.199C50.318 116.534 50.7974 116.663 51.254 116.557L55.7514 115.499C56.0406 115.75 56.3374 115.986 56.6341 116.23L56.4743 120.848C56.4591 121.312 56.6874 121.761 57.0755 122.019C57.4636 122.278 57.9583 122.316 58.3844 122.126L62.5774 120.216C62.9123 120.406 63.2547 120.589 63.5972 120.764L64.3353 125.306C64.4114 125.77 64.7158 126.158 65.1496 126.341C65.5833 126.523 66.078 126.462 66.4585 126.188L70.1949 123.495C70.5602 123.609 70.9331 123.723 71.306 123.838L72.9193 128.151C73.0791 128.593 73.4596 128.912 73.9238 129.003C74.3803 129.095 74.8522 128.943 75.1718 128.6L78.3223 125.23C78.7027 125.275 79.0832 125.314 79.4637 125.344L81.8913 129.27C82.1348 129.665 82.5686 129.909 83.0404 129.909C83.5122 129.909 83.9459 129.665 84.1895 129.27L86.617 125.344C86.9975 125.314 87.378 125.275 87.7585 125.23L90.909 128.6C91.2286 128.943 91.7004 129.095 92.157 129.003C92.6136 128.912 92.9941 128.593 93.1615 128.151L94.7748 123.838C95.1477 123.731 95.5205 123.617 95.8858 123.495L99.6223 126.188C100.003 126.462 100.497 126.516 100.931 126.341C101.365 126.166 101.669 125.77 101.745 125.306L102.484 120.764C102.826 120.589 103.168 120.399 103.503 120.216L107.696 122.126C108.122 122.324 108.617 122.278 109.005 122.019C109.393 121.761 109.622 121.319 109.606 120.848L109.447 116.23C109.743 115.994 110.04 115.75 110.329 115.499L114.827 116.557C115.283 116.663 115.763 116.534 116.09 116.199C116.425 115.864 116.554 115.393 116.448 114.936L115.39 110.44C115.633 110.151 115.877 109.854 116.12 109.557L120.74 109.717C121.204 109.732 121.653 109.504 121.912 109.116C122.17 108.728 122.216 108.234 122.018 107.807L120.108 103.615C120.298 103.273 120.481 102.938 120.656 102.596L125.207 101.858C125.671 101.782 126.059 101.478 126.234 101.044C126.417 100.61 126.356 100.116 126.082 99.7354L123.388 95.9998C123.502 95.627 123.616 95.2619 123.723 94.8891L128.038 93.2762C128.479 93.1088 128.798 92.736 128.89 92.2719C128.981 91.8154 128.829 91.3437 128.486 91.0242L125.115 87.8745C125.153 87.4941 125.191 87.1137 125.229 86.7333L129.156 84.3063C129.552 84.0629 129.795 83.6292 129.795 83.1575C129.795 82.6858 129.559 82.2521 129.164 82.0011Z" fill="url(#paint3_linear_1390_22488)"/>
<defs>
<linearGradient id="paint0_linear_1390_22488" x1="74.7516" y1="0.764568" x2="135.336" y2="170.288" gradientUnits="userSpaceOnUse">
<stop stop-color="#322D37"/>
<stop offset="1" stop-color="#18151B"/>
</linearGradient>
<linearGradient id="paint1_linear_1390_22488" x1="74.7516" y1="0.234228" x2="131.632" y2="165.135" gradientUnits="userSpaceOnUse">
<stop stop-color="#F3F3F3"/>
<stop offset="1" stop-color="#8F8F95"/>
</linearGradient>
<linearGradient id="paint2_linear_1390_22488" x1="78.1961" y1="36.4062" x2="110.133" y2="128.994" gradientUnits="userSpaceOnUse">
<stop stop-color="#4C4C4C"/>
<stop offset="1" stop-color="#1B1B1F"/>
</linearGradient>
<linearGradient id="paint3_linear_1390_22488" x1="78.1961" y1="36.4062" x2="110.133" y2="128.994" gradientUnits="userSpaceOnUse">
<stop stop-color="#F3F3F3"/>
<stop offset="1" stop-color="#8F8F95"/>
</linearGradient>
</defs>
</svg>
