<svg width="167" height="167" viewBox="0 0 167 167" fill="none" xmlns="http://www.w3.org/2000/svg">
<path d="M0.232422 43.68C0.232422 28.3906 0.232422 20.7458 3.20794 14.9061C5.82529 9.76923 10.0017 5.59286 15.1385 2.97552C20.9783 0 28.623 0 43.9124 0L123.082 0C138.372 0 146.017 0 151.856 2.97552C156.993 5.59286 161.17 9.76923 163.787 14.9061C166.762 20.7458 166.762 28.3906 166.762 43.68L166.762 122.85C166.762 138.139 166.762 145.784 163.787 151.624C161.17 156.761 156.993 160.937 151.856 163.554C146.017 166.53 138.372 166.53 123.082 166.53L43.9125 166.53C28.623 166.53 20.9783 166.53 15.1385 163.554C10.0017 160.937 5.82529 156.761 3.20794 151.624C0.232422 145.784 0.232422 138.139 0.232422 122.85L0.232422 43.68Z" fill="url(#paint0_linear_1389_14538)"/>
<path d="M0.232422 43.68C0.232422 28.3906 0.232422 20.7458 3.20794 14.9061C5.82529 9.76923 10.0017 5.59286 15.1385 2.97552C20.9783 0 28.623 0 43.9124 0L123.082 0C138.372 0 146.017 0 151.856 2.97552C156.993 5.59286 161.17 9.76923 163.787 14.9061C166.762 20.7458 166.762 28.3906 166.762 43.68L166.762 122.85C166.762 138.139 166.762 145.784 163.787 151.624C161.17 156.761 156.993 160.937 151.856 163.554C146.017 166.53 138.372 166.53 123.082 166.53L43.9125 166.53C28.623 166.53 20.9783 166.53 15.1385 163.554C10.0017 160.937 5.82529 156.761 3.20794 151.624C0.232422 145.784 0.232422 138.139 0.232422 122.85L0.232422 43.68Z" fill="url(#paint1_linear_1389_14538)"/>
<path d="M164.032 43.68L164.032 122.85C164.032 130.54 164.03 136.143 163.67 140.558C163.311 144.942 162.613 147.914 161.354 150.385C158.999 155.008 155.24 158.766 150.617 161.122C148.146 162.381 145.174 163.079 140.791 163.437C136.375 163.798 130.772 163.8 123.082 163.8L43.9125 163.8C36.2227 163.8 30.6195 163.798 26.2042 163.437C21.8206 163.079 18.8488 162.381 16.3779 161.122C11.7547 158.766 7.996 155.008 5.64039 150.385C4.38141 147.914 3.68344 144.942 3.3253 140.558C2.96455 136.143 2.96242 130.54 2.96242 122.85L2.96242 43.68C2.96242 35.9903 2.96455 30.3871 3.3253 25.9717C3.68344 21.5882 4.38141 18.6164 5.64039 16.1455C7.996 11.5223 11.7547 7.76358 16.3779 5.40797C18.8488 4.14898 21.8206 3.45102 26.2041 3.09287C30.6195 2.73212 36.2227 2.73 43.9124 2.73L123.082 2.73C130.772 2.73 136.375 2.73212 140.791 3.09287C145.174 3.45102 148.146 4.14898 150.617 5.40797C155.24 7.76358 158.999 11.5223 161.354 16.1455C162.613 18.6164 163.311 21.5882 163.67 25.9717C164.03 30.3871 164.032 35.9902 164.032 43.68Z" stroke="url(#paint2_linear_1389_14538)" stroke-opacity="0.5" stroke-width="5.46"/>
<path d="M83.1562 59.4773L106.851 72.5255V67.2941L83.1562 54.2761C79.632 56.2152 62.6 65.5772 59.4617 67.2941C62.3766 68.8999 92.9875 85.7151 111.594 95.9355V101.147C109.065 102.54 83.1562 116.77 83.1562 116.77C76.0672 112.882 61.7977 105.045 54.7187 101.147L54.7187 85.5232L83.1562 101.147L87.8992 98.5411L49.9758 77.7165L49.9758 103.762L83.1562 121.981C86.4266 120.184 113.909 105.085 116.327 103.752V93.34L68.9375 67.2941L83.1562 59.4773ZM49.9758 62.0829V72.5053L97.3648 98.5512L83.1461 106.368L59.4516 93.3198V98.5512L83.1461 111.569C86.6703 109.63 103.702 100.268 106.841 98.5512C103.926 96.9455 73.325 80.1302 54.7187 69.8997V64.6885C57.2477 63.2948 83.1562 49.0649 83.1562 49.0649C90.2352 52.9632 104.505 60.8003 111.594 64.6885L111.594 80.312L83.1562 64.6885L78.4133 67.2941L116.327 88.1288L116.327 62.0829L83.1562 43.8537C79.8758 45.6615 52.4031 60.7599 49.9758 62.0829ZM83.1562 33.4414L40.5 56.8818L40.5 108.964L83.1562 132.404L125.812 108.974L125.812 56.8818L83.1562 33.4414ZM121.059 106.358L83.1562 127.193L45.243 106.358L45.243 59.4874L83.1562 38.6526L121.07 59.4874L121.059 106.358Z" fill="url(#paint3_linear_1389_14538)"/>
<defs>
<linearGradient id="paint0_linear_1389_14538" x1="75.2401" y1="6.85062" x2="127.666" y2="165.536" gradientUnits="userSpaceOnUse">
<stop stop-color="white"/>
<stop offset="1" stop-color="#D7D7D7"/>
</linearGradient>
<linearGradient id="paint1_linear_1389_14538" x1="74.863" y1="0.530193" x2="135.447" y2="170.053" gradientUnits="userSpaceOnUse">
<stop stop-color="#322D37"/>
<stop offset="1" stop-color="#18151B"/>
</linearGradient>
<linearGradient id="paint2_linear_1389_14538" x1="40.5461" y1="19.4923" x2="108.159" y2="156.106" gradientUnits="userSpaceOnUse">
<stop stop-color="#FF00A0"/>
<stop offset="1" stop-color="#9600FF"/>
</linearGradient>
<linearGradient id="paint3_linear_1389_14538" x1="61.1525" y1="45.025" x2="104.794" y2="121.041" gradientUnits="userSpaceOnUse">
<stop stop-color="#FF00A0"/>
<stop offset="1" stop-color="#9600FF"/>
</linearGradient>
</defs>
</svg>
