<svg width="167" height="167" viewBox="0 0 167 167" fill="none" xmlns="http://www.w3.org/2000/svg">
<path d="M0.421875 43.9144C0.421875 28.6249 0.421875 20.9802 3.3974 15.1404C6.01474 10.0036 10.1911 5.82724 15.3279 3.2099C21.1677 0.234375 28.8124 0.234375 44.1019 0.234375L123.272 0.234375C138.561 0.234375 146.206 0.234375 152.046 3.2099C157.182 5.82724 161.359 10.0036 163.976 15.1404C166.952 20.9802 166.952 28.6249 166.952 43.9144L166.952 123.084C166.952 138.374 166.952 146.019 163.976 151.858C161.359 156.995 157.182 161.172 152.046 163.789C146.206 166.764 138.561 166.764 123.272 166.764L44.1019 166.764C28.8124 166.764 21.1677 166.764 15.3279 163.789C10.1911 161.172 6.01474 156.995 3.3974 151.858C0.421875 146.019 0.421875 138.374 0.421875 123.084L0.421875 43.9144Z" fill="url(#paint0_linear_1390_23430)"/>
<path d="M0.421875 43.9144C0.421875 28.6249 0.421875 20.9802 3.3974 15.1404C6.01474 10.0036 10.1911 5.82724 15.3279 3.2099C21.1677 0.234375 28.8124 0.234375 44.1019 0.234375L123.272 0.234375C138.561 0.234375 146.206 0.234375 152.046 3.2099C157.182 5.82724 161.359 10.0036 163.976 15.1404C166.952 20.9802 166.952 28.6249 166.952 43.9144L166.952 123.084C166.952 138.374 166.952 146.019 163.976 151.858C161.359 156.995 157.182 161.172 152.046 163.789C146.206 166.764 138.561 166.764 123.272 166.764L44.1019 166.764C28.8124 166.764 21.1677 166.764 15.3279 163.789C10.1911 161.172 6.01474 156.995 3.3974 151.858C0.421875 146.019 0.421875 138.374 0.421875 123.084L0.421875 43.9144Z" fill="url(#paint1_linear_1390_23430)"/>
<path d="M164.222 43.9144L164.222 123.084C164.222 130.774 164.22 136.377 163.859 140.793C163.501 145.176 162.803 148.148 161.544 150.619C159.188 155.242 155.429 159.001 150.806 161.356C148.335 162.615 145.364 163.313 140.98 163.672C136.565 164.032 130.961 164.034 123.272 164.034L44.1019 164.034C36.4121 164.034 30.809 164.032 26.3936 163.672C22.0101 163.313 19.0382 162.615 16.5673 161.356C11.9442 159.001 8.18545 155.242 5.82984 150.619C4.57086 148.148 3.87289 145.176 3.51475 140.793C3.154 136.377 3.15187 130.774 3.15187 123.084L3.15187 43.9144C3.15187 36.2246 3.154 30.6215 3.51475 26.2061C3.87289 21.8226 4.57086 18.8507 5.82984 16.3798C8.18545 11.7567 11.9442 7.99795 16.5673 5.64234C19.0382 4.38336 22.0101 3.68539 26.3936 3.32725C30.809 2.9665 36.4121 2.96437 44.1019 2.96437L123.272 2.96437C130.961 2.96437 136.565 2.9665 140.98 3.32725C145.364 3.68539 148.335 4.38336 150.806 5.64234C155.429 7.99795 159.188 11.7567 161.544 16.3798C162.803 18.8507 163.501 21.8226 163.859 26.2061C164.22 30.6215 164.222 36.2246 164.222 43.9144Z" stroke="#FF3E00" stroke-opacity="0.5" stroke-width="5.46"/>
<path d="M117.638 49.4908C108.973 37.0894 91.8554 33.4138 79.4844 41.2966L57.7497 55.1485C51.8034 58.8773 47.7025 64.9375 46.457 71.8406C46.1836 73.3823 46.0394 74.9391 46.0394 76.5035C46.0545 80.7563 47.095 84.9407 49.0771 88.6999C47.2165 91.5249 45.9482 94.6917 45.3483 98.018C44.1028 105.058 45.7432 112.303 49.9048 118.112C58.5698 130.514 75.7252 134.189 88.0583 126.307L109.77 112.455C115.709 108.726 119.802 102.658 121.032 95.7473C121.313 94.2133 121.45 92.6565 121.45 91.092C121.45 86.8469 120.417 82.67 118.45 78.9109C120.311 76.0934 121.579 72.9266 122.179 69.6003C122.445 68.0663 122.589 66.5019 122.589 64.9451C122.589 59.4089 120.858 54.0094 117.638 49.506V49.4908Z" fill="#FF3E00"/>
<path d="M77.3567 119.281C75.9366 119.645 74.4785 119.835 73.0128 119.835C67.3551 119.835 62.0543 117.063 58.8344 112.408C56.8978 109.697 55.8574 106.454 55.8574 103.12C55.8574 102.186 55.941 101.252 56.1004 100.326C56.2295 99.6422 56.4042 98.9587 56.6244 98.298L57.0345 97.0525L58.1433 97.8955C60.7177 99.7865 63.5959 101.222 66.6488 102.148L67.4538 102.391L67.3779 103.196L67.3779 103.614C67.3779 104.624 67.6892 105.604 68.274 106.424C69.2309 107.844 70.8333 108.695 72.542 108.702C72.9824 108.702 73.4229 108.649 73.8482 108.535C74.319 108.414 74.7747 108.216 75.1848 107.95L96.8967 94.03C98.2181 93.1947 99.0231 91.729 99.0155 90.1646C99.0155 89.1545 98.6889 88.1749 98.0966 87.3623C97.1245 85.9649 95.5297 85.1296 93.821 85.1296C93.3805 85.1296 92.9401 85.1827 92.5148 85.2967C92.044 85.4182 91.5959 85.6156 91.1858 85.8814L82.9081 91.167C81.5411 92.0328 80.0527 92.6859 78.4958 93.1035C77.0757 93.4681 75.6176 93.6579 74.1519 93.6579C68.4942 93.6579 63.2011 90.886 59.9735 86.2383C58.037 83.5272 56.9966 80.2845 56.9966 76.9506C56.9966 76.0165 57.0801 75.0824 57.2396 74.1559C57.9914 70.0094 60.4443 66.3642 64.0136 64.1087L85.7483 50.2644C87.1153 49.3987 88.5962 48.738 90.1606 48.3203C91.5807 47.9558 93.0388 47.7735 94.5045 47.7735C100.177 47.7583 105.493 50.5302 108.728 55.1855C110.65 57.9042 111.683 61.1546 111.667 64.4808C111.667 65.4225 111.584 66.3566 111.424 67.2831C111.295 67.9666 111.121 68.6501 110.9 69.3108L110.49 70.5562L109.382 69.7436C106.807 67.8527 103.937 66.4098 100.876 65.4909L100.071 65.2403L100.147 64.4353L100.147 64.0176C100.147 63.0076 99.8357 62.0203 99.2509 61.2001C98.2788 59.8028 96.684 58.9674 94.9829 58.9674C94.5425 58.975 94.1096 59.0434 93.6919 59.1649C93.2211 59.2864 92.7654 59.4838 92.3553 59.7496L70.6206 73.5939C69.5422 74.2774 68.8056 75.3786 68.5778 76.6316C68.5246 76.8974 68.4942 77.1632 68.479 77.4366C68.479 78.4391 68.7904 79.4187 69.3752 80.2389C70.3472 81.6362 71.942 82.4716 73.6431 82.4716C74.0836 82.4716 74.5241 82.4184 74.9493 82.3045C75.4202 82.183 75.8758 81.9856 76.2859 81.7198L84.5788 76.4038C85.9458 75.5381 87.4343 74.885 88.9911 74.4673C90.4112 74.1027 91.8693 73.9129 93.335 73.9129C98.9927 73.9129 104.293 76.6848 107.521 81.3325C109.458 84.0436 110.498 87.2863 110.498 90.6202C110.498 91.5695 110.414 92.5112 110.247 93.4453C109.503 97.5993 107.043 101.245 103.473 103.492L81.7766 117.337C80.4096 118.203 78.9211 118.863 77.3567 119.281Z" fill="white"/>
<defs>
<linearGradient id="paint0_linear_1390_23430" x1="75.4294" y1="7.08499" x2="127.855" y2="165.77" gradientUnits="userSpaceOnUse">
<stop stop-color="white"/>
<stop offset="1" stop-color="#D7D7D7"/>
</linearGradient>
<linearGradient id="paint1_linear_1390_23430" x1="75.0523" y1="0.764568" x2="135.636" y2="170.288" gradientUnits="userSpaceOnUse">
<stop stop-color="#322D37"/>
<stop offset="1" stop-color="#18151B"/>
</linearGradient>
</defs>
</svg>
