<svg width="167" height="167" viewBox="0 0 167 167" fill="none" xmlns="http://www.w3.org/2000/svg">
<path d="M0.242187 43.9144C0.242187 28.6249 0.242187 20.9802 3.21771 15.1404C5.83505 10.0036 10.0114 5.82724 15.1482 3.2099C20.988 0.234375 28.6327 0.234375 43.9222 0.234375L123.092 0.234375C138.381 0.234375 146.026 0.234375 151.866 3.2099C157.003 5.82724 161.179 10.0036 163.797 15.1404C166.772 20.9802 166.772 28.6249 166.772 43.9144L166.772 123.084C166.772 138.374 166.772 146.019 163.797 151.858C161.179 156.995 157.003 161.172 151.866 163.789C146.026 166.764 138.381 166.764 123.092 166.764L43.9222 166.764C28.6327 166.764 20.988 166.764 15.1482 163.789C10.0114 161.172 5.83505 156.995 3.21771 151.858C0.242187 146.019 0.242187 138.374 0.242187 123.084L0.242187 43.9144Z" fill="url(#paint0_linear_1390_23210)"/>
<path d="M0.242187 43.9144C0.242187 28.6249 0.242187 20.9802 3.21771 15.1404C5.83505 10.0036 10.0114 5.82724 15.1482 3.2099C20.988 0.234375 28.6327 0.234375 43.9222 0.234375L123.092 0.234375C138.381 0.234375 146.026 0.234375 151.866 3.2099C157.003 5.82724 161.179 10.0036 163.797 15.1404C166.772 20.9802 166.772 28.6249 166.772 43.9144L166.772 123.084C166.772 138.374 166.772 146.019 163.797 151.858C161.179 156.995 157.003 161.172 151.866 163.789C146.026 166.764 138.381 166.764 123.092 166.764L43.9222 166.764C28.6327 166.764 20.988 166.764 15.1482 163.789C10.0114 161.172 5.83505 156.995 3.21771 151.858C0.242187 146.019 0.242187 138.374 0.242187 123.084L0.242187 43.9144Z" fill="url(#paint1_linear_1390_23210)"/>
<path d="M164.042 43.9144L164.042 123.084C164.042 130.774 164.04 136.377 163.679 140.793C163.321 145.176 162.623 148.148 161.364 150.619C159.008 155.242 155.25 159.001 150.627 161.356C148.156 162.615 145.184 163.313 140.8 163.672C136.385 164.032 130.782 164.034 123.092 164.034L43.9222 164.034C36.2324 164.034 30.6293 164.032 26.2139 163.672C21.8304 163.313 18.8585 162.615 16.3876 161.356C11.7645 159.001 8.00576 155.242 5.65016 150.619C4.39117 148.148 3.69321 145.176 3.33506 140.793C2.97431 136.377 2.97219 130.774 2.97219 123.084L2.97219 43.9144C2.97219 36.2246 2.97431 30.6215 3.33506 26.2061C3.69321 21.8226 4.39117 18.8507 5.65016 16.3798C8.00576 11.7567 11.7645 7.99795 16.3876 5.64234C18.8585 4.38336 21.8304 3.68539 26.2139 3.32725C30.6293 2.9665 36.2324 2.96437 43.9222 2.96437L123.092 2.96437C130.782 2.96437 136.385 2.9665 140.8 3.32725C145.184 3.68539 148.156 4.38336 150.627 5.64234C155.25 7.99795 159.008 11.7567 161.364 16.3798C162.623 18.8507 163.321 21.8226 163.679 26.2061C164.04 30.6215 164.042 36.2246 164.042 43.9144Z" stroke="#F05138" stroke-opacity="0.5" stroke-width="5.46"/>
<path d="M124.457 64.9348C124.457 64.1032 124.443 63.2854 124.415 62.4538C124.374 60.6519 124.263 58.8362 123.944 57.0483C123.625 55.2326 123.085 53.5555 122.253 51.9061C121.435 50.2844 120.354 48.8152 119.079 47.5262C117.804 46.2372 116.321 45.17 114.699 44.3522C113.05 43.5206 111.373 42.9801 109.557 42.6613C107.769 42.3425 105.953 42.2316 104.152 42.19C103.32 42.1623 102.502 42.1623 101.671 42.1484C100.686 42.1484 99.7024 42.1484 98.7183 42.1484H67.9069C66.9228 42.1484 65.9387 42.1484 64.9547 42.1484C64.123 42.1484 63.2914 42.1623 62.4737 42.19C62.0163 42.19 61.5727 42.2177 61.1154 42.2455C59.7571 42.3148 58.3987 42.4256 57.0682 42.6751C55.7098 42.9246 54.4208 43.285 53.1734 43.7978C52.7576 43.9641 52.3418 44.1582 51.926 44.3661C50.7201 44.9898 49.5836 45.7383 48.5441 46.6253C48.1976 46.9164 47.8649 47.2213 47.5461 47.554C46.2571 48.843 45.1899 50.3122 44.3721 51.9338C43.5405 53.5832 43 55.2603 42.6812 57.076C42.3624 58.864 42.2515 60.6797 42.2099 62.4815C42.1822 63.3131 42.1822 64.1309 42.1683 64.9625C42.1406 65.9189 42.1406 66.9029 42.1406 67.887L42.1406 98.6985C42.1406 99.6825 42.1406 100.667 42.1406 101.651C42.1406 102.482 42.1545 103.3 42.1822 104.132C42.2376 105.934 42.3347 107.749 42.6535 109.537C42.9722 111.353 43.5128 113.03 44.3444 114.679C45.1622 116.301 46.2433 117.77 47.5184 119.059C48.7936 120.348 50.2766 121.415 51.8983 122.233C53.5476 123.065 55.2247 123.605 57.0404 123.924C58.8284 124.243 60.6441 124.354 62.4459 124.395C63.2776 124.423 64.0953 124.423 64.9269 124.437C65.911 124.437 66.8951 124.437 67.8792 124.437L98.6906 124.437C99.6747 124.437 100.659 124.437 101.643 124.437C102.474 124.437 103.292 124.423 104.124 124.395C105.926 124.354 107.741 124.243 109.529 123.924C111.345 123.605 113.022 123.065 114.672 122.233C116.293 121.415 117.762 120.334 119.051 119.059C120.34 117.784 121.408 116.301 122.225 114.679C123.057 113.03 123.598 111.353 123.916 109.537C124.235 107.749 124.346 105.934 124.388 104.132C124.415 103.3 124.415 102.482 124.429 101.651C124.429 100.667 124.429 99.6825 124.429 98.6985L124.429 67.887C124.429 66.9029 124.429 65.9189 124.429 64.9348H124.457Z" fill="#F05138"/>
<path d="M107.368 92.9458C107.465 92.6409 107.548 92.3221 107.631 92.0172C111.055 78.4063 102.711 62.3145 88.6013 53.832C94.783 62.2175 97.5135 72.3633 95.0879 81.2477C94.8661 82.0377 94.6167 82.8001 94.3256 83.5347C94.0068 83.3268 93.6187 83.0911 93.092 82.8001C93.092 82.8001 79.0516 74.1374 63.8468 58.8079C63.4449 58.4059 71.9551 70.9772 81.6157 81.1784C77.0695 78.6281 64.3874 69.3971 56.3484 62.0512C57.3325 63.7006 58.5106 65.2806 59.7996 66.8053C66.508 75.3016 75.2538 85.7939 85.7184 93.8606C78.3585 98.3652 67.9633 98.7117 57.5958 93.8606C55.0317 92.6547 52.62 91.2133 50.4023 89.5639C54.7822 96.5772 61.5322 102.62 69.7513 106.155C79.5505 110.368 89.2943 110.077 96.5571 106.224C96.5571 106.224 96.6264 106.182 96.668 106.169C96.9729 106.002 97.264 105.85 97.555 105.67C101.048 103.854 107.923 102.024 111.623 109.218C112.524 110.978 114.451 101.65 107.382 92.9458H107.368Z" fill="white"/>
<defs>
<linearGradient id="paint0_linear_1390_23210" x1="75.2498" y1="7.08499" x2="127.676" y2="165.77" gradientUnits="userSpaceOnUse">
<stop stop-color="white"/>
<stop offset="1" stop-color="#D7D7D7"/>
</linearGradient>
<linearGradient id="paint1_linear_1390_23210" x1="74.8727" y1="0.764568" x2="135.457" y2="170.288" gradientUnits="userSpaceOnUse">
<stop stop-color="#322D37"/>
<stop offset="1" stop-color="#18151B"/>
</linearGradient>
</defs>
</svg>
