<svg width="168" height="167" viewBox="0 0 168 167" fill="none" xmlns="http://www.w3.org/2000/svg">
<path d="M0.832031 43.68C0.832031 28.3906 0.832031 20.7458 3.80755 14.9061C6.42489 9.76923 10.6013 5.59286 15.7381 2.97552C21.5779 0 29.2226 0 44.512 0L123.682 0C138.971 0 146.616 0 152.456 2.97552C157.593 5.59286 161.769 9.76923 164.386 14.9061C167.362 20.7458 167.362 28.3906 167.362 43.68L167.362 122.85C167.362 138.139 167.362 145.784 164.386 151.624C161.769 156.761 157.593 160.937 152.456 163.554C146.616 166.53 138.971 166.53 123.682 166.53L44.512 166.53C29.2226 166.53 21.5779 166.53 15.7381 163.554C10.6013 160.937 6.42489 156.761 3.80755 151.624C0.832031 145.784 0.832031 138.139 0.832031 122.85L0.832031 43.68Z" fill="url(#paint0_linear_1390_23484)"/>
<path d="M0.832031 43.68C0.832031 28.3906 0.832031 20.7458 3.80755 14.9061C6.42489 9.76923 10.6013 5.59286 15.7381 2.97552C21.5779 0 29.2226 0 44.512 0L123.682 0C138.971 0 146.616 0 152.456 2.97552C157.593 5.59286 161.769 9.76923 164.386 14.9061C167.362 20.7458 167.362 28.3906 167.362 43.68L167.362 122.85C167.362 138.139 167.362 145.784 164.386 151.624C161.769 156.761 157.593 160.937 152.456 163.554C146.616 166.53 138.971 166.53 123.682 166.53L44.512 166.53C29.2226 166.53 21.5779 166.53 15.7381 163.554C10.6013 160.937 6.42489 156.761 3.80755 151.624C0.832031 145.784 0.832031 138.139 0.832031 122.85L0.832031 43.68Z" fill="url(#paint1_linear_1390_23484)"/>
<path d="M164.632 43.68L164.632 122.85C164.632 130.54 164.63 136.143 164.269 140.558C163.911 144.942 163.213 147.914 161.954 150.385C159.598 155.008 155.84 158.766 151.216 161.122C148.746 162.381 145.774 163.079 141.39 163.437C136.975 163.798 131.372 163.8 123.682 163.8L44.512 163.8C36.8223 163.8 31.2191 163.798 26.8037 163.437C22.4202 163.079 19.4484 162.381 16.9775 161.122C12.3543 158.766 8.59561 155.008 6.24 150.385C4.98101 147.914 4.28305 144.942 3.9249 140.558C3.56415 136.143 3.56203 130.54 3.56203 122.85L3.56203 43.68C3.56203 35.9902 3.56415 30.3871 3.9249 25.9717C4.28305 21.5882 4.98101 18.6163 6.24 16.1454C8.59561 11.5223 12.3543 7.76358 16.9775 5.40797C19.4484 4.14898 22.4202 3.45102 26.8037 3.09287C31.2191 2.73212 36.8223 2.73 44.512 2.73L123.682 2.73C131.372 2.73 136.975 2.73212 141.39 3.09287C145.774 3.45102 148.746 4.14898 151.216 5.40797C155.84 7.76358 159.598 11.5223 161.954 16.1454C163.213 18.6163 163.911 21.5882 164.269 25.9717C164.63 30.3871 164.632 35.9902 164.632 43.68Z" stroke="#41B883" stroke-opacity="0.5" stroke-width="5.46"/>
<path d="M94.0821 49.1406L84.0111 66.5866L73.9368 49.1406L40.3945 49.1406L84.0111 124.687L127.624 49.1406L94.0821 49.1406Z" fill="#41B883"/>
<path d="M94.0834 49.1406L84.0124 66.5866L73.9381 49.1406L57.8418 49.1406L84.0124 94.4668L110.18 49.1406L94.0834 49.1406Z" fill="#34495E"/>
<defs>
<linearGradient id="paint0_linear_1390_23484" x1="75.8396" y1="6.85062" x2="128.266" y2="165.536" gradientUnits="userSpaceOnUse">
<stop stop-color="white"/>
<stop offset="1" stop-color="#D7D7D7"/>
</linearGradient>
<linearGradient id="paint1_linear_1390_23484" x1="75.4625" y1="0.530193" x2="136.047" y2="170.053" gradientUnits="userSpaceOnUse">
<stop stop-color="#322D37"/>
<stop offset="1" stop-color="#18151B"/>
</linearGradient>
</defs>
</svg>
