<svg width="168" height="167" viewBox="0 0 168 167" fill="none" xmlns="http://www.w3.org/2000/svg">
<path d="M0.53125 43.68C0.53125 28.3906 0.53125 20.7458 3.50677 14.9061C6.12411 9.76923 10.3005 5.59286 15.4373 2.97552C21.2771 0 28.9218 0 44.2112 0L123.381 0C138.671 0 146.315 0 152.155 2.97552C157.292 5.59286 161.468 9.76923 164.086 14.9061C167.061 20.7458 167.061 28.3906 167.061 43.68L167.061 122.85C167.061 138.139 167.061 145.784 164.086 151.624C161.468 156.761 157.292 160.937 152.155 163.554C146.315 166.53 138.671 166.53 123.381 166.53L44.2112 166.53C28.9218 166.53 21.2771 166.53 15.4373 163.554C10.3005 160.937 6.12411 156.761 3.50677 151.624C0.53125 145.784 0.53125 138.139 0.53125 122.85L0.53125 43.68Z" fill="url(#paint0_linear_1390_22414)"/>
<path d="M0.53125 43.68C0.53125 28.3906 0.53125 20.7458 3.50677 14.9061C6.12411 9.76923 10.3005 5.59286 15.4373 2.97552C21.2771 0 28.9218 0 44.2112 0L123.381 0C138.671 0 146.315 0 152.155 2.97552C157.292 5.59286 161.468 9.76923 164.086 14.9061C167.061 20.7458 167.061 28.3906 167.061 43.68L167.061 122.85C167.061 138.139 167.061 145.784 164.086 151.624C161.468 156.761 157.292 160.937 152.155 163.554C146.315 166.53 138.671 166.53 123.381 166.53L44.2112 166.53C28.9218 166.53 21.2771 166.53 15.4373 163.554C10.3005 160.937 6.12411 156.761 3.50677 151.624C0.53125 145.784 0.53125 138.139 0.53125 122.85L0.53125 43.68Z" fill="url(#paint1_linear_1390_22414)"/>
<path d="M164.331 43.68L164.331 122.85C164.331 130.54 164.329 136.143 163.968 140.558C163.61 144.942 162.912 147.914 161.653 150.385C159.298 155.008 155.539 158.766 150.916 161.122C148.445 162.381 145.473 163.079 141.089 163.437C136.674 163.798 131.071 163.8 123.381 163.8L44.2112 163.8C36.5215 163.8 30.9183 163.798 26.503 163.437C22.1195 163.079 19.1476 162.381 16.6767 161.122C12.0536 158.766 8.29483 155.008 5.93922 150.385C4.68023 147.914 3.98227 144.942 3.62412 140.558C3.26337 136.143 3.26125 130.54 3.26125 122.85L3.26125 43.68C3.26125 35.9902 3.26337 30.3871 3.62412 25.9717C3.98227 21.5882 4.68023 18.6163 5.93922 16.1454C8.29483 11.5223 12.0536 7.76358 16.6767 5.40797C19.1476 4.14898 22.1195 3.45102 26.503 3.09287C30.9183 2.73212 36.5215 2.73 44.2112 2.73L123.381 2.73C131.071 2.73 136.674 2.73212 141.089 3.09287C145.473 3.45102 148.445 4.14898 150.916 5.40797C155.539 7.76358 159.298 11.5223 161.653 16.1454C162.912 18.6163 163.61 21.5882 163.968 25.9717C164.329 30.3871 164.331 35.9902 164.331 43.68Z" stroke="#654FF0" stroke-opacity="0.5" stroke-width="5.46"/>
<g clip-path="url(#clip0_1390_22414)" filter="url(#filter0_d_1390_22414)">
<path d="M92.6963 44.3633L92.6963 44.7828C92.6963 49.7105 88.7018 53.7037 83.7754 53.7037C78.849 53.7037 74.8545 49.7092 74.8545 44.7828L74.8545 44.3633L44.8945 44.3633L44.8945 122.168L122.699 122.168L122.699 44.3633L92.6963 44.3633Z" fill="#654FF0"/>
<path d="M62.9668 86.293L68.1233 86.293L71.6436 105.041H71.7071L75.9381 86.293H80.7615L84.5831 105.271H84.6581L88.6704 86.293L93.7277 86.293L87.1562 113.841L82.0392 113.841L78.2494 95.0931H78.1502L74.0934 113.841H68.881L62.9668 86.293ZM99.5415 86.293L107.67 86.293L115.743 113.841H110.424L108.668 107.711L99.408 107.711L98.0528 113.841H92.8721L99.5415 86.293ZM102.636 93.0831L100.387 103.19L107.387 103.19L104.805 93.0831H102.636Z" fill="white"/>
</g>
<defs>
<filter id="filter0_d_1390_22414" x="42.1645" y="44.3633" width="83.2647" height="83.2647" filterUnits="userSpaceOnUse" color-interpolation-filters="sRGB">
<feFlood flood-opacity="0" result="BackgroundImageFix"/>
<feColorMatrix in="SourceAlpha" type="matrix" values="0 0 0 0 0 0 0 0 0 0 0 0 0 0 0 0 0 0 127 0" result="hardAlpha"/>
<feOffset dy="2.73"/>
<feGaussianBlur stdDeviation="1.365"/>
<feComposite in2="hardAlpha" operator="out"/>
<feColorMatrix type="matrix" values="0 0 0 0 0 0 0 0 0 0 0 0 0 0 0 0 0 0 0.25 0"/>
<feBlend mode="normal" in2="BackgroundImageFix" result="effect1_dropShadow_1390_22414"/>
<feBlend mode="normal" in="SourceGraphic" in2="effect1_dropShadow_1390_22414" result="shape"/>
</filter>
<linearGradient id="paint0_linear_1390_22414" x1="75.5388" y1="6.85062" x2="127.965" y2="165.536" gradientUnits="userSpaceOnUse">
<stop stop-color="white"/>
<stop offset="1" stop-color="#D7D7D7"/>
</linearGradient>
<linearGradient id="paint1_linear_1390_22414" x1="75.1617" y1="0.530193" x2="135.746" y2="170.053" gradientUnits="userSpaceOnUse">
<stop stop-color="#322D37"/>
<stop offset="1" stop-color="#18151B"/>
</linearGradient>
<clipPath id="clip0_1390_22414">
<rect width="77.8049" height="77.805" fill="white" transform="translate(44.8945 44.3633)"/>
</clipPath>
</defs>
</svg>
