<svg width="168" height="167" viewBox="0 0 168 167" fill="none" xmlns="http://www.w3.org/2000/svg">
<path d="M0.481445 43.9144C0.481445 28.6249 0.481445 20.9802 3.45697 15.1404C6.07431 10.0036 10.2507 5.82724 15.3875 3.2099C21.2273 0.234375 28.872 0.234375 44.1614 0.234375L123.331 0.234375C138.621 0.234375 146.265 0.234375 152.105 3.2099C157.242 5.82724 161.418 10.0036 164.036 15.1404C167.011 20.9802 167.011 28.6249 167.011 43.9144L167.011 123.084C167.011 138.374 167.011 146.019 164.036 151.858C161.418 156.995 157.242 161.172 152.105 163.789C146.265 166.764 138.621 166.764 123.331 166.764L44.1614 166.764C28.872 166.764 21.2273 166.764 15.3875 163.789C10.2507 161.172 6.07431 156.995 3.45697 151.858C0.481445 146.019 0.481445 138.374 0.481445 123.084L0.481445 43.9144Z" fill="url(#paint0_linear_1390_23344)"/>
<path d="M0.481445 43.9144C0.481445 28.6249 0.481445 20.9802 3.45697 15.1404C6.07431 10.0036 10.2507 5.82724 15.3875 3.2099C21.2273 0.234375 28.872 0.234375 44.1614 0.234375L123.331 0.234375C138.621 0.234375 146.265 0.234375 152.105 3.2099C157.242 5.82724 161.418 10.0036 164.036 15.1404C167.011 20.9802 167.011 28.6249 167.011 43.9144L167.011 123.084C167.011 138.374 167.011 146.019 164.036 151.858C161.418 156.995 157.242 161.172 152.105 163.789C146.265 166.764 138.621 166.764 123.331 166.764L44.1614 166.764C28.872 166.764 21.2273 166.764 15.3875 163.789C10.2507 161.172 6.07431 156.995 3.45697 151.858C0.481445 146.019 0.481445 138.374 0.481445 123.084L0.481445 43.9144Z" fill="url(#paint1_linear_1390_23344)"/>
<path d="M164.281 43.9144L164.281 123.084C164.281 130.774 164.279 136.377 163.918 140.793C163.56 145.176 162.862 148.148 161.603 150.619C159.248 155.242 155.489 159.001 150.866 161.356C148.395 162.615 145.423 163.313 141.04 163.672C136.624 164.032 131.021 164.034 123.331 164.034L44.1614 164.034C36.4717 164.034 30.8685 164.032 26.4532 163.672C22.0697 163.313 19.0978 162.615 16.6269 161.356C12.0038 159.001 8.24502 155.242 5.88941 150.619C4.63043 148.148 3.93246 145.176 3.57432 140.793C3.21357 136.377 3.21144 130.774 3.21144 123.084L3.21144 43.9144C3.21144 36.2246 3.21357 30.6215 3.57432 26.2061C3.93246 21.8226 4.63043 18.8507 5.88941 16.3798C8.24502 11.7567 12.0038 7.99795 16.6269 5.64234C19.0978 4.38336 22.0697 3.68539 26.4532 3.32725C30.8685 2.9665 36.4717 2.96437 44.1614 2.96437L123.331 2.96437C131.021 2.96437 136.624 2.9665 141.04 3.32725C145.423 3.68539 148.395 4.38336 150.866 5.64234C155.489 7.99795 159.248 11.7567 161.603 16.3798C162.862 18.8507 163.56 21.8226 163.918 26.2061C164.279 30.6215 164.281 36.2246 164.281 43.9144Z" stroke="#2CB7F6" stroke-opacity="0.5" stroke-width="5.46"/>
<path d="M126.327 41.1836L80.5993 47.8926L80.5993 81.9015L126.327 81.5398L126.327 41.1836ZM41.458 85.5939L41.458 114.532L76.1221 119.296L76.0948 85.8123L41.458 85.5939ZM80.2376 86.058L80.299 119.821L126.286 126.312L126.299 86.1399L80.2376 86.0648V86.058ZM41.4307 53.2365L41.4648 82.1609L76.1289 81.963L76.1153 48.5068L41.4307 53.2365Z" fill="#00ADEF"/>
<defs>
<linearGradient id="paint0_linear_1390_23344" x1="75.489" y1="7.08499" x2="127.915" y2="165.77" gradientUnits="userSpaceOnUse">
<stop stop-color="white"/>
<stop offset="1" stop-color="#D7D7D7"/>
</linearGradient>
<linearGradient id="paint1_linear_1390_23344" x1="75.1119" y1="0.764568" x2="135.696" y2="170.288" gradientUnits="userSpaceOnUse">
<stop stop-color="#322D37"/>
<stop offset="1" stop-color="#18151B"/>
</linearGradient>
</defs>
</svg>
